<?xml version="1.0" encoding="utf-8"?>
<svg xmlns="http://www.w3.org/2000/svg" xmlns:xlink="http://www.w3.org/1999/xlink" width="600" height="400" viewBox="0 0 2400 1600">
<defs>
  <clipPath id="clip490">
    <rect x="0" y="0" width="2400" height="1600"/>
  </clipPath>
</defs>
<path clip-path="url(#clip490)" d="M0 1600 L2400 1600 L2400 0 L0 0  Z" fill="#ffffff" fill-rule="evenodd" fill-opacity="1"/>
<defs>
  <clipPath id="clip491">
    <rect x="480" y="0" width="1681" height="1600"/>
  </clipPath>
</defs>
<path clip-path="url(#clip490)" d="M309.018 592.94 L2352.76 592.94 L2352.76 47.2441 L309.018 47.2441  Z" fill="#ffffff" fill-rule="evenodd" fill-opacity="1"/>
<defs>
  <clipPath id="clip492">
    <rect x="309" y="47" width="2045" height="547"/>
  </clipPath>
</defs>
<polyline clip-path="url(#clip490)" style="stroke:#000000; stroke-linecap:round; stroke-linejoin:round; stroke-width:4; stroke-opacity:1; fill:none" points="309.018,592.94 2352.76,592.94 "/>
<polyline clip-path="url(#clip490)" style="stroke:#000000; stroke-linecap:round; stroke-linejoin:round; stroke-width:4; stroke-opacity:1; fill:none" points="366.86,592.94 366.86,574.042 "/>
<polyline clip-path="url(#clip490)" style="stroke:#000000; stroke-linecap:round; stroke-linejoin:round; stroke-width:4; stroke-opacity:1; fill:none" points="1009.54,592.94 1009.54,574.042 "/>
<polyline clip-path="url(#clip490)" style="stroke:#000000; stroke-linecap:round; stroke-linejoin:round; stroke-width:4; stroke-opacity:1; fill:none" points="1652.23,592.94 1652.23,574.042 "/>
<polyline clip-path="url(#clip490)" style="stroke:#000000; stroke-linecap:round; stroke-linejoin:round; stroke-width:4; stroke-opacity:1; fill:none" points="2294.91,592.94 2294.91,574.042 "/>
<path clip-path="url(#clip490)" d="M366.86 629.718 Q361.443 629.718 358.7 635.065 Q355.992 640.378 355.992 651.072 Q355.992 661.732 358.7 667.079 Q361.443 672.391 366.86 672.391 Q372.311 672.391 375.019 667.079 Q377.762 661.732 377.762 651.072 Q377.762 640.378 375.019 635.065 Q372.311 629.718 366.86 629.718 M366.86 624.162 Q375.575 624.162 380.158 631.072 Q384.776 637.947 384.776 651.072 Q384.776 664.162 380.158 671.072 Q375.575 677.947 366.86 677.947 Q358.144 677.947 353.526 671.072 Q348.943 664.162 348.943 651.072 Q348.943 637.947 353.526 631.072 Q358.144 624.162 366.86 624.162 Z" fill="#000000" fill-rule="nonzero" fill-opacity="1" /><path clip-path="url(#clip490)" d="M994.961 625.1 L1022.5 625.1 L1022.5 631.003 L1001.38 631.003 L1001.38 643.711 Q1002.91 643.19 1004.44 642.947 Q1005.97 642.669 1007.5 642.669 Q1016.18 642.669 1021.25 647.426 Q1026.32 652.183 1026.32 660.308 Q1026.32 668.676 1021.11 673.329 Q1015.9 677.947 1006.42 677.947 Q1003.16 677.947 999.753 677.391 Q996.385 676.836 992.774 675.725 L992.774 668.676 Q995.899 670.377 999.232 671.211 Q1002.57 672.044 1006.28 672.044 Q1012.29 672.044 1015.79 668.884 Q1019.3 665.725 1019.3 660.308 Q1019.3 654.891 1015.79 651.732 Q1012.29 648.572 1006.28 648.572 Q1003.47 648.572 1000.66 649.197 Q997.878 649.822 994.961 651.141 L994.961 625.1 Z" fill="#000000" fill-rule="nonzero" fill-opacity="1" /><path clip-path="url(#clip490)" d="M1614.26 671.037 L1625.72 671.037 L1625.72 631.489 L1613.25 633.989 L1613.25 627.6 L1625.65 625.1 L1632.66 625.1 L1632.66 671.037 L1644.12 671.037 L1644.12 676.94 L1614.26 676.94 L1614.26 671.037 Z" fill="#000000" fill-rule="nonzero" fill-opacity="1" /><path clip-path="url(#clip490)" d="M1673.29 629.718 Q1667.87 629.718 1665.13 635.065 Q1662.42 640.378 1662.42 651.072 Q1662.42 661.732 1665.13 667.079 Q1667.87 672.391 1673.29 672.391 Q1678.74 672.391 1681.45 667.079 Q1684.19 661.732 1684.19 651.072 Q1684.19 640.378 1681.45 635.065 Q1678.74 629.718 1673.29 629.718 M1673.29 624.162 Q1682 624.162 1686.59 631.072 Q1691.2 637.947 1691.2 651.072 Q1691.2 664.162 1686.59 671.072 Q1682 677.947 1673.29 677.947 Q1664.57 677.947 1659.96 671.072 Q1655.37 664.162 1655.37 651.072 Q1655.37 637.947 1659.96 631.072 Q1664.57 624.162 1673.29 624.162 Z" fill="#000000" fill-rule="nonzero" fill-opacity="1" /><path clip-path="url(#clip490)" d="M2257.69 671.037 L2269.15 671.037 L2269.15 631.489 L2256.69 633.989 L2256.69 627.6 L2269.08 625.1 L2276.09 625.1 L2276.09 671.037 L2287.55 671.037 L2287.55 676.94 L2257.69 676.94 L2257.69 671.037 Z" fill="#000000" fill-rule="nonzero" fill-opacity="1" /><path clip-path="url(#clip490)" d="M2301.79 625.1 L2329.32 625.1 L2329.32 631.003 L2308.21 631.003 L2308.21 643.711 Q2309.74 643.19 2311.27 642.947 Q2312.8 642.669 2314.32 642.669 Q2323 642.669 2328.07 647.426 Q2333.14 652.183 2333.14 660.308 Q2333.14 668.676 2327.93 673.329 Q2322.73 677.947 2313.25 677.947 Q2309.98 677.947 2306.58 677.391 Q2303.21 676.836 2299.6 675.725 L2299.6 668.676 Q2302.73 670.377 2306.06 671.211 Q2309.39 672.044 2313.11 672.044 Q2319.12 672.044 2322.62 668.884 Q2326.13 665.725 2326.13 660.308 Q2326.13 654.891 2322.62 651.732 Q2319.12 648.572 2313.11 648.572 Q2310.3 648.572 2307.48 649.197 Q2304.71 649.822 2301.79 651.141 L2301.79 625.1 Z" fill="#000000" fill-rule="nonzero" fill-opacity="1" /><path clip-path="url(#clip490)" d="M1273.61 721.024 L1273.61 733.906 L1288.96 733.906 L1288.96 739.699 L1273.61 739.699 L1273.61 764.328 Q1273.61 769.878 1275.11 771.458 Q1276.65 773.037 1281.3 773.037 L1288.96 773.037 L1288.96 779.276 L1281.3 779.276 Q1272.68 779.276 1269.39 776.076 Q1266.11 772.835 1266.11 764.328 L1266.11 739.699 L1260.64 739.699 L1260.64 733.906 L1266.11 733.906 L1266.11 721.024 L1273.61 721.024 Z" fill="#000000" fill-rule="nonzero" fill-opacity="1" /><path clip-path="url(#clip490)" d="M1316.67 716.325 Q1311.24 725.642 1308.61 734.756 Q1305.97 743.871 1305.97 753.229 Q1305.97 762.586 1308.61 771.782 Q1311.28 780.937 1316.67 790.213 L1310.19 790.213 Q1304.11 780.694 1301.07 771.498 Q1298.07 762.303 1298.07 753.229 Q1298.07 744.195 1301.07 735.04 Q1304.07 725.885 1310.19 716.325 L1316.67 716.325 Z" fill="#000000" fill-rule="nonzero" fill-opacity="1" /><path clip-path="url(#clip490)" d="M1368.84 751.892 L1368.84 779.276 L1361.39 779.276 L1361.39 752.135 Q1361.39 745.694 1358.88 742.494 Q1356.37 739.293 1351.34 739.293 Q1345.31 739.293 1341.82 743.142 Q1338.34 746.99 1338.34 753.634 L1338.34 779.276 L1330.85 779.276 L1330.85 716.244 L1338.34 716.244 L1338.34 740.954 Q1341.01 736.863 1344.62 734.837 Q1348.27 732.812 1353 732.812 Q1360.82 732.812 1364.83 737.673 Q1368.84 742.494 1368.84 751.892 Z" fill="#000000" fill-rule="nonzero" fill-opacity="1" /><path clip-path="url(#clip490)" d="M1382.54 716.325 L1389.02 716.325 Q1395.09 725.885 1398.09 735.04 Q1401.13 744.195 1401.13 753.229 Q1401.13 762.303 1398.09 771.498 Q1395.09 780.694 1389.02 790.213 L1382.54 790.213 Q1387.92 780.937 1390.56 771.782 Q1393.23 762.586 1393.23 753.229 Q1393.23 743.871 1390.56 734.756 Q1387.92 725.642 1382.54 716.325 Z" fill="#000000" fill-rule="nonzero" fill-opacity="1" /><polyline clip-path="url(#clip490)" style="stroke:#000000; stroke-linecap:round; stroke-linejoin:round; stroke-width:4; stroke-opacity:1; fill:none" points="309.018,592.94 309.018,47.2441 "/>
<polyline clip-path="url(#clip490)" style="stroke:#000000; stroke-linecap:round; stroke-linejoin:round; stroke-width:4; stroke-opacity:1; fill:none" points="309.018,577.501 327.916,577.501 "/>
<polyline clip-path="url(#clip490)" style="stroke:#000000; stroke-linecap:round; stroke-linejoin:round; stroke-width:4; stroke-opacity:1; fill:none" points="309.018,448.473 327.916,448.473 "/>
<polyline clip-path="url(#clip490)" style="stroke:#000000; stroke-linecap:round; stroke-linejoin:round; stroke-width:4; stroke-opacity:1; fill:none" points="309.018,319.446 327.916,319.446 "/>
<polyline clip-path="url(#clip490)" style="stroke:#000000; stroke-linecap:round; stroke-linejoin:round; stroke-width:4; stroke-opacity:1; fill:none" points="309.018,190.418 327.916,190.418 "/>
<polyline clip-path="url(#clip490)" style="stroke:#000000; stroke-linecap:round; stroke-linejoin:round; stroke-width:4; stroke-opacity:1; fill:none" points="309.018,61.3907 327.916,61.3907 "/>
<path clip-path="url(#clip490)" d="M187.255 556.199 Q181.838 556.199 179.095 561.546 Q176.387 566.859 176.387 577.553 Q176.387 588.213 179.095 593.56 Q181.838 598.872 187.255 598.872 Q192.706 598.872 195.414 593.56 Q198.157 588.213 198.157 577.553 Q198.157 566.859 195.414 561.546 Q192.706 556.199 187.255 556.199 M187.255 550.643 Q195.97 550.643 200.553 557.553 Q205.171 564.428 205.171 577.553 Q205.171 590.643 200.553 597.553 Q195.97 604.428 187.255 604.428 Q178.539 604.428 173.921 597.553 Q169.338 590.643 169.338 577.553 Q169.338 564.428 173.921 557.553 Q178.539 550.643 187.255 550.643 Z" fill="#000000" fill-rule="nonzero" fill-opacity="1" /><path clip-path="url(#clip490)" d="M217.497 594.601 L224.824 594.601 L224.824 603.421 L217.497 603.421 L217.497 594.601 Z" fill="#000000" fill-rule="nonzero" fill-opacity="1" /><path clip-path="url(#clip490)" d="M255.101 556.199 Q249.685 556.199 246.942 561.546 Q244.233 566.859 244.233 577.553 Q244.233 588.213 246.942 593.56 Q249.685 598.872 255.101 598.872 Q260.553 598.872 263.261 593.56 Q266.004 588.213 266.004 577.553 Q266.004 566.859 263.261 561.546 Q260.553 556.199 255.101 556.199 M255.101 550.643 Q263.817 550.643 268.4 557.553 Q273.018 564.428 273.018 577.553 Q273.018 590.643 268.4 597.553 Q263.817 604.428 255.101 604.428 Q246.386 604.428 241.768 597.553 Q237.185 590.643 237.185 577.553 Q237.185 564.428 241.768 557.553 Q246.386 550.643 255.101 550.643 Z" fill="#000000" fill-rule="nonzero" fill-opacity="1" /><path clip-path="url(#clip490)" d="M179.789 468.491 L204.268 468.491 L204.268 474.393 L171.352 474.393 L171.352 468.491 Q175.345 464.359 182.22 457.414 Q189.13 450.435 190.9 448.421 Q194.268 444.637 195.588 442.032 Q196.942 439.393 196.942 436.859 Q196.942 432.727 194.025 430.123 Q191.143 427.519 186.491 427.519 Q183.192 427.519 179.512 428.664 Q175.866 429.81 171.699 432.137 L171.699 425.053 Q175.935 423.352 179.616 422.484 Q183.296 421.616 186.352 421.616 Q194.407 421.616 199.199 425.644 Q203.991 429.671 203.991 436.407 Q203.991 439.602 202.775 442.484 Q201.595 445.331 198.435 449.22 Q197.567 450.227 192.914 455.053 Q188.261 459.845 179.789 468.491 Z" fill="#000000" fill-rule="nonzero" fill-opacity="1" /><path clip-path="url(#clip490)" d="M218.99 465.574 L226.317 465.574 L226.317 474.393 L218.99 474.393 L218.99 465.574 Z" fill="#000000" fill-rule="nonzero" fill-opacity="1" /><path clip-path="url(#clip490)" d="M241.664 422.553 L269.199 422.553 L269.199 428.456 L248.088 428.456 L248.088 441.164 Q249.615 440.643 251.143 440.4 Q252.671 440.123 254.199 440.123 Q262.879 440.123 267.949 444.88 Q273.018 449.636 273.018 457.761 Q273.018 466.129 267.81 470.782 Q262.601 475.4 253.122 475.4 Q249.858 475.4 246.456 474.845 Q243.088 474.289 239.477 473.178 L239.477 466.129 Q242.601 467.831 245.935 468.664 Q249.268 469.498 252.983 469.498 Q258.99 469.498 262.497 466.338 Q266.004 463.178 266.004 457.761 Q266.004 452.345 262.497 449.185 Q258.99 446.025 252.983 446.025 Q250.171 446.025 247.358 446.65 Q244.581 447.275 241.664 448.595 L241.664 422.553 Z" fill="#000000" fill-rule="nonzero" fill-opacity="1" /><path clip-path="url(#clip490)" d="M172.324 293.526 L199.859 293.526 L199.859 299.429 L178.748 299.429 L178.748 312.137 Q180.275 311.616 181.803 311.373 Q183.331 311.095 184.859 311.095 Q193.539 311.095 198.609 315.852 Q203.678 320.609 203.678 328.734 Q203.678 337.102 198.47 341.755 Q193.261 346.373 183.782 346.373 Q180.518 346.373 177.116 345.817 Q173.748 345.262 170.137 344.15 L170.137 337.102 Q173.262 338.803 176.595 339.637 Q179.928 340.47 183.643 340.47 Q189.65 340.47 193.157 337.31 Q196.664 334.151 196.664 328.734 Q196.664 323.317 193.157 320.158 Q189.65 316.998 183.643 316.998 Q180.831 316.998 178.018 317.623 Q175.241 318.248 172.324 319.567 L172.324 293.526 Z" fill="#000000" fill-rule="nonzero" fill-opacity="1" /><path clip-path="url(#clip490)" d="M217.497 336.546 L224.824 336.546 L224.824 345.366 L217.497 345.366 L217.497 336.546 Z" fill="#000000" fill-rule="nonzero" fill-opacity="1" /><path clip-path="url(#clip490)" d="M255.101 298.144 Q249.685 298.144 246.942 303.491 Q244.233 308.803 244.233 319.498 Q244.233 330.158 246.942 335.505 Q249.685 340.817 255.101 340.817 Q260.553 340.817 263.261 335.505 Q266.004 330.158 266.004 319.498 Q266.004 308.803 263.261 303.491 Q260.553 298.144 255.101 298.144 M255.101 292.588 Q263.817 292.588 268.4 299.498 Q273.018 306.373 273.018 319.498 Q273.018 332.588 268.4 339.498 Q263.817 346.373 255.101 346.373 Q246.386 346.373 241.768 339.498 Q237.185 332.588 237.185 319.498 Q237.185 306.373 241.768 299.498 Q246.386 292.588 255.101 292.588 Z" fill="#000000" fill-rule="nonzero" fill-opacity="1" /><path clip-path="url(#clip490)" d="M171.977 164.498 L205.31 164.498 L205.31 167.484 L186.491 216.338 L179.164 216.338 L196.873 170.401 L171.977 170.401 L171.977 164.498 Z" fill="#000000" fill-rule="nonzero" fill-opacity="1" /><path clip-path="url(#clip490)" d="M218.99 207.519 L226.317 207.519 L226.317 216.338 L218.99 216.338 L218.99 207.519 Z" fill="#000000" fill-rule="nonzero" fill-opacity="1" /><path clip-path="url(#clip490)" d="M241.664 164.498 L269.199 164.498 L269.199 170.401 L248.088 170.401 L248.088 183.109 Q249.615 182.588 251.143 182.345 Q252.671 182.068 254.199 182.068 Q262.879 182.068 267.949 186.824 Q273.018 191.581 273.018 199.706 Q273.018 208.074 267.81 212.727 Q262.601 217.345 253.122 217.345 Q249.858 217.345 246.456 216.79 Q243.088 216.234 239.477 215.123 L239.477 208.074 Q242.601 209.776 245.935 210.609 Q249.268 211.442 252.983 211.442 Q258.99 211.442 262.497 208.283 Q266.004 205.123 266.004 199.706 Q266.004 194.29 262.497 191.13 Q258.99 187.97 252.983 187.97 Q250.171 187.97 247.358 188.595 Q244.581 189.22 241.664 190.54 L241.664 164.498 Z" fill="#000000" fill-rule="nonzero" fill-opacity="1" /><path clip-path="url(#clip490)" d="M128.227 81.4079 L139.685 81.4079 L139.685 41.8595 L127.22 44.3595 L127.22 37.9707 L139.616 35.4707 L146.63 35.4707 L146.63 81.4079 L158.088 81.4079 L158.088 87.3107 L128.227 87.3107 L128.227 81.4079 Z" fill="#000000" fill-rule="nonzero" fill-opacity="1" /><path clip-path="url(#clip490)" d="M187.255 40.0887 Q181.838 40.0887 179.095 45.4359 Q176.387 50.7484 176.387 61.4428 Q176.387 72.1024 179.095 77.4496 Q181.838 82.7621 187.255 82.7621 Q192.706 82.7621 195.414 77.4496 Q198.157 72.1024 198.157 61.4428 Q198.157 50.7484 195.414 45.4359 Q192.706 40.0887 187.255 40.0887 M187.255 34.5332 Q195.97 34.5332 200.553 41.4429 Q205.171 48.3178 205.171 61.4428 Q205.171 74.533 200.553 81.4427 Q195.97 88.3176 187.255 88.3176 Q178.539 88.3176 173.921 81.4427 Q169.338 74.533 169.338 61.4428 Q169.338 48.3178 173.921 41.4429 Q178.539 34.5332 187.255 34.5332 Z" fill="#000000" fill-rule="nonzero" fill-opacity="1" /><path clip-path="url(#clip490)" d="M217.497 78.4913 L224.824 78.4913 L224.824 87.3107 L217.497 87.3107 L217.497 78.4913 Z" fill="#000000" fill-rule="nonzero" fill-opacity="1" /><path clip-path="url(#clip490)" d="M255.101 40.0887 Q249.685 40.0887 246.942 45.4359 Q244.233 50.7484 244.233 61.4428 Q244.233 72.1024 246.942 77.4496 Q249.685 82.7621 255.101 82.7621 Q260.553 82.7621 263.261 77.4496 Q266.004 72.1024 266.004 61.4428 Q266.004 50.7484 263.261 45.4359 Q260.553 40.0887 255.101 40.0887 M255.101 34.5332 Q263.817 34.5332 268.4 41.4429 Q273.018 48.3178 273.018 61.4428 Q273.018 74.533 268.4 81.4427 Q263.817 88.3176 255.101 88.3176 Q246.386 88.3176 241.768 81.4427 Q237.185 74.533 237.185 61.4428 Q237.185 48.3178 241.768 41.4429 Q246.386 34.5332 255.101 34.5332 Z" fill="#000000" fill-rule="nonzero" fill-opacity="1" /><path clip-path="url(#clip490)" d="M18.1459 452.374 Q18.1459 461.286 24.7894 466.552 Q31.4329 471.778 42.8969 471.778 Q54.3205 471.778 60.964 466.552 Q67.6074 461.286 67.6074 452.374 Q67.6074 443.462 60.964 438.277 Q54.3205 433.051 42.8969 433.051 Q31.4329 433.051 24.7894 438.277 Q18.1459 443.462 18.1459 452.374 M71.9824 440.91 L83.7705 430.135 L83.7705 440.019 L74.0889 448.971 Q74.1699 450.308 74.2104 451.037 Q74.2509 451.726 74.2509 452.374 Q74.2509 465.135 65.744 472.791 Q57.1966 480.407 42.8969 480.407 Q28.5567 480.407 20.0498 472.791 Q11.5024 465.135 11.5024 452.374 Q11.5024 439.654 20.0498 432.039 Q28.5567 424.423 42.8969 424.423 Q53.4293 424.423 60.9234 428.676 Q68.4176 432.889 71.9824 440.91 Z" fill="#000000" fill-rule="nonzero" fill-opacity="1" /><path clip-path="url(#clip490)" d="M27.706 411.946 L27.706 404.493 L73.0762 404.493 L73.0762 411.946 L27.706 411.946 M10.0441 411.946 L10.0441 404.493 L19.4827 404.493 L19.4827 411.946 L10.0441 411.946 Z" fill="#000000" fill-rule="nonzero" fill-opacity="1" /><path clip-path="url(#clip490)" d="M45.692 351.183 L73.0762 351.183 L73.0762 358.636 L45.9351 358.636 Q39.4942 358.636 36.2939 361.148 Q33.0937 363.659 33.0937 368.683 Q33.0937 374.718 36.9421 378.202 Q40.7905 381.686 47.4339 381.686 L73.0762 381.686 L73.0762 389.18 L27.706 389.18 L27.706 381.686 L34.7546 381.686 Q30.6632 379.012 28.6377 375.407 Q26.6123 371.761 26.6123 367.022 Q26.6123 359.203 31.4734 355.193 Q36.2939 351.183 45.692 351.183 Z" fill="#000000" fill-rule="nonzero" fill-opacity="1" /><path clip-path="url(#clip490)" d="M10.1251 318.411 Q19.4422 323.839 28.5567 326.472 Q37.6713 329.105 47.0288 329.105 Q56.3864 329.105 65.582 326.472 Q74.737 323.799 84.0136 318.411 L84.0136 324.892 Q74.494 330.969 65.2984 334.007 Q56.1029 337.004 47.0288 337.004 Q37.9953 337.004 28.8403 334.007 Q19.6852 331.009 10.1251 324.892 L10.1251 318.411 Z" fill="#000000" fill-rule="nonzero" fill-opacity="1" /><path clip-path="url(#clip490)" d="M12.5962 303.625 L12.5962 295.442 L66.1896 295.442 L66.1896 265.992 L73.0762 265.992 L73.0762 303.625 L12.5962 303.625 Z" fill="#000000" fill-rule="nonzero" fill-opacity="1" /><path clip-path="url(#clip490)" d="M12.5962 244.482 L12.5962 237.595 L80.7729 258.66 L80.7729 265.547 L12.5962 244.482 Z" fill="#000000" fill-rule="nonzero" fill-opacity="1" /><path clip-path="url(#clip490)" d="M45.692 192.063 L73.0762 192.063 L73.0762 199.517 L45.9351 199.517 Q39.4942 199.517 36.2939 202.028 Q33.0937 204.54 33.0937 209.563 Q33.0937 215.599 36.9421 219.083 Q40.7905 222.566 47.4339 222.566 L73.0762 222.566 L73.0762 230.061 L10.0441 230.061 L10.0441 222.566 L34.7546 222.566 Q30.6632 219.893 28.6377 216.288 Q26.6123 212.642 26.6123 207.902 Q26.6123 200.084 31.4734 196.074 Q36.2939 192.063 45.692 192.063 Z" fill="#000000" fill-rule="nonzero" fill-opacity="1" /><path clip-path="url(#clip490)" d="M10.1251 178.371 L10.1251 171.89 Q19.6852 165.813 28.8403 162.816 Q37.9953 159.777 47.0288 159.777 Q56.1029 159.777 65.2984 162.816 Q74.494 165.813 84.0136 171.89 L84.0136 178.371 Q74.737 172.983 65.582 170.35 Q56.3864 167.677 47.0288 167.677 Q37.6713 167.677 28.5567 170.35 Q19.4422 172.983 10.1251 178.371 Z" fill="#000000" fill-rule="nonzero" fill-opacity="1" /><polyline clip-path="url(#clip492)" style="stroke:#000000; stroke-linecap:round; stroke-linejoin:round; stroke-width:12; stroke-opacity:1; fill:none" points="366.86,442.44 495.397,442.44 495.397,577.453 623.934,577.453 623.934,577.496 752.471,577.496 752.471,576.802 881.008,576.802 881.008,570.774 1009.54,570.774 1009.54,541.688 1138.08,541.688 1138.08,535.376 1266.62,535.376 1266.62,516.413 1395.16,516.413 1395.16,484.703 1523.69,484.703 1523.69,431.999 1652.23,431.999 1652.23,393.126 1780.77,393.126 1780.77,169.835 1909.3,169.835 1909.3,62.6883 2037.84,62.6883 2037.84,577.433 2166.38,577.433 2166.38,577.472 2294.91,577.472 "/>
<path clip-path="url(#clip490)" d="M309.018 1392.94 L2352.76 1392.94 L2352.76 847.244 L309.018 847.244  Z" fill="#ffffff" fill-rule="evenodd" fill-opacity="1"/>
<defs>
  <clipPath id="clip493">
    <rect x="309" y="847" width="2045" height="547"/>
  </clipPath>
</defs>
<polyline clip-path="url(#clip490)" style="stroke:#000000; stroke-linecap:round; stroke-linejoin:round; stroke-width:4; stroke-opacity:1; fill:none" points="309.018,1392.94 2352.76,1392.94 "/>
<polyline clip-path="url(#clip490)" style="stroke:#000000; stroke-linecap:round; stroke-linejoin:round; stroke-width:4; stroke-opacity:1; fill:none" points="309.018,1392.94 309.018,1374.04 "/>
<polyline clip-path="url(#clip490)" style="stroke:#000000; stroke-linecap:round; stroke-linejoin:round; stroke-width:4; stroke-opacity:1; fill:none" points="990.264,1392.94 990.264,1374.04 "/>
<polyline clip-path="url(#clip490)" style="stroke:#000000; stroke-linecap:round; stroke-linejoin:round; stroke-width:4; stroke-opacity:1; fill:none" points="1671.51,1392.94 1671.51,1374.04 "/>
<polyline clip-path="url(#clip490)" style="stroke:#000000; stroke-linecap:round; stroke-linejoin:round; stroke-width:4; stroke-opacity:1; fill:none" points="2352.76,1392.94 2352.76,1374.04 "/>
<path clip-path="url(#clip490)" d="M309.018 1429.72 Q303.601 1429.72 300.858 1435.07 Q298.15 1440.38 298.15 1451.07 Q298.15 1461.73 300.858 1467.08 Q303.601 1472.39 309.018 1472.39 Q314.469 1472.39 317.178 1467.08 Q319.921 1461.73 319.921 1451.07 Q319.921 1440.38 317.178 1435.07 Q314.469 1429.72 309.018 1429.72 M309.018 1424.16 Q317.733 1424.16 322.317 1431.07 Q326.935 1437.95 326.935 1451.07 Q326.935 1464.16 322.317 1471.07 Q317.733 1477.95 309.018 1477.95 Q300.303 1477.95 295.685 1471.07 Q291.101 1464.16 291.101 1451.07 Q291.101 1437.95 295.685 1431.07 Q300.303 1424.16 309.018 1424.16 Z" fill="#000000" fill-rule="nonzero" fill-opacity="1" /><path clip-path="url(#clip490)" d="M975.681 1425.1 L1003.22 1425.1 L1003.22 1431 L982.104 1431 L982.104 1443.71 Q983.632 1443.19 985.16 1442.95 Q986.688 1442.67 988.215 1442.67 Q996.896 1442.67 1001.97 1447.43 Q1007.03 1452.18 1007.03 1460.31 Q1007.03 1468.68 1001.83 1473.33 Q996.618 1477.95 987.139 1477.95 Q983.875 1477.95 980.472 1477.39 Q977.104 1476.84 973.493 1475.72 L973.493 1468.68 Q976.618 1470.38 979.952 1471.21 Q983.285 1472.04 987 1472.04 Q993.007 1472.04 996.514 1468.88 Q1000.02 1465.72 1000.02 1460.31 Q1000.02 1454.89 996.514 1451.73 Q993.007 1448.57 987 1448.57 Q984.188 1448.57 981.375 1449.2 Q978.597 1449.82 975.681 1451.14 L975.681 1425.1 Z" fill="#000000" fill-rule="nonzero" fill-opacity="1" /><path clip-path="url(#clip490)" d="M1633.54 1471.04 L1645 1471.04 L1645 1431.49 L1632.53 1433.99 L1632.53 1427.6 L1644.93 1425.1 L1651.94 1425.1 L1651.94 1471.04 L1663.4 1471.04 L1663.4 1476.94 L1633.54 1476.94 L1633.54 1471.04 Z" fill="#000000" fill-rule="nonzero" fill-opacity="1" /><path clip-path="url(#clip490)" d="M1692.57 1429.72 Q1687.15 1429.72 1684.41 1435.07 Q1681.7 1440.38 1681.7 1451.07 Q1681.7 1461.73 1684.41 1467.08 Q1687.15 1472.39 1692.57 1472.39 Q1698.02 1472.39 1700.73 1467.08 Q1703.47 1461.73 1703.47 1451.07 Q1703.47 1440.38 1700.73 1435.07 Q1698.02 1429.72 1692.57 1429.72 M1692.57 1424.16 Q1701.28 1424.16 1705.87 1431.07 Q1710.49 1437.95 1710.49 1451.07 Q1710.49 1464.16 1705.87 1471.07 Q1701.28 1477.95 1692.57 1477.95 Q1683.85 1477.95 1679.24 1471.07 Q1674.65 1464.16 1674.65 1451.07 Q1674.65 1437.95 1679.24 1431.07 Q1683.85 1424.16 1692.57 1424.16 Z" fill="#000000" fill-rule="nonzero" fill-opacity="1" /><path clip-path="url(#clip490)" d="M2315.53 1471.04 L2326.99 1471.04 L2326.99 1431.49 L2314.53 1433.99 L2314.53 1427.6 L2326.92 1425.1 L2333.94 1425.1 L2333.94 1471.04 L2345.39 1471.04 L2345.39 1476.94 L2315.53 1476.94 L2315.53 1471.04 Z" fill="#000000" fill-rule="nonzero" fill-opacity="1" /><path clip-path="url(#clip490)" d="M2359.63 1425.1 L2387.17 1425.1 L2387.17 1431 L2366.05 1431 L2366.05 1443.71 Q2367.58 1443.19 2369.11 1442.95 Q2370.64 1442.67 2372.17 1442.67 Q2380.85 1442.67 2385.92 1447.43 Q2390.98 1452.18 2390.98 1460.31 Q2390.98 1468.68 2385.78 1473.33 Q2380.57 1477.95 2371.09 1477.95 Q2367.83 1477.95 2364.42 1477.39 Q2361.05 1476.84 2357.44 1475.72 L2357.44 1468.68 Q2360.57 1470.38 2363.9 1471.21 Q2367.23 1472.04 2370.95 1472.04 Q2376.96 1472.04 2380.46 1468.88 Q2383.97 1465.72 2383.97 1460.31 Q2383.97 1454.89 2380.46 1451.73 Q2376.96 1448.57 2370.95 1448.57 Q2368.14 1448.57 2365.33 1449.2 Q2362.55 1449.82 2359.63 1451.14 L2359.63 1425.1 Z" fill="#000000" fill-rule="nonzero" fill-opacity="1" /><path clip-path="url(#clip490)" d="M1273.61 1521.02 L1273.61 1533.91 L1288.96 1533.91 L1288.96 1539.7 L1273.61 1539.7 L1273.61 1564.33 Q1273.61 1569.88 1275.11 1571.46 Q1276.65 1573.04 1281.3 1573.04 L1288.96 1573.04 L1288.96 1579.28 L1281.3 1579.28 Q1272.68 1579.28 1269.39 1576.08 Q1266.11 1572.83 1266.11 1564.33 L1266.11 1539.7 L1260.64 1539.7 L1260.64 1533.91 L1266.11 1533.91 L1266.11 1521.02 L1273.61 1521.02 Z" fill="#000000" fill-rule="nonzero" fill-opacity="1" /><path clip-path="url(#clip490)" d="M1316.67 1516.32 Q1311.24 1525.64 1308.61 1534.76 Q1305.97 1543.87 1305.97 1553.23 Q1305.97 1562.59 1308.61 1571.78 Q1311.28 1580.94 1316.67 1590.21 L1310.19 1590.21 Q1304.11 1580.69 1301.07 1571.5 Q1298.07 1562.3 1298.07 1553.23 Q1298.07 1544.2 1301.07 1535.04 Q1304.07 1525.88 1310.19 1516.32 L1316.67 1516.32 Z" fill="#000000" fill-rule="nonzero" fill-opacity="1" /><path clip-path="url(#clip490)" d="M1368.84 1551.89 L1368.84 1579.28 L1361.39 1579.28 L1361.39 1552.13 Q1361.39 1545.69 1358.88 1542.49 Q1356.37 1539.29 1351.34 1539.29 Q1345.31 1539.29 1341.82 1543.14 Q1338.34 1546.99 1338.34 1553.63 L1338.34 1579.28 L1330.85 1579.28 L1330.85 1516.24 L1338.34 1516.24 L1338.34 1540.95 Q1341.01 1536.86 1344.62 1534.84 Q1348.27 1532.81 1353 1532.81 Q1360.82 1532.81 1364.83 1537.67 Q1368.84 1542.49 1368.84 1551.89 Z" fill="#000000" fill-rule="nonzero" fill-opacity="1" /><path clip-path="url(#clip490)" d="M1382.54 1516.32 L1389.02 1516.32 Q1395.09 1525.88 1398.09 1535.04 Q1401.13 1544.2 1401.13 1553.23 Q1401.13 1562.3 1398.09 1571.5 Q1395.09 1580.69 1389.02 1590.21 L1382.54 1590.21 Q1387.92 1580.94 1390.56 1571.78 Q1393.23 1562.59 1393.23 1553.23 Q1393.23 1543.87 1390.56 1534.76 Q1387.92 1525.64 1382.54 1516.32 Z" fill="#000000" fill-rule="nonzero" fill-opacity="1" /><polyline clip-path="url(#clip490)" style="stroke:#000000; stroke-linecap:round; stroke-linejoin:round; stroke-width:4; stroke-opacity:1; fill:none" points="309.018,1392.94 309.018,847.244 "/>
<polyline clip-path="url(#clip490)" style="stroke:#000000; stroke-linecap:round; stroke-linejoin:round; stroke-width:4; stroke-opacity:1; fill:none" points="309.018,1372.26 327.916,1372.26 "/>
<polyline clip-path="url(#clip490)" style="stroke:#000000; stroke-linecap:round; stroke-linejoin:round; stroke-width:4; stroke-opacity:1; fill:none" points="309.018,1240.07 327.916,1240.07 "/>
<polyline clip-path="url(#clip490)" style="stroke:#000000; stroke-linecap:round; stroke-linejoin:round; stroke-width:4; stroke-opacity:1; fill:none" points="309.018,1107.87 327.916,1107.87 "/>
<polyline clip-path="url(#clip490)" style="stroke:#000000; stroke-linecap:round; stroke-linejoin:round; stroke-width:4; stroke-opacity:1; fill:none" points="309.018,975.672 327.916,975.672 "/>
<path clip-path="url(#clip490)" d="M255.101 1350.96 Q249.685 1350.96 246.942 1356.31 Q244.233 1361.62 244.233 1372.31 Q244.233 1382.97 246.942 1388.32 Q249.685 1393.63 255.101 1393.63 Q260.553 1393.63 263.261 1388.32 Q266.004 1382.97 266.004 1372.31 Q266.004 1361.62 263.261 1356.31 Q260.553 1350.96 255.101 1350.96 M255.101 1345.4 Q263.817 1345.4 268.4 1352.31 Q273.018 1359.19 273.018 1372.31 Q273.018 1385.4 268.4 1392.31 Q263.817 1399.19 255.101 1399.19 Q246.386 1399.19 241.768 1392.31 Q237.185 1385.4 237.185 1372.31 Q237.185 1359.19 241.768 1352.31 Q246.386 1345.4 255.101 1345.4 Z" fill="#000000" fill-rule="nonzero" fill-opacity="1" /><path clip-path="url(#clip490)" d="M196.074 1260.08 L207.532 1260.08 L207.532 1220.53 L195.067 1223.03 L195.067 1216.65 L207.463 1214.15 L214.477 1214.15 L214.477 1260.08 L225.935 1260.08 L225.935 1265.99 L196.074 1265.99 L196.074 1260.08 Z" fill="#000000" fill-rule="nonzero" fill-opacity="1" /><path clip-path="url(#clip490)" d="M255.101 1218.76 Q249.685 1218.76 246.942 1224.11 Q244.233 1229.42 244.233 1240.12 Q244.233 1250.78 246.942 1256.12 Q249.685 1261.44 255.101 1261.44 Q260.553 1261.44 263.261 1256.12 Q266.004 1250.78 266.004 1240.12 Q266.004 1229.42 263.261 1224.11 Q260.553 1218.76 255.101 1218.76 M255.101 1213.21 Q263.817 1213.21 268.4 1220.12 Q273.018 1226.99 273.018 1240.12 Q273.018 1253.21 268.4 1260.12 Q263.817 1266.99 255.101 1266.99 Q246.386 1266.99 241.768 1260.12 Q237.185 1253.21 237.185 1240.12 Q237.185 1226.99 241.768 1220.12 Q246.386 1213.21 255.101 1213.21 Z" fill="#000000" fill-rule="nonzero" fill-opacity="1" /><path clip-path="url(#clip490)" d="M200.9 1127.89 L225.379 1127.89 L225.379 1133.79 L192.463 1133.79 L192.463 1127.89 Q196.456 1123.75 203.331 1116.81 Q210.241 1109.83 212.011 1107.82 Q215.379 1104.03 216.699 1101.43 Q218.053 1098.79 218.053 1096.25 Q218.053 1092.12 215.136 1089.52 Q212.254 1086.91 207.602 1086.91 Q204.303 1086.91 200.623 1088.06 Q196.977 1089.21 192.81 1091.53 L192.81 1084.45 Q197.046 1082.75 200.727 1081.88 Q204.407 1081.01 207.463 1081.01 Q215.518 1081.01 220.31 1085.04 Q225.102 1089.07 225.102 1095.8 Q225.102 1099 223.886 1101.88 Q222.706 1104.73 219.546 1108.61 Q218.678 1109.62 214.025 1114.45 Q209.372 1119.24 200.9 1127.89 Z" fill="#000000" fill-rule="nonzero" fill-opacity="1" /><path clip-path="url(#clip490)" d="M255.101 1086.57 Q249.685 1086.57 246.942 1091.91 Q244.233 1097.23 244.233 1107.92 Q244.233 1118.58 246.942 1123.93 Q249.685 1129.24 255.101 1129.24 Q260.553 1129.24 263.261 1123.93 Q266.004 1118.58 266.004 1107.92 Q266.004 1097.23 263.261 1091.91 Q260.553 1086.57 255.101 1086.57 M255.101 1081.01 Q263.817 1081.01 268.4 1087.92 Q273.018 1094.8 273.018 1107.92 Q273.018 1121.01 268.4 1127.92 Q263.817 1134.8 255.101 1134.8 Q246.386 1134.8 241.768 1127.92 Q237.185 1121.01 237.185 1107.92 Q237.185 1094.8 241.768 1087.92 Q246.386 1081.01 255.101 1081.01 Z" fill="#000000" fill-rule="nonzero" fill-opacity="1" /><path clip-path="url(#clip490)" d="M216.109 973.641 Q221.143 974.717 223.956 978.12 Q226.803 981.522 226.803 986.522 Q226.803 994.196 221.525 998.397 Q216.247 1002.6 206.525 1002.6 Q203.261 1002.6 199.789 1001.94 Q196.352 1001.31 192.671 1000.03 L192.671 993.258 Q195.588 994.96 199.06 995.828 Q202.532 996.696 206.317 996.696 Q212.914 996.696 216.352 994.092 Q219.824 991.488 219.824 986.522 Q219.824 981.939 216.595 979.37 Q213.4 976.766 207.671 976.766 L201.629 976.766 L201.629 971.002 L207.949 971.002 Q213.122 971.002 215.866 968.953 Q218.609 966.87 218.609 962.981 Q218.609 958.988 215.761 956.87 Q212.949 954.717 207.671 954.717 Q204.789 954.717 201.491 955.342 Q198.192 955.967 194.234 957.286 L194.234 951.036 Q198.227 949.925 201.699 949.37 Q205.206 948.814 208.296 948.814 Q216.282 948.814 220.935 952.46 Q225.588 956.071 225.588 962.252 Q225.588 966.557 223.122 969.543 Q220.657 972.495 216.109 973.641 Z" fill="#000000" fill-rule="nonzero" fill-opacity="1" /><path clip-path="url(#clip490)" d="M255.101 954.37 Q249.685 954.37 246.942 959.717 Q244.233 965.029 244.233 975.724 Q244.233 986.384 246.942 991.731 Q249.685 997.043 255.101 997.043 Q260.553 997.043 263.261 991.731 Q266.004 986.384 266.004 975.724 Q266.004 965.029 263.261 959.717 Q260.553 954.37 255.101 954.37 M255.101 948.814 Q263.817 948.814 268.4 955.724 Q273.018 962.599 273.018 975.724 Q273.018 988.814 268.4 995.724 Q263.817 1002.6 255.101 1002.6 Q246.386 1002.6 241.768 995.724 Q237.185 988.814 237.185 975.724 Q237.185 962.599 241.768 955.724 Q246.386 948.814 255.101 948.814 Z" fill="#000000" fill-rule="nonzero" fill-opacity="1" /><path clip-path="url(#clip490)" d="M82.4974 1205.65 L91.1258 1205.65 Q87.2775 1209.78 85.3735 1214.48 Q83.4696 1219.14 83.4696 1224.4 Q83.4696 1234.77 89.8295 1240.28 Q96.149 1245.79 108.14 1245.79 Q120.09 1245.79 126.45 1240.28 Q132.769 1234.77 132.769 1224.4 Q132.769 1219.14 130.865 1214.48 Q128.961 1209.78 125.113 1205.65 L133.66 1205.65 Q136.577 1209.94 138.035 1214.76 Q139.494 1219.54 139.494 1224.89 Q139.494 1238.62 131.108 1246.52 Q122.682 1254.42 108.14 1254.42 Q93.5564 1254.42 85.171 1246.52 Q76.7451 1238.62 76.7451 1224.89 Q76.7451 1219.46 78.2034 1214.68 Q79.6213 1209.86 82.4974 1205.65 Z" fill="#000000" fill-rule="nonzero" fill-opacity="1" /><path clip-path="url(#clip490)" d="M113.001 1176.12 L116.93 1176.12 Q116.039 1178.1 115.593 1180.25 Q115.148 1182.35 115.148 1184.66 Q115.148 1188.19 116.079 1189.93 Q117.052 1191.67 118.956 1191.67 Q120.414 1191.67 121.224 1190.42 Q122.075 1189.16 122.804 1185.39 L123.128 1183.77 Q124.1 1178.71 125.802 1176.68 Q127.543 1174.58 130.663 1174.58 Q134.187 1174.58 136.253 1177.74 Q138.319 1180.86 138.319 1186.36 Q138.319 1188.67 137.914 1191.19 Q137.509 1193.66 136.739 1196.41 L132.405 1196.41 Q133.62 1193.82 134.227 1191.27 Q134.835 1188.75 134.835 1186.28 Q134.835 1182.96 133.822 1181.18 Q132.81 1179.4 130.987 1179.4 Q129.285 1179.4 128.354 1180.69 Q127.543 1181.83 126.612 1186.32 L126.288 1187.94 Q125.437 1192.32 123.776 1194.26 Q122.075 1196.21 119.118 1196.21 Q115.553 1196.21 113.608 1193.33 Q111.623 1190.5 111.623 1185.23 Q111.623 1182.64 111.988 1180.33 Q112.312 1178.02 113.001 1176.12 Z" fill="#000000" fill-rule="nonzero" fill-opacity="1" /><path clip-path="url(#clip490)" d="M75.3678 1144.48 Q84.6849 1149.91 93.7994 1152.54 Q102.914 1155.17 112.272 1155.17 Q121.629 1155.17 130.825 1152.54 Q139.98 1149.87 149.256 1144.48 L149.256 1150.96 Q139.737 1157.04 130.541 1160.07 Q121.346 1163.07 112.272 1163.07 Q103.238 1163.07 94.083 1160.07 Q84.9279 1157.08 75.3678 1150.96 L75.3678 1144.48 Z" fill="#000000" fill-rule="nonzero" fill-opacity="1" /><path clip-path="url(#clip490)" d="M115.107 1100.16 Q107.005 1100.16 102.549 1103.52 Q98.0934 1106.85 98.0934 1112.88 Q98.0934 1118.88 102.549 1122.24 Q107.005 1125.56 115.107 1125.56 Q123.168 1125.56 127.624 1122.24 Q132.08 1118.88 132.08 1112.88 Q132.08 1106.85 127.624 1103.52 Q123.168 1100.16 115.107 1100.16 M132.688 1092.71 Q144.274 1092.71 149.904 1097.85 Q155.576 1103 155.576 1113.61 Q155.576 1117.54 154.968 1121.02 Q154.401 1124.51 153.186 1127.79 L145.935 1127.79 Q147.717 1124.51 148.568 1121.31 Q149.418 1118.11 149.418 1114.79 Q149.418 1107.45 145.57 1103.81 Q141.762 1100.16 134.025 1100.16 L130.339 1100.16 Q134.349 1102.47 136.334 1106.08 Q138.319 1109.68 138.319 1114.7 Q138.319 1123.05 131.959 1128.15 Q125.599 1133.26 115.107 1133.26 Q104.575 1133.26 98.2149 1128.15 Q91.855 1123.05 91.855 1114.7 Q91.855 1109.68 93.8399 1106.08 Q95.8249 1102.47 99.8353 1100.16 L92.9487 1100.16 L92.9487 1092.71 L132.688 1092.71 Z" fill="#000000" fill-rule="nonzero" fill-opacity="1" /><path clip-path="url(#clip490)" d="M77.8389 1064.11 L77.8389 1057.22 L146.016 1078.29 L146.016 1085.17 L77.8389 1064.11 Z" fill="#000000" fill-rule="nonzero" fill-opacity="1" /><path clip-path="url(#clip490)" d="M77.8389 1049.08 L77.8389 1040.9 L131.432 1040.9 L131.432 1011.45 L138.319 1011.45 L138.319 1049.08 L77.8389 1049.08 Z" fill="#000000" fill-rule="nonzero" fill-opacity="1" /><path clip-path="url(#clip490)" d="M75.3678 1004.36 L75.3678 997.876 Q84.9279 991.8 94.083 988.802 Q103.238 985.764 112.272 985.764 Q121.346 985.764 130.541 988.802 Q139.737 991.8 149.256 997.876 L149.256 1004.36 Q139.98 998.97 130.825 996.337 Q121.629 993.663 112.272 993.663 Q102.914 993.663 93.7994 996.337 Q84.6849 998.97 75.3678 1004.36 Z" fill="#000000" fill-rule="nonzero" fill-opacity="1" /><polyline clip-path="url(#clip493)" style="stroke:#3da44d; stroke-linecap:round; stroke-linejoin:round; stroke-width:12; stroke-opacity:1; fill:none" stroke-dasharray="48, 30" points="309.018,1359.04 445.267,1185.47 581.516,1188.71 717.766,1192.71 854.015,1196.9 990.264,1196.26 1126.51,1170.72 1262.76,1144.96 1399.01,1112.03 1535.26,1070.28 1671.51,1019.96 1807.76,975.562 1944.01,910.369 2080.26,865.98 2216.51,874.705 2352.76,885.336 "/>
<polyline clip-path="url(#clip493)" style="stroke:#c271d2; stroke-linecap:round; stroke-linejoin:round; stroke-width:12; stroke-opacity:1; fill:none" stroke-dasharray="48, 30" points="309.018,1359.04 445.267,1183.77 581.516,1185.62 717.766,1187.74 854.015,1189.47 990.264,1185.79 1126.51,1157.44 1262.76,1129.02 1399.01,1094.08 1535.26,1051.61 1671.51,1002.46 1807.76,960.637 1944.01,901.063 2080.26,862.688 2216.51,878.266 2352.76,899.493 "/>
<polyline clip-path="url(#clip493)" style="stroke:#ac8d18; stroke-linecap:round; stroke-linejoin:round; stroke-width:12; stroke-opacity:1; fill:none" stroke-dasharray="48, 30" points="309.018,1359.04 445.267,1183.8 581.516,1185.7 717.766,1187.89 854.015,1189.7 990.264,1186.11 1126.51,1157.87 1262.76,1129.57 1399.01,1094.78 1535.26,1052.49 1671.51,1003.52 1807.76,961.901 1944.01,902.399 2080.26,864.136 2216.51,880.369 2352.76,902.502 "/>
<polyline clip-path="url(#clip493)" style="stroke:#00a9ad; stroke-linecap:round; stroke-linejoin:round; stroke-width:12; stroke-opacity:1; fill:none" stroke-dasharray="48, 30" points="309.018,1359.04 445.267,1184.19 581.516,1186.48 717.766,1189.18 854.015,1191.63 990.264,1188.81 1126.51,1161.29 1262.76,1133.8 1399.01,1099.83 1535.26,1058.3 1671.51,1009.95 1807.76,969.012 1944.01,909.387 2080.26,871.291 2216.51,890.223 2352.76,915.796 "/>
<polyline clip-path="url(#clip493)" style="stroke:#ed5d92; stroke-linecap:round; stroke-linejoin:round; stroke-width:12; stroke-opacity:1; fill:none" stroke-dasharray="48, 30" points="309.018,1359.04 445.267,1187.11 581.516,1194.02 717.766,1203.8 854.015,1216.76 990.264,1228.76 1126.51,1218.95 1262.76,1214.4 1399.01,1207.82 1535.26,1196.4 1671.51,1177.47 1807.76,1169.19 1944.01,1118.23 2080.26,1094.3 2216.51,1208.65 2352.76,1341.62 "/>
<polyline clip-path="url(#clip493)" style="stroke:#c68125; stroke-linecap:round; stroke-linejoin:round; stroke-width:12; stroke-opacity:1; fill:none" stroke-dasharray="48, 30" points="309.018,1359.04 445.267,1186.2 581.516,1191.87 717.766,1199.55 854.015,1209.12 990.264,1215.92 1126.51,1199.5 1262.76,1186.15 1399.01,1168.81 1535.26,1145.36 1671.51,1114.49 1807.76,1092.96 1944.01,1037.89 2080.26,1007.78 2216.51,1084.33 2352.76,1185.08 "/>
<polyline clip-path="url(#clip493)" style="stroke:#00a98d; stroke-linecap:round; stroke-linejoin:round; stroke-width:12; stroke-opacity:1; fill:none" stroke-dasharray="48, 30" points="309.018,1359.04 445.267,1186.79 581.516,1193.34 717.766,1202.5 854.015,1214.45 990.264,1224.84 1126.51,1212.97 1262.76,1205.63 1399.01,1195.61 1535.26,1180.33 1671.51,1157.54 1807.76,1145 1944.01,1092.68 2080.26,1066.73 2216.51,1169.02 2352.76,1297.03 "/>
<polyline clip-path="url(#clip493)" style="stroke:#8e971d; stroke-linecap:round; stroke-linejoin:round; stroke-width:12; stroke-opacity:1; fill:none" stroke-dasharray="48, 30" points="309.018,1359.04 445.267,1187.9 581.516,1195.85 717.766,1207.5 854.015,1223.75 990.264,1241.28 1126.51,1239.23 1262.76,1245.77 1399.01,1253.98 1535.26,1260.59 1671.51,1261.14 1807.76,1275.78 1944.01,1235.3 2080.26,1224.62 2216.51,1358.47 2352.76,1377.5 "/>
<polyline clip-path="url(#clip493)" style="stroke:#00a8cb; stroke-linecap:round; stroke-linejoin:round; stroke-width:12; stroke-opacity:1; fill:none" stroke-dasharray="48, 30" points="309.018,1359.04 445.267,1187.85 581.516,1195.78 717.766,1207.39 854.015,1223.6 990.264,1241.05 1126.51,1238.93 1262.76,1245.35 1399.01,1253.42 1535.26,1259.86 1671.51,1260.23 1807.76,1274.64 1944.01,1234.08 2080.26,1223.31 2216.51,1357.09 2352.76,1376.67 "/>
<polyline clip-path="url(#clip493)" style="stroke:#9b7fe8; stroke-linecap:round; stroke-linejoin:round; stroke-width:12; stroke-opacity:1; fill:none" stroke-dasharray="48, 30" points="309.018,1359.04 445.267,1187.86 581.516,1195.79 717.766,1207.41 854.015,1223.62 990.264,1241.09 1126.51,1238.98 1262.76,1245.42 1399.01,1253.51 1535.26,1259.99 1671.51,1260.39 1807.76,1274.84 1944.01,1234.3 2080.26,1223.54 2216.51,1357.25 2352.76,1376.56 "/>
</svg>
