<?xml version="1.0" encoding="utf-8"?>
<svg xmlns="http://www.w3.org/2000/svg" xmlns:xlink="http://www.w3.org/1999/xlink" width="600" height="400" viewBox="0 0 2400 1600">
<defs>
  <clipPath id="clip370">
    <rect x="0" y="0" width="2400" height="1600"/>
  </clipPath>
</defs>
<path clip-path="url(#clip370)" d="M0 1600 L2400 1600 L2400 0 L0 0  Z" fill="#ffffff" fill-rule="evenodd" fill-opacity="1"/>
<defs>
  <clipPath id="clip371">
    <rect x="480" y="0" width="1681" height="1600"/>
  </clipPath>
</defs>
<path clip-path="url(#clip370)" d="M309.018 592.94 L2352.76 592.94 L2352.76 47.2441 L309.018 47.2441  Z" fill="#ffffff" fill-rule="evenodd" fill-opacity="1"/>
<defs>
  <clipPath id="clip372">
    <rect x="309" y="47" width="2045" height="547"/>
  </clipPath>
</defs>
<polyline clip-path="url(#clip370)" style="stroke:#000000; stroke-linecap:round; stroke-linejoin:round; stroke-width:4; stroke-opacity:1; fill:none" points="309.018,592.94 2352.76,592.94 "/>
<polyline clip-path="url(#clip370)" style="stroke:#000000; stroke-linecap:round; stroke-linejoin:round; stroke-width:4; stroke-opacity:1; fill:none" points="366.86,592.94 366.86,574.042 "/>
<polyline clip-path="url(#clip370)" style="stroke:#000000; stroke-linecap:round; stroke-linejoin:round; stroke-width:4; stroke-opacity:1; fill:none" points="1009.54,592.94 1009.54,574.042 "/>
<polyline clip-path="url(#clip370)" style="stroke:#000000; stroke-linecap:round; stroke-linejoin:round; stroke-width:4; stroke-opacity:1; fill:none" points="1652.23,592.94 1652.23,574.042 "/>
<polyline clip-path="url(#clip370)" style="stroke:#000000; stroke-linecap:round; stroke-linejoin:round; stroke-width:4; stroke-opacity:1; fill:none" points="2294.91,592.94 2294.91,574.042 "/>
<path clip-path="url(#clip370)" d="M366.86 629.718 Q361.443 629.718 358.7 635.065 Q355.992 640.378 355.992 651.072 Q355.992 661.732 358.7 667.079 Q361.443 672.391 366.86 672.391 Q372.311 672.391 375.019 667.079 Q377.762 661.732 377.762 651.072 Q377.762 640.378 375.019 635.065 Q372.311 629.718 366.86 629.718 M366.86 624.162 Q375.575 624.162 380.158 631.072 Q384.776 637.947 384.776 651.072 Q384.776 664.162 380.158 671.072 Q375.575 677.947 366.86 677.947 Q358.144 677.947 353.526 671.072 Q348.943 664.162 348.943 651.072 Q348.943 637.947 353.526 631.072 Q358.144 624.162 366.86 624.162 Z" fill="#000000" fill-rule="nonzero" fill-opacity="1" /><path clip-path="url(#clip370)" d="M994.961 625.1 L1022.5 625.1 L1022.5 631.003 L1001.38 631.003 L1001.38 643.711 Q1002.91 643.19 1004.44 642.947 Q1005.97 642.669 1007.5 642.669 Q1016.18 642.669 1021.25 647.426 Q1026.32 652.183 1026.32 660.308 Q1026.32 668.676 1021.11 673.329 Q1015.9 677.947 1006.42 677.947 Q1003.16 677.947 999.753 677.391 Q996.385 676.836 992.774 675.725 L992.774 668.676 Q995.899 670.377 999.232 671.211 Q1002.57 672.044 1006.28 672.044 Q1012.29 672.044 1015.79 668.884 Q1019.3 665.725 1019.3 660.308 Q1019.3 654.891 1015.79 651.732 Q1012.29 648.572 1006.28 648.572 Q1003.47 648.572 1000.66 649.197 Q997.878 649.822 994.961 651.141 L994.961 625.1 Z" fill="#000000" fill-rule="nonzero" fill-opacity="1" /><path clip-path="url(#clip370)" d="M1614.26 671.037 L1625.72 671.037 L1625.72 631.489 L1613.25 633.989 L1613.25 627.6 L1625.65 625.1 L1632.66 625.1 L1632.66 671.037 L1644.12 671.037 L1644.12 676.94 L1614.26 676.94 L1614.26 671.037 Z" fill="#000000" fill-rule="nonzero" fill-opacity="1" /><path clip-path="url(#clip370)" d="M1673.29 629.718 Q1667.87 629.718 1665.13 635.065 Q1662.42 640.378 1662.42 651.072 Q1662.42 661.732 1665.13 667.079 Q1667.87 672.391 1673.29 672.391 Q1678.74 672.391 1681.45 667.079 Q1684.19 661.732 1684.19 651.072 Q1684.19 640.378 1681.45 635.065 Q1678.74 629.718 1673.29 629.718 M1673.29 624.162 Q1682 624.162 1686.59 631.072 Q1691.2 637.947 1691.2 651.072 Q1691.2 664.162 1686.59 671.072 Q1682 677.947 1673.29 677.947 Q1664.57 677.947 1659.96 671.072 Q1655.37 664.162 1655.37 651.072 Q1655.37 637.947 1659.96 631.072 Q1664.57 624.162 1673.29 624.162 Z" fill="#000000" fill-rule="nonzero" fill-opacity="1" /><path clip-path="url(#clip370)" d="M2257.69 671.037 L2269.15 671.037 L2269.15 631.489 L2256.69 633.989 L2256.69 627.6 L2269.08 625.1 L2276.09 625.1 L2276.09 671.037 L2287.55 671.037 L2287.55 676.94 L2257.69 676.94 L2257.69 671.037 Z" fill="#000000" fill-rule="nonzero" fill-opacity="1" /><path clip-path="url(#clip370)" d="M2301.79 625.1 L2329.32 625.1 L2329.32 631.003 L2308.21 631.003 L2308.21 643.711 Q2309.74 643.19 2311.27 642.947 Q2312.8 642.669 2314.32 642.669 Q2323 642.669 2328.07 647.426 Q2333.14 652.183 2333.14 660.308 Q2333.14 668.676 2327.93 673.329 Q2322.73 677.947 2313.25 677.947 Q2309.98 677.947 2306.58 677.391 Q2303.21 676.836 2299.6 675.725 L2299.6 668.676 Q2302.73 670.377 2306.06 671.211 Q2309.39 672.044 2313.11 672.044 Q2319.12 672.044 2322.62 668.884 Q2326.13 665.725 2326.13 660.308 Q2326.13 654.891 2322.62 651.732 Q2319.12 648.572 2313.11 648.572 Q2310.3 648.572 2307.48 649.197 Q2304.71 649.822 2301.79 651.141 L2301.79 625.1 Z" fill="#000000" fill-rule="nonzero" fill-opacity="1" /><path clip-path="url(#clip370)" d="M1273.61 721.024 L1273.61 733.906 L1288.96 733.906 L1288.96 739.699 L1273.61 739.699 L1273.61 764.328 Q1273.61 769.878 1275.11 771.458 Q1276.65 773.037 1281.3 773.037 L1288.96 773.037 L1288.96 779.276 L1281.3 779.276 Q1272.68 779.276 1269.39 776.076 Q1266.11 772.835 1266.11 764.328 L1266.11 739.699 L1260.64 739.699 L1260.64 733.906 L1266.11 733.906 L1266.11 721.024 L1273.61 721.024 Z" fill="#000000" fill-rule="nonzero" fill-opacity="1" /><path clip-path="url(#clip370)" d="M1316.67 716.325 Q1311.24 725.642 1308.61 734.756 Q1305.97 743.871 1305.97 753.229 Q1305.97 762.586 1308.61 771.782 Q1311.28 780.937 1316.67 790.213 L1310.19 790.213 Q1304.11 780.694 1301.07 771.498 Q1298.07 762.303 1298.07 753.229 Q1298.07 744.195 1301.07 735.04 Q1304.07 725.885 1310.19 716.325 L1316.67 716.325 Z" fill="#000000" fill-rule="nonzero" fill-opacity="1" /><path clip-path="url(#clip370)" d="M1368.84 751.892 L1368.84 779.276 L1361.39 779.276 L1361.39 752.135 Q1361.39 745.694 1358.88 742.494 Q1356.37 739.293 1351.34 739.293 Q1345.31 739.293 1341.82 743.142 Q1338.34 746.99 1338.34 753.634 L1338.34 779.276 L1330.85 779.276 L1330.85 716.244 L1338.34 716.244 L1338.34 740.954 Q1341.01 736.863 1344.62 734.837 Q1348.27 732.812 1353 732.812 Q1360.82 732.812 1364.83 737.673 Q1368.84 742.494 1368.84 751.892 Z" fill="#000000" fill-rule="nonzero" fill-opacity="1" /><path clip-path="url(#clip370)" d="M1382.54 716.325 L1389.02 716.325 Q1395.09 725.885 1398.09 735.04 Q1401.13 744.195 1401.13 753.229 Q1401.13 762.303 1398.09 771.498 Q1395.09 780.694 1389.02 790.213 L1382.54 790.213 Q1387.92 780.937 1390.56 771.782 Q1393.23 762.586 1393.23 753.229 Q1393.23 743.871 1390.56 734.756 Q1387.92 725.642 1382.54 716.325 Z" fill="#000000" fill-rule="nonzero" fill-opacity="1" /><polyline clip-path="url(#clip370)" style="stroke:#000000; stroke-linecap:round; stroke-linejoin:round; stroke-width:4; stroke-opacity:1; fill:none" points="309.018,592.94 309.018,47.2441 "/>
<polyline clip-path="url(#clip370)" style="stroke:#000000; stroke-linecap:round; stroke-linejoin:round; stroke-width:4; stroke-opacity:1; fill:none" points="309.018,577.496 327.916,577.496 "/>
<polyline clip-path="url(#clip370)" style="stroke:#000000; stroke-linecap:round; stroke-linejoin:round; stroke-width:4; stroke-opacity:1; fill:none" points="309.018,448.794 327.916,448.794 "/>
<polyline clip-path="url(#clip370)" style="stroke:#000000; stroke-linecap:round; stroke-linejoin:round; stroke-width:4; stroke-opacity:1; fill:none" points="309.018,320.092 327.916,320.092 "/>
<polyline clip-path="url(#clip370)" style="stroke:#000000; stroke-linecap:round; stroke-linejoin:round; stroke-width:4; stroke-opacity:1; fill:none" points="309.018,191.39 327.916,191.39 "/>
<polyline clip-path="url(#clip370)" style="stroke:#000000; stroke-linecap:round; stroke-linejoin:round; stroke-width:4; stroke-opacity:1; fill:none" points="309.018,62.6883 327.916,62.6883 "/>
<path clip-path="url(#clip370)" d="M187.255 556.194 Q181.838 556.194 179.095 561.541 Q176.387 566.853 176.387 577.548 Q176.387 588.207 179.095 593.555 Q181.838 598.867 187.255 598.867 Q192.706 598.867 195.414 593.555 Q198.157 588.207 198.157 577.548 Q198.157 566.853 195.414 561.541 Q192.706 556.194 187.255 556.194 M187.255 550.638 Q195.97 550.638 200.553 557.548 Q205.171 564.423 205.171 577.548 Q205.171 590.638 200.553 597.548 Q195.97 604.423 187.255 604.423 Q178.539 604.423 173.921 597.548 Q169.338 590.638 169.338 577.548 Q169.338 564.423 173.921 557.548 Q178.539 550.638 187.255 550.638 Z" fill="#000000" fill-rule="nonzero" fill-opacity="1" /><path clip-path="url(#clip370)" d="M217.497 594.596 L224.824 594.596 L224.824 603.416 L217.497 603.416 L217.497 594.596 Z" fill="#000000" fill-rule="nonzero" fill-opacity="1" /><path clip-path="url(#clip370)" d="M255.101 556.194 Q249.685 556.194 246.942 561.541 Q244.233 566.853 244.233 577.548 Q244.233 588.207 246.942 593.555 Q249.685 598.867 255.101 598.867 Q260.553 598.867 263.261 593.555 Q266.004 588.207 266.004 577.548 Q266.004 566.853 263.261 561.541 Q260.553 556.194 255.101 556.194 M255.101 550.638 Q263.817 550.638 268.4 557.548 Q273.018 564.423 273.018 577.548 Q273.018 590.638 268.4 597.548 Q263.817 604.423 255.101 604.423 Q246.386 604.423 241.768 597.548 Q237.185 590.638 237.185 577.548 Q237.185 564.423 241.768 557.548 Q246.386 550.638 255.101 550.638 Z" fill="#000000" fill-rule="nonzero" fill-opacity="1" /><path clip-path="url(#clip370)" d="M179.789 468.811 L204.268 468.811 L204.268 474.714 L171.352 474.714 L171.352 468.811 Q175.345 464.679 182.22 457.735 Q189.13 450.756 190.9 448.742 Q194.268 444.957 195.588 442.353 Q196.942 439.714 196.942 437.179 Q196.942 433.047 194.025 430.443 Q191.143 427.839 186.491 427.839 Q183.192 427.839 179.512 428.985 Q175.866 430.131 171.699 432.457 L171.699 425.374 Q175.935 423.672 179.616 422.804 Q183.296 421.936 186.352 421.936 Q194.407 421.936 199.199 425.964 Q203.991 429.992 203.991 436.728 Q203.991 439.922 202.775 442.804 Q201.595 445.651 198.435 449.54 Q197.567 450.547 192.914 455.374 Q188.261 460.165 179.789 468.811 Z" fill="#000000" fill-rule="nonzero" fill-opacity="1" /><path clip-path="url(#clip370)" d="M218.99 465.894 L226.317 465.894 L226.317 474.714 L218.99 474.714 L218.99 465.894 Z" fill="#000000" fill-rule="nonzero" fill-opacity="1" /><path clip-path="url(#clip370)" d="M241.664 422.874 L269.199 422.874 L269.199 428.777 L248.088 428.777 L248.088 441.485 Q249.615 440.964 251.143 440.721 Q252.671 440.443 254.199 440.443 Q262.879 440.443 267.949 445.2 Q273.018 449.957 273.018 458.082 Q273.018 466.45 267.81 471.103 Q262.601 475.721 253.122 475.721 Q249.858 475.721 246.456 475.165 Q243.088 474.61 239.477 473.499 L239.477 466.45 Q242.601 468.151 245.935 468.985 Q249.268 469.818 252.983 469.818 Q258.99 469.818 262.497 466.658 Q266.004 463.499 266.004 458.082 Q266.004 452.665 262.497 449.506 Q258.99 446.346 252.983 446.346 Q250.171 446.346 247.358 446.971 Q244.581 447.596 241.664 448.915 L241.664 422.874 Z" fill="#000000" fill-rule="nonzero" fill-opacity="1" /><path clip-path="url(#clip370)" d="M172.324 294.172 L199.859 294.172 L199.859 300.075 L178.748 300.075 L178.748 312.783 Q180.275 312.262 181.803 312.019 Q183.331 311.741 184.859 311.741 Q193.539 311.741 198.609 316.498 Q203.678 321.255 203.678 329.38 Q203.678 337.748 198.47 342.401 Q193.261 347.019 183.782 347.019 Q180.518 347.019 177.116 346.463 Q173.748 345.908 170.137 344.797 L170.137 337.748 Q173.262 339.45 176.595 340.283 Q179.928 341.116 183.643 341.116 Q189.65 341.116 193.157 337.956 Q196.664 334.797 196.664 329.38 Q196.664 323.963 193.157 320.804 Q189.65 317.644 183.643 317.644 Q180.831 317.644 178.018 318.269 Q175.241 318.894 172.324 320.213 L172.324 294.172 Z" fill="#000000" fill-rule="nonzero" fill-opacity="1" /><path clip-path="url(#clip370)" d="M217.497 337.193 L224.824 337.193 L224.824 346.012 L217.497 346.012 L217.497 337.193 Z" fill="#000000" fill-rule="nonzero" fill-opacity="1" /><path clip-path="url(#clip370)" d="M255.101 298.79 Q249.685 298.79 246.942 304.137 Q244.233 309.45 244.233 320.144 Q244.233 330.804 246.942 336.151 Q249.685 341.463 255.101 341.463 Q260.553 341.463 263.261 336.151 Q266.004 330.804 266.004 320.144 Q266.004 309.45 263.261 304.137 Q260.553 298.79 255.101 298.79 M255.101 293.234 Q263.817 293.234 268.4 300.144 Q273.018 307.019 273.018 320.144 Q273.018 333.234 268.4 340.144 Q263.817 347.019 255.101 347.019 Q246.386 347.019 241.768 340.144 Q237.185 333.234 237.185 320.144 Q237.185 307.019 241.768 300.144 Q246.386 293.234 255.101 293.234 Z" fill="#000000" fill-rule="nonzero" fill-opacity="1" /><path clip-path="url(#clip370)" d="M171.977 165.47 L205.31 165.47 L205.31 168.456 L186.491 217.31 L179.164 217.31 L196.873 171.373 L171.977 171.373 L171.977 165.47 Z" fill="#000000" fill-rule="nonzero" fill-opacity="1" /><path clip-path="url(#clip370)" d="M218.99 208.491 L226.317 208.491 L226.317 217.31 L218.99 217.31 L218.99 208.491 Z" fill="#000000" fill-rule="nonzero" fill-opacity="1" /><path clip-path="url(#clip370)" d="M241.664 165.47 L269.199 165.47 L269.199 171.373 L248.088 171.373 L248.088 184.081 Q249.615 183.56 251.143 183.317 Q252.671 183.039 254.199 183.039 Q262.879 183.039 267.949 187.796 Q273.018 192.553 273.018 200.678 Q273.018 209.046 267.81 213.699 Q262.601 218.317 253.122 218.317 Q249.858 218.317 246.456 217.762 Q243.088 217.206 239.477 216.095 L239.477 209.046 Q242.601 210.748 245.935 211.581 Q249.268 212.414 252.983 212.414 Q258.99 212.414 262.497 209.255 Q266.004 206.095 266.004 200.678 Q266.004 195.262 262.497 192.102 Q258.99 188.942 252.983 188.942 Q250.171 188.942 247.358 189.567 Q244.581 190.192 241.664 191.512 L241.664 165.47 Z" fill="#000000" fill-rule="nonzero" fill-opacity="1" /><path clip-path="url(#clip370)" d="M128.227 82.7056 L139.685 82.7056 L139.685 43.1572 L127.22 45.6572 L127.22 39.2683 L139.616 36.7683 L146.63 36.7683 L146.63 82.7056 L158.088 82.7056 L158.088 88.6083 L128.227 88.6083 L128.227 82.7056 Z" fill="#000000" fill-rule="nonzero" fill-opacity="1" /><path clip-path="url(#clip370)" d="M187.255 41.3863 Q181.838 41.3863 179.095 46.7335 Q176.387 52.046 176.387 62.7404 Q176.387 73.4001 179.095 78.7473 Q181.838 84.0597 187.255 84.0597 Q192.706 84.0597 195.414 78.7473 Q198.157 73.4001 198.157 62.7404 Q198.157 52.046 195.414 46.7335 Q192.706 41.3863 187.255 41.3863 M187.255 35.8308 Q195.97 35.8308 200.553 42.7405 Q205.171 49.6155 205.171 62.7404 Q205.171 75.8306 200.553 82.7403 Q195.97 89.6153 187.255 89.6153 Q178.539 89.6153 173.921 82.7403 Q169.338 75.8306 169.338 62.7404 Q169.338 49.6155 173.921 42.7405 Q178.539 35.8308 187.255 35.8308 Z" fill="#000000" fill-rule="nonzero" fill-opacity="1" /><path clip-path="url(#clip370)" d="M217.497 79.7889 L224.824 79.7889 L224.824 88.6083 L217.497 88.6083 L217.497 79.7889 Z" fill="#000000" fill-rule="nonzero" fill-opacity="1" /><path clip-path="url(#clip370)" d="M255.101 41.3863 Q249.685 41.3863 246.942 46.7335 Q244.233 52.046 244.233 62.7404 Q244.233 73.4001 246.942 78.7473 Q249.685 84.0597 255.101 84.0597 Q260.553 84.0597 263.261 78.7473 Q266.004 73.4001 266.004 62.7404 Q266.004 52.046 263.261 46.7335 Q260.553 41.3863 255.101 41.3863 M255.101 35.8308 Q263.817 35.8308 268.4 42.7405 Q273.018 49.6155 273.018 62.7404 Q273.018 75.8306 268.4 82.7403 Q263.817 89.6153 255.101 89.6153 Q246.386 89.6153 241.768 82.7403 Q237.185 75.8306 237.185 62.7404 Q237.185 49.6155 241.768 42.7405 Q246.386 35.8308 255.101 35.8308 Z" fill="#000000" fill-rule="nonzero" fill-opacity="1" /><path clip-path="url(#clip370)" d="M18.1459 452.374 Q18.1459 461.286 24.7894 466.552 Q31.4329 471.778 42.8969 471.778 Q54.3205 471.778 60.964 466.552 Q67.6074 461.286 67.6074 452.374 Q67.6074 443.462 60.964 438.277 Q54.3205 433.051 42.8969 433.051 Q31.4329 433.051 24.7894 438.277 Q18.1459 443.462 18.1459 452.374 M71.9824 440.91 L83.7705 430.135 L83.7705 440.019 L74.0889 448.971 Q74.1699 450.308 74.2104 451.037 Q74.2509 451.726 74.2509 452.374 Q74.2509 465.135 65.744 472.791 Q57.1966 480.407 42.8969 480.407 Q28.5567 480.407 20.0498 472.791 Q11.5024 465.135 11.5024 452.374 Q11.5024 439.654 20.0498 432.039 Q28.5567 424.423 42.8969 424.423 Q53.4293 424.423 60.9234 428.676 Q68.4176 432.889 71.9824 440.91 Z" fill="#000000" fill-rule="nonzero" fill-opacity="1" /><path clip-path="url(#clip370)" d="M27.706 411.946 L27.706 404.493 L73.0762 404.493 L73.0762 411.946 L27.706 411.946 M10.0441 411.946 L10.0441 404.493 L19.4827 404.493 L19.4827 411.946 L10.0441 411.946 Z" fill="#000000" fill-rule="nonzero" fill-opacity="1" /><path clip-path="url(#clip370)" d="M45.692 351.183 L73.0762 351.183 L73.0762 358.636 L45.9351 358.636 Q39.4942 358.636 36.2939 361.148 Q33.0937 363.659 33.0937 368.683 Q33.0937 374.718 36.9421 378.202 Q40.7905 381.686 47.4339 381.686 L73.0762 381.686 L73.0762 389.18 L27.706 389.18 L27.706 381.686 L34.7546 381.686 Q30.6632 379.012 28.6377 375.407 Q26.6123 371.761 26.6123 367.022 Q26.6123 359.203 31.4734 355.193 Q36.2939 351.183 45.692 351.183 Z" fill="#000000" fill-rule="nonzero" fill-opacity="1" /><path clip-path="url(#clip370)" d="M10.1251 318.411 Q19.4422 323.839 28.5567 326.472 Q37.6713 329.105 47.0288 329.105 Q56.3864 329.105 65.582 326.472 Q74.737 323.799 84.0136 318.411 L84.0136 324.892 Q74.494 330.969 65.2984 334.007 Q56.1029 337.004 47.0288 337.004 Q37.9953 337.004 28.8403 334.007 Q19.6852 331.009 10.1251 324.892 L10.1251 318.411 Z" fill="#000000" fill-rule="nonzero" fill-opacity="1" /><path clip-path="url(#clip370)" d="M12.5962 303.625 L12.5962 295.442 L66.1896 295.442 L66.1896 265.992 L73.0762 265.992 L73.0762 303.625 L12.5962 303.625 Z" fill="#000000" fill-rule="nonzero" fill-opacity="1" /><path clip-path="url(#clip370)" d="M12.5962 244.482 L12.5962 237.595 L80.7729 258.66 L80.7729 265.547 L12.5962 244.482 Z" fill="#000000" fill-rule="nonzero" fill-opacity="1" /><path clip-path="url(#clip370)" d="M45.692 192.063 L73.0762 192.063 L73.0762 199.517 L45.9351 199.517 Q39.4942 199.517 36.2939 202.028 Q33.0937 204.54 33.0937 209.563 Q33.0937 215.599 36.9421 219.083 Q40.7905 222.566 47.4339 222.566 L73.0762 222.566 L73.0762 230.061 L10.0441 230.061 L10.0441 222.566 L34.7546 222.566 Q30.6632 219.893 28.6377 216.288 Q26.6123 212.642 26.6123 207.902 Q26.6123 200.084 31.4734 196.074 Q36.2939 192.063 45.692 192.063 Z" fill="#000000" fill-rule="nonzero" fill-opacity="1" /><path clip-path="url(#clip370)" d="M10.1251 178.371 L10.1251 171.89 Q19.6852 165.813 28.8403 162.816 Q37.9953 159.777 47.0288 159.777 Q56.1029 159.777 65.2984 162.816 Q74.494 165.813 84.0136 171.89 L84.0136 178.371 Q74.737 172.983 65.582 170.35 Q56.3864 167.677 47.0288 167.677 Q37.6713 167.677 28.5567 170.35 Q19.4422 172.983 10.1251 178.371 Z" fill="#000000" fill-rule="nonzero" fill-opacity="1" /><polyline clip-path="url(#clip372)" style="stroke:#000000; stroke-linecap:round; stroke-linejoin:round; stroke-width:12; stroke-opacity:1; fill:none" points="366.86,62.6884 495.397,62.6884 495.397,62.6883 623.934,62.6883 623.934,62.6883 752.471,62.6883 752.471,62.6884 881.008,62.6884 881.008,62.6884 1009.54,62.6884 1009.54,62.6883 1138.08,62.6883 1138.08,62.6883 1266.62,62.6883 1266.62,62.6884 1395.16,62.6884 1395.16,62.6883 1523.69,62.6883 1523.69,62.6883 1652.23,62.6883 1652.23,62.6884 1780.77,62.6884 1780.77,62.6883 1909.3,62.6883 1909.3,62.6995 2037.84,62.6995 2037.84,62.6883 2166.38,62.6883 2166.38,577.496 2294.91,577.496 "/>
<path clip-path="url(#clip370)" d="M309.018 1392.94 L2352.76 1392.94 L2352.76 847.244 L309.018 847.244  Z" fill="#ffffff" fill-rule="evenodd" fill-opacity="1"/>
<defs>
  <clipPath id="clip373">
    <rect x="309" y="847" width="2045" height="547"/>
  </clipPath>
</defs>
<polyline clip-path="url(#clip370)" style="stroke:#000000; stroke-linecap:round; stroke-linejoin:round; stroke-width:4; stroke-opacity:1; fill:none" points="309.018,1392.94 2352.76,1392.94 "/>
<polyline clip-path="url(#clip370)" style="stroke:#000000; stroke-linecap:round; stroke-linejoin:round; stroke-width:4; stroke-opacity:1; fill:none" points="309.018,1392.94 309.018,1374.04 "/>
<polyline clip-path="url(#clip370)" style="stroke:#000000; stroke-linecap:round; stroke-linejoin:round; stroke-width:4; stroke-opacity:1; fill:none" points="990.264,1392.94 990.264,1374.04 "/>
<polyline clip-path="url(#clip370)" style="stroke:#000000; stroke-linecap:round; stroke-linejoin:round; stroke-width:4; stroke-opacity:1; fill:none" points="1671.51,1392.94 1671.51,1374.04 "/>
<polyline clip-path="url(#clip370)" style="stroke:#000000; stroke-linecap:round; stroke-linejoin:round; stroke-width:4; stroke-opacity:1; fill:none" points="2352.76,1392.94 2352.76,1374.04 "/>
<path clip-path="url(#clip370)" d="M309.018 1429.72 Q303.601 1429.72 300.858 1435.07 Q298.15 1440.38 298.15 1451.07 Q298.15 1461.73 300.858 1467.08 Q303.601 1472.39 309.018 1472.39 Q314.469 1472.39 317.178 1467.08 Q319.921 1461.73 319.921 1451.07 Q319.921 1440.38 317.178 1435.07 Q314.469 1429.72 309.018 1429.72 M309.018 1424.16 Q317.733 1424.16 322.317 1431.07 Q326.935 1437.95 326.935 1451.07 Q326.935 1464.16 322.317 1471.07 Q317.733 1477.95 309.018 1477.95 Q300.303 1477.95 295.685 1471.07 Q291.101 1464.16 291.101 1451.07 Q291.101 1437.95 295.685 1431.07 Q300.303 1424.16 309.018 1424.16 Z" fill="#000000" fill-rule="nonzero" fill-opacity="1" /><path clip-path="url(#clip370)" d="M975.681 1425.1 L1003.22 1425.1 L1003.22 1431 L982.104 1431 L982.104 1443.71 Q983.632 1443.19 985.16 1442.95 Q986.688 1442.67 988.215 1442.67 Q996.896 1442.67 1001.97 1447.43 Q1007.03 1452.18 1007.03 1460.31 Q1007.03 1468.68 1001.83 1473.33 Q996.618 1477.95 987.139 1477.95 Q983.875 1477.95 980.472 1477.39 Q977.104 1476.84 973.493 1475.72 L973.493 1468.68 Q976.618 1470.38 979.952 1471.21 Q983.285 1472.04 987 1472.04 Q993.007 1472.04 996.514 1468.88 Q1000.02 1465.72 1000.02 1460.31 Q1000.02 1454.89 996.514 1451.73 Q993.007 1448.57 987 1448.57 Q984.188 1448.57 981.375 1449.2 Q978.597 1449.82 975.681 1451.14 L975.681 1425.1 Z" fill="#000000" fill-rule="nonzero" fill-opacity="1" /><path clip-path="url(#clip370)" d="M1633.54 1471.04 L1645 1471.04 L1645 1431.49 L1632.53 1433.99 L1632.53 1427.6 L1644.93 1425.1 L1651.94 1425.1 L1651.94 1471.04 L1663.4 1471.04 L1663.4 1476.94 L1633.54 1476.94 L1633.54 1471.04 Z" fill="#000000" fill-rule="nonzero" fill-opacity="1" /><path clip-path="url(#clip370)" d="M1692.57 1429.72 Q1687.15 1429.72 1684.41 1435.07 Q1681.7 1440.38 1681.7 1451.07 Q1681.7 1461.73 1684.41 1467.08 Q1687.15 1472.39 1692.57 1472.39 Q1698.02 1472.39 1700.73 1467.08 Q1703.47 1461.73 1703.47 1451.07 Q1703.47 1440.38 1700.73 1435.07 Q1698.02 1429.72 1692.57 1429.72 M1692.57 1424.16 Q1701.28 1424.16 1705.87 1431.07 Q1710.49 1437.95 1710.49 1451.07 Q1710.49 1464.16 1705.87 1471.07 Q1701.28 1477.95 1692.57 1477.95 Q1683.85 1477.95 1679.24 1471.07 Q1674.65 1464.16 1674.65 1451.07 Q1674.65 1437.95 1679.24 1431.07 Q1683.85 1424.16 1692.57 1424.16 Z" fill="#000000" fill-rule="nonzero" fill-opacity="1" /><path clip-path="url(#clip370)" d="M2315.53 1471.04 L2326.99 1471.04 L2326.99 1431.49 L2314.53 1433.99 L2314.53 1427.6 L2326.92 1425.1 L2333.94 1425.1 L2333.94 1471.04 L2345.39 1471.04 L2345.39 1476.94 L2315.53 1476.94 L2315.53 1471.04 Z" fill="#000000" fill-rule="nonzero" fill-opacity="1" /><path clip-path="url(#clip370)" d="M2359.63 1425.1 L2387.17 1425.1 L2387.17 1431 L2366.05 1431 L2366.05 1443.71 Q2367.58 1443.19 2369.11 1442.95 Q2370.64 1442.67 2372.17 1442.67 Q2380.85 1442.67 2385.92 1447.43 Q2390.98 1452.18 2390.98 1460.31 Q2390.98 1468.68 2385.78 1473.33 Q2380.57 1477.95 2371.09 1477.95 Q2367.83 1477.95 2364.42 1477.39 Q2361.05 1476.84 2357.44 1475.72 L2357.44 1468.68 Q2360.57 1470.38 2363.9 1471.21 Q2367.23 1472.04 2370.95 1472.04 Q2376.96 1472.04 2380.46 1468.88 Q2383.97 1465.72 2383.97 1460.31 Q2383.97 1454.89 2380.46 1451.73 Q2376.96 1448.57 2370.95 1448.57 Q2368.14 1448.57 2365.33 1449.2 Q2362.55 1449.82 2359.63 1451.14 L2359.63 1425.1 Z" fill="#000000" fill-rule="nonzero" fill-opacity="1" /><path clip-path="url(#clip370)" d="M1273.61 1521.02 L1273.61 1533.91 L1288.96 1533.91 L1288.96 1539.7 L1273.61 1539.7 L1273.61 1564.33 Q1273.61 1569.88 1275.11 1571.46 Q1276.65 1573.04 1281.3 1573.04 L1288.96 1573.04 L1288.96 1579.28 L1281.3 1579.28 Q1272.68 1579.28 1269.39 1576.08 Q1266.11 1572.83 1266.11 1564.33 L1266.11 1539.7 L1260.64 1539.7 L1260.64 1533.91 L1266.11 1533.91 L1266.11 1521.02 L1273.61 1521.02 Z" fill="#000000" fill-rule="nonzero" fill-opacity="1" /><path clip-path="url(#clip370)" d="M1316.67 1516.32 Q1311.24 1525.64 1308.61 1534.76 Q1305.97 1543.87 1305.97 1553.23 Q1305.97 1562.59 1308.61 1571.78 Q1311.28 1580.94 1316.67 1590.21 L1310.19 1590.21 Q1304.11 1580.69 1301.07 1571.5 Q1298.07 1562.3 1298.07 1553.23 Q1298.07 1544.2 1301.07 1535.04 Q1304.07 1525.88 1310.19 1516.32 L1316.67 1516.32 Z" fill="#000000" fill-rule="nonzero" fill-opacity="1" /><path clip-path="url(#clip370)" d="M1368.84 1551.89 L1368.84 1579.28 L1361.39 1579.28 L1361.39 1552.13 Q1361.39 1545.69 1358.88 1542.49 Q1356.37 1539.29 1351.34 1539.29 Q1345.31 1539.29 1341.82 1543.14 Q1338.34 1546.99 1338.34 1553.63 L1338.34 1579.28 L1330.85 1579.28 L1330.85 1516.24 L1338.34 1516.24 L1338.34 1540.95 Q1341.01 1536.86 1344.62 1534.84 Q1348.27 1532.81 1353 1532.81 Q1360.82 1532.81 1364.83 1537.67 Q1368.84 1542.49 1368.84 1551.89 Z" fill="#000000" fill-rule="nonzero" fill-opacity="1" /><path clip-path="url(#clip370)" d="M1382.54 1516.32 L1389.02 1516.32 Q1395.09 1525.88 1398.09 1535.04 Q1401.13 1544.2 1401.13 1553.23 Q1401.13 1562.3 1398.09 1571.5 Q1395.09 1580.69 1389.02 1590.21 L1382.54 1590.21 Q1387.92 1580.94 1390.56 1571.78 Q1393.23 1562.59 1393.23 1553.23 Q1393.23 1543.87 1390.56 1534.76 Q1387.92 1525.64 1382.54 1516.32 Z" fill="#000000" fill-rule="nonzero" fill-opacity="1" /><polyline clip-path="url(#clip370)" style="stroke:#000000; stroke-linecap:round; stroke-linejoin:round; stroke-width:4; stroke-opacity:1; fill:none" points="309.018,1392.94 309.018,847.244 "/>
<polyline clip-path="url(#clip370)" style="stroke:#000000; stroke-linecap:round; stroke-linejoin:round; stroke-width:4; stroke-opacity:1; fill:none" points="309.018,1377.79 327.916,1377.79 "/>
<polyline clip-path="url(#clip370)" style="stroke:#000000; stroke-linecap:round; stroke-linejoin:round; stroke-width:4; stroke-opacity:1; fill:none" points="309.018,1269.86 327.916,1269.86 "/>
<polyline clip-path="url(#clip370)" style="stroke:#000000; stroke-linecap:round; stroke-linejoin:round; stroke-width:4; stroke-opacity:1; fill:none" points="309.018,1161.94 327.916,1161.94 "/>
<polyline clip-path="url(#clip370)" style="stroke:#000000; stroke-linecap:round; stroke-linejoin:round; stroke-width:4; stroke-opacity:1; fill:none" points="309.018,1054.01 327.916,1054.01 "/>
<polyline clip-path="url(#clip370)" style="stroke:#000000; stroke-linecap:round; stroke-linejoin:round; stroke-width:4; stroke-opacity:1; fill:none" points="309.018,946.083 327.916,946.083 "/>
<path clip-path="url(#clip370)" d="M255.101 1356.49 Q249.685 1356.49 246.942 1361.84 Q244.233 1367.15 244.233 1377.84 Q244.233 1388.5 246.942 1393.85 Q249.685 1399.16 255.101 1399.16 Q260.553 1399.16 263.261 1393.85 Q266.004 1388.5 266.004 1377.84 Q266.004 1367.15 263.261 1361.84 Q260.553 1356.49 255.101 1356.49 M255.101 1350.93 Q263.817 1350.93 268.4 1357.84 Q273.018 1364.72 273.018 1377.84 Q273.018 1390.93 268.4 1397.84 Q263.817 1404.72 255.101 1404.72 Q246.386 1404.72 241.768 1397.84 Q237.185 1390.93 237.185 1377.84 Q237.185 1364.72 241.768 1357.84 Q246.386 1350.93 255.101 1350.93 Z" fill="#000000" fill-rule="nonzero" fill-opacity="1" /><path clip-path="url(#clip370)" d="M196.074 1289.88 L207.532 1289.88 L207.532 1250.33 L195.067 1252.83 L195.067 1246.44 L207.463 1243.94 L214.477 1243.94 L214.477 1289.88 L225.935 1289.88 L225.935 1295.78 L196.074 1295.78 L196.074 1289.88 Z" fill="#000000" fill-rule="nonzero" fill-opacity="1" /><path clip-path="url(#clip370)" d="M255.101 1248.56 Q249.685 1248.56 246.942 1253.91 Q244.233 1259.22 244.233 1269.92 Q244.233 1280.58 246.942 1285.92 Q249.685 1291.24 255.101 1291.24 Q260.553 1291.24 263.261 1285.92 Q266.004 1280.58 266.004 1269.92 Q266.004 1259.22 263.261 1253.91 Q260.553 1248.56 255.101 1248.56 M255.101 1243.01 Q263.817 1243.01 268.4 1249.92 Q273.018 1256.79 273.018 1269.92 Q273.018 1283.01 268.4 1289.92 Q263.817 1296.79 255.101 1296.79 Q246.386 1296.79 241.768 1289.92 Q237.185 1283.01 237.185 1269.92 Q237.185 1256.79 241.768 1249.92 Q246.386 1243.01 255.101 1243.01 Z" fill="#000000" fill-rule="nonzero" fill-opacity="1" /><path clip-path="url(#clip370)" d="M200.9 1181.95 L225.379 1181.95 L225.379 1187.86 L192.463 1187.86 L192.463 1181.95 Q196.456 1177.82 203.331 1170.88 Q210.241 1163.9 212.011 1161.89 Q215.379 1158.1 216.699 1155.5 Q218.053 1152.86 218.053 1150.32 Q218.053 1146.19 215.136 1143.59 Q212.254 1140.98 207.602 1140.98 Q204.303 1140.98 200.623 1142.13 Q196.977 1143.27 192.81 1145.6 L192.81 1138.52 Q197.046 1136.82 200.727 1135.95 Q204.407 1135.08 207.463 1135.08 Q215.518 1135.08 220.31 1139.11 Q225.102 1143.14 225.102 1149.87 Q225.102 1153.07 223.886 1155.95 Q222.706 1158.79 219.546 1162.68 Q218.678 1163.69 214.025 1168.52 Q209.372 1173.31 200.9 1181.95 Z" fill="#000000" fill-rule="nonzero" fill-opacity="1" /><path clip-path="url(#clip370)" d="M255.101 1140.64 Q249.685 1140.64 246.942 1145.98 Q244.233 1151.29 244.233 1161.99 Q244.233 1172.65 246.942 1178 Q249.685 1183.31 255.101 1183.31 Q260.553 1183.31 263.261 1178 Q266.004 1172.65 266.004 1161.99 Q266.004 1151.29 263.261 1145.98 Q260.553 1140.64 255.101 1140.64 M255.101 1135.08 Q263.817 1135.08 268.4 1141.99 Q273.018 1148.86 273.018 1161.99 Q273.018 1175.08 268.4 1181.99 Q263.817 1188.86 255.101 1188.86 Q246.386 1188.86 241.768 1181.99 Q237.185 1175.08 237.185 1161.99 Q237.185 1148.86 241.768 1141.99 Q246.386 1135.08 255.101 1135.08 Z" fill="#000000" fill-rule="nonzero" fill-opacity="1" /><path clip-path="url(#clip370)" d="M216.109 1051.98 Q221.143 1053.06 223.956 1056.46 Q226.803 1059.86 226.803 1064.86 Q226.803 1072.53 221.525 1076.74 Q216.247 1080.94 206.525 1080.94 Q203.261 1080.94 199.789 1080.28 Q196.352 1079.65 192.671 1078.37 L192.671 1071.6 Q195.588 1073.3 199.06 1074.17 Q202.532 1075.03 206.317 1075.03 Q212.914 1075.03 216.352 1072.43 Q219.824 1069.83 219.824 1064.86 Q219.824 1060.28 216.595 1057.71 Q213.4 1055.1 207.671 1055.1 L201.629 1055.1 L201.629 1049.34 L207.949 1049.34 Q213.122 1049.34 215.866 1047.29 Q218.609 1045.21 218.609 1041.32 Q218.609 1037.33 215.761 1035.21 Q212.949 1033.06 207.671 1033.06 Q204.789 1033.06 201.491 1033.68 Q198.192 1034.31 194.234 1035.62 L194.234 1029.37 Q198.227 1028.26 201.699 1027.71 Q205.206 1027.15 208.296 1027.15 Q216.282 1027.15 220.935 1030.8 Q225.588 1034.41 225.588 1040.59 Q225.588 1044.9 223.122 1047.88 Q220.657 1050.83 216.109 1051.98 Z" fill="#000000" fill-rule="nonzero" fill-opacity="1" /><path clip-path="url(#clip370)" d="M255.101 1032.71 Q249.685 1032.71 246.942 1038.06 Q244.233 1043.37 244.233 1054.06 Q244.233 1064.72 246.942 1070.07 Q249.685 1075.38 255.101 1075.38 Q260.553 1075.38 263.261 1070.07 Q266.004 1064.72 266.004 1054.06 Q266.004 1043.37 263.261 1038.06 Q260.553 1032.71 255.101 1032.71 M255.101 1027.15 Q263.817 1027.15 268.4 1034.06 Q273.018 1040.94 273.018 1054.06 Q273.018 1067.15 268.4 1074.06 Q263.817 1080.94 255.101 1080.94 Q246.386 1080.94 241.768 1074.06 Q237.185 1067.15 237.185 1054.06 Q237.185 1040.94 241.768 1034.06 Q246.386 1027.15 255.101 1027.15 Z" fill="#000000" fill-rule="nonzero" fill-opacity="1" /><path clip-path="url(#clip370)" d="M214.129 926.274 L196.421 953.948 L214.129 953.948 L214.129 926.274 M212.289 920.163 L221.109 920.163 L221.109 953.948 L228.504 953.948 L228.504 959.781 L221.109 959.781 L221.109 972.003 L214.129 972.003 L214.129 959.781 L190.727 959.781 L190.727 953.01 L212.289 920.163 Z" fill="#000000" fill-rule="nonzero" fill-opacity="1" /><path clip-path="url(#clip370)" d="M255.101 924.781 Q249.685 924.781 246.942 930.129 Q244.233 935.441 244.233 946.135 Q244.233 956.795 246.942 962.142 Q249.685 967.455 255.101 967.455 Q260.553 967.455 263.261 962.142 Q266.004 956.795 266.004 946.135 Q266.004 935.441 263.261 930.129 Q260.553 924.781 255.101 924.781 M255.101 919.226 Q263.817 919.226 268.4 926.136 Q273.018 933.01 273.018 946.135 Q273.018 959.226 268.4 966.135 Q263.817 973.01 255.101 973.01 Q246.386 973.01 241.768 966.135 Q237.185 959.226 237.185 946.135 Q237.185 933.01 241.768 926.136 Q246.386 919.226 255.101 919.226 Z" fill="#000000" fill-rule="nonzero" fill-opacity="1" /><path clip-path="url(#clip370)" d="M80.7613 1205.65 L89.3897 1205.65 Q85.5414 1209.78 83.6374 1214.48 Q81.7335 1219.14 81.7335 1224.4 Q81.7335 1234.77 88.0934 1240.28 Q94.4128 1245.79 106.404 1245.79 Q118.354 1245.79 124.714 1240.28 Q131.033 1234.77 131.033 1224.4 Q131.033 1219.14 129.129 1214.48 Q127.225 1209.78 123.377 1205.65 L131.924 1205.65 Q134.841 1209.94 136.299 1214.76 Q137.758 1219.54 137.758 1224.89 Q137.758 1238.62 129.372 1246.52 Q120.946 1254.42 106.404 1254.42 Q91.8203 1254.42 83.4349 1246.52 Q75.009 1238.62 75.009 1224.89 Q75.009 1219.46 76.4673 1214.68 Q77.8852 1209.86 80.7613 1205.65 Z" fill="#000000" fill-rule="nonzero" fill-opacity="1" /><path clip-path="url(#clip370)" d="M111.265 1176.12 L115.194 1176.12 Q114.303 1178.1 113.857 1180.25 Q113.412 1182.35 113.412 1184.66 Q113.412 1188.19 114.343 1189.93 Q115.316 1191.67 117.219 1191.67 Q118.678 1191.67 119.488 1190.42 Q120.339 1189.16 121.068 1185.39 L121.392 1183.77 Q122.364 1178.71 124.065 1176.68 Q125.807 1174.58 128.927 1174.58 Q132.451 1174.58 134.517 1177.74 Q136.583 1180.86 136.583 1186.36 Q136.583 1188.67 136.178 1191.19 Q135.773 1193.66 135.003 1196.41 L130.668 1196.41 Q131.884 1193.82 132.491 1191.27 Q133.099 1188.75 133.099 1186.28 Q133.099 1182.96 132.086 1181.18 Q131.074 1179.4 129.251 1179.4 Q127.549 1179.4 126.618 1180.69 Q125.807 1181.83 124.876 1186.32 L124.552 1187.94 Q123.701 1192.32 122.04 1194.26 Q120.339 1196.21 117.381 1196.21 Q113.817 1196.21 111.872 1193.33 Q109.887 1190.5 109.887 1185.23 Q109.887 1182.64 110.252 1180.33 Q110.576 1178.02 111.265 1176.12 Z" fill="#000000" fill-rule="nonzero" fill-opacity="1" /><path clip-path="url(#clip370)" d="M73.6317 1144.48 Q82.9488 1149.91 92.0633 1152.54 Q101.178 1155.17 110.535 1155.17 Q119.893 1155.17 129.089 1152.54 Q138.244 1149.87 147.52 1144.48 L147.52 1150.96 Q138.001 1157.04 128.805 1160.07 Q119.609 1163.07 110.535 1163.07 Q101.502 1163.07 92.3469 1160.07 Q83.1918 1157.08 73.6317 1150.96 L73.6317 1144.48 Z" fill="#000000" fill-rule="nonzero" fill-opacity="1" /><path clip-path="url(#clip370)" d="M113.371 1100.16 Q105.269 1100.16 100.813 1103.52 Q96.3573 1106.85 96.3573 1112.88 Q96.3573 1118.88 100.813 1122.24 Q105.269 1125.56 113.371 1125.56 Q121.432 1125.56 125.888 1122.24 Q130.344 1118.88 130.344 1112.88 Q130.344 1106.85 125.888 1103.52 Q121.432 1100.16 113.371 1100.16 M130.952 1092.71 Q142.538 1092.71 148.168 1097.85 Q153.84 1103 153.84 1113.61 Q153.84 1117.54 153.232 1121.02 Q152.665 1124.51 151.45 1127.79 L144.198 1127.79 Q145.981 1124.51 146.832 1121.31 Q147.682 1118.11 147.682 1114.79 Q147.682 1107.45 143.834 1103.81 Q140.026 1100.16 132.289 1100.16 L128.602 1100.16 Q132.613 1102.47 134.598 1106.08 Q136.583 1109.68 136.583 1114.7 Q136.583 1123.05 130.223 1128.15 Q123.863 1133.26 113.371 1133.26 Q102.839 1133.26 96.4788 1128.15 Q90.1189 1123.05 90.1189 1114.7 Q90.1189 1109.68 92.1038 1106.08 Q94.0888 1102.47 98.0992 1100.16 L91.2126 1100.16 L91.2126 1092.71 L130.952 1092.71 Z" fill="#000000" fill-rule="nonzero" fill-opacity="1" /><path clip-path="url(#clip370)" d="M76.1028 1064.11 L76.1028 1057.22 L144.279 1078.29 L144.279 1085.17 L76.1028 1064.11 Z" fill="#000000" fill-rule="nonzero" fill-opacity="1" /><path clip-path="url(#clip370)" d="M76.1028 1049.08 L76.1028 1040.9 L129.696 1040.9 L129.696 1011.45 L136.583 1011.45 L136.583 1049.08 L76.1028 1049.08 Z" fill="#000000" fill-rule="nonzero" fill-opacity="1" /><path clip-path="url(#clip370)" d="M73.6317 1004.36 L73.6317 997.876 Q83.1918 991.8 92.3469 988.802 Q101.502 985.764 110.535 985.764 Q119.609 985.764 128.805 988.802 Q138.001 991.8 147.52 997.876 L147.52 1004.36 Q138.244 998.97 129.089 996.337 Q119.893 993.663 110.535 993.663 Q101.178 993.663 92.0633 996.337 Q82.9488 998.97 73.6317 1004.36 Z" fill="#000000" fill-rule="nonzero" fill-opacity="1" /><polyline clip-path="url(#clip373)" style="stroke:#3da44d; stroke-linecap:round; stroke-linejoin:round; stroke-width:12; stroke-opacity:1; fill:none" stroke-dasharray="48, 30" points="309.018,1367 445.267,1056.12 581.516,975.521 717.766,938.495 854.015,917.227 990.264,903.424 1126.51,893.743 1262.76,886.579 1399.01,881.063 1535.26,876.686 1671.51,873.129 1807.76,870.182 1944.01,867.699 2080.26,865.581 2216.51,863.752 2352.76,863.79 "/>
<polyline clip-path="url(#clip373)" style="stroke:#c271d2; stroke-linecap:round; stroke-linejoin:round; stroke-width:12; stroke-opacity:1; fill:none" stroke-dasharray="48, 30" points="309.018,1367 445.267,1073.99 581.516,1101.37 717.766,1277.49 854.015,1334.4 990.264,1346.57 1126.51,1352.39 1262.76,1356.27 1399.01,1359.1 1535.26,1361.27 1671.51,1362.99 1807.76,1364.38 1944.01,1365.53 2080.26,1366.49 2216.51,1367.32 2352.76,1377.5 "/>
<polyline clip-path="url(#clip373)" style="stroke:#ac8d18; stroke-linecap:round; stroke-linejoin:round; stroke-width:12; stroke-opacity:1; fill:none" stroke-dasharray="48, 30" points="309.018,1367 445.267,1055.92 581.516,975.207 717.766,938.296 854.015,916.87 990.264,902.99 1126.51,893.365 1262.76,886.294 1399.01,880.859 1535.26,876.531 1671.51,872.99 1807.76,870.031 1944.01,867.518 2080.26,865.356 2216.51,863.476 2352.76,863.443 "/>
<polyline clip-path="url(#clip373)" style="stroke:#00a9ad; stroke-linecap:round; stroke-linejoin:round; stroke-width:12; stroke-opacity:1; fill:none" stroke-dasharray="48, 30" points="309.018,1367 445.267,1055.92 581.516,975.21 717.766,938.293 854.015,916.874 990.264,902.994 1126.51,893.37 1262.76,886.291 1399.01,880.847 1535.26,876.518 1671.51,872.979 1807.76,870.022 1944.01,867.51 2080.26,865.347 2216.51,863.467 2352.76,863.433 "/>
<polyline clip-path="url(#clip373)" style="stroke:#ed5d92; stroke-linecap:round; stroke-linejoin:round; stroke-width:12; stroke-opacity:1; fill:none" stroke-dasharray="48, 30" points="309.018,1367 445.267,1056.48 581.516,976.02 717.766,939.082 854.015,917.888 990.264,904.154 1126.51,894.541 1262.76,887.446 1399.01,882.003 1535.26,877.703 1671.51,874.226 1807.76,871.364 1944.01,868.974 2080.26,866.953 2216.51,865.229 2352.76,865.488 "/>
<polyline clip-path="url(#clip373)" style="stroke:#c68125; stroke-linecap:round; stroke-linejoin:round; stroke-width:12; stroke-opacity:1; fill:none" stroke-dasharray="48, 30" points="309.018,1367 445.267,1056.48 581.516,976.021 717.766,939.082 854.015,917.888 990.264,904.154 1126.51,894.541 1262.76,887.447 1399.01,882.003 1535.26,877.703 1671.51,874.226 1807.76,871.364 1944.01,868.974 2080.26,866.953 2216.51,865.229 2352.76,865.488 "/>
<polyline clip-path="url(#clip373)" style="stroke:#00a98d; stroke-linecap:round; stroke-linejoin:round; stroke-width:12; stroke-opacity:1; fill:none" stroke-dasharray="48, 30" points="309.018,1367 445.267,1055.19 581.516,974.372 717.766,937.484 854.015,915.981 990.264,902.234 1126.51,892.701 1262.76,885.65 1399.01,880.182 1535.26,875.804 1671.51,872.22 1807.76,869.243 1944.01,866.739 2080.26,864.607 2216.51,862.775 2352.76,862.75 "/>
<polyline clip-path="url(#clip373)" style="stroke:#8e971d; stroke-linecap:round; stroke-linejoin:round; stroke-width:12; stroke-opacity:1; fill:none" stroke-dasharray="48, 30" points="309.018,1367 445.267,1055.14 581.516,974.308 717.766,937.448 854.015,915.931 990.264,902.18 1126.51,892.653 1262.76,885.611 1399.01,880.16 1535.26,875.793 1671.51,872.212 1807.76,869.234 1944.01,866.728 2080.26,864.598 2216.51,862.766 2352.76,862.742 "/>
<polyline clip-path="url(#clip373)" style="stroke:#00a8cb; stroke-linecap:round; stroke-linejoin:round; stroke-width:12; stroke-opacity:1; fill:none" stroke-dasharray="48, 30" points="309.018,1367 445.267,1055.14 581.516,974.301 717.766,937.444 854.015,915.927 990.264,902.177 1126.51,892.651 1262.76,885.609 1399.01,880.159 1535.26,875.792 1671.51,872.211 1807.76,869.233 1944.01,866.728 2080.26,864.597 2216.51,862.766 2352.76,862.742 "/>
<polyline clip-path="url(#clip373)" style="stroke:#9b7fe8; stroke-linecap:round; stroke-linejoin:round; stroke-width:12; stroke-opacity:1; fill:none" stroke-dasharray="48, 30" points="309.018,1367 445.267,1055.04 581.516,974.292 717.766,936.916 854.015,915.882 990.264,902.258 1126.51,892.559 1262.76,885.331 1399.01,879.797 1535.26,875.438 1671.51,871.916 1807.76,869.009 1944.01,866.568 2080.26,864.487 2216.51,862.691 2352.76,862.688 "/>
</svg>
