<?xml version="1.0" encoding="utf-8"?>
<svg xmlns="http://www.w3.org/2000/svg" xmlns:xlink="http://www.w3.org/1999/xlink" width="600" height="400" viewBox="0 0 2400 1600">
<defs>
  <clipPath id="clip840">
    <rect x="0" y="0" width="2400" height="1600"/>
  </clipPath>
</defs>
<path clip-path="url(#clip840)" d="M0 1600 L2400 1600 L2400 0 L0 0  Z" fill="#ffffff" fill-rule="evenodd" fill-opacity="1"/>
<defs>
  <clipPath id="clip841">
    <rect x="480" y="0" width="1681" height="1600"/>
  </clipPath>
</defs>
<path clip-path="url(#clip840)" d="M243.775 592.94 L2352.76 592.94 L2352.76 47.2441 L243.775 47.2441  Z" fill="#ffffff" fill-rule="evenodd" fill-opacity="1"/>
<defs>
  <clipPath id="clip842">
    <rect x="243" y="47" width="2110" height="547"/>
  </clipPath>
</defs>
<polyline clip-path="url(#clip840)" style="stroke:#000000; stroke-linecap:round; stroke-linejoin:round; stroke-width:4; stroke-opacity:1; fill:none" points="243.775,592.94 2352.76,592.94 "/>
<polyline clip-path="url(#clip840)" style="stroke:#000000; stroke-linecap:round; stroke-linejoin:round; stroke-width:4; stroke-opacity:1; fill:none" points="303.463,592.94 303.463,574.042 "/>
<polyline clip-path="url(#clip840)" style="stroke:#000000; stroke-linecap:round; stroke-linejoin:round; stroke-width:4; stroke-opacity:1; fill:none" points="966.665,592.94 966.665,574.042 "/>
<polyline clip-path="url(#clip840)" style="stroke:#000000; stroke-linecap:round; stroke-linejoin:round; stroke-width:4; stroke-opacity:1; fill:none" points="1629.87,592.94 1629.87,574.042 "/>
<polyline clip-path="url(#clip840)" style="stroke:#000000; stroke-linecap:round; stroke-linejoin:round; stroke-width:4; stroke-opacity:1; fill:none" points="2293.07,592.94 2293.07,574.042 "/>
<path clip-path="url(#clip840)" d="M303.463 629.718 Q298.047 629.718 295.304 635.065 Q292.595 640.378 292.595 651.072 Q292.595 661.732 295.304 667.079 Q298.047 672.391 303.463 672.391 Q308.915 672.391 311.623 667.079 Q314.366 661.732 314.366 651.072 Q314.366 640.378 311.623 635.065 Q308.915 629.718 303.463 629.718 M303.463 624.162 Q312.179 624.162 316.762 631.072 Q321.38 637.947 321.38 651.072 Q321.38 664.162 316.762 671.072 Q312.179 677.947 303.463 677.947 Q294.748 677.947 290.13 671.072 Q285.547 664.162 285.547 651.072 Q285.547 637.947 290.13 631.072 Q294.748 624.162 303.463 624.162 Z" fill="#000000" fill-rule="nonzero" fill-opacity="1" /><path clip-path="url(#clip840)" d="M952.082 625.1 L979.616 625.1 L979.616 631.003 L958.505 631.003 L958.505 643.711 Q960.033 643.19 961.561 642.947 Q963.088 642.669 964.616 642.669 Q973.297 642.669 978.366 647.426 Q983.436 652.183 983.436 660.308 Q983.436 668.676 978.227 673.329 Q973.019 677.947 963.54 677.947 Q960.276 677.947 956.873 677.391 Q953.505 676.836 949.894 675.725 L949.894 668.676 Q953.019 670.377 956.352 671.211 Q959.686 672.044 963.401 672.044 Q969.408 672.044 972.915 668.884 Q976.422 665.725 976.422 660.308 Q976.422 654.891 972.915 651.732 Q969.408 648.572 963.401 648.572 Q960.589 648.572 957.776 649.197 Q954.998 649.822 952.082 651.141 L952.082 625.1 Z" fill="#000000" fill-rule="nonzero" fill-opacity="1" /><path clip-path="url(#clip840)" d="M1591.9 671.037 L1603.36 671.037 L1603.36 631.489 L1590.89 633.989 L1590.89 627.6 L1603.29 625.1 L1610.3 625.1 L1610.3 671.037 L1621.76 671.037 L1621.76 676.94 L1591.9 676.94 L1591.9 671.037 Z" fill="#000000" fill-rule="nonzero" fill-opacity="1" /><path clip-path="url(#clip840)" d="M1650.93 629.718 Q1645.51 629.718 1642.77 635.065 Q1640.06 640.378 1640.06 651.072 Q1640.06 661.732 1642.77 667.079 Q1645.51 672.391 1650.93 672.391 Q1656.38 672.391 1659.08 667.079 Q1661.83 661.732 1661.83 651.072 Q1661.83 640.378 1659.08 635.065 Q1656.38 629.718 1650.93 629.718 M1650.93 624.162 Q1659.64 624.162 1664.22 631.072 Q1668.84 637.947 1668.84 651.072 Q1668.84 664.162 1664.22 671.072 Q1659.64 677.947 1650.93 677.947 Q1642.21 677.947 1637.59 671.072 Q1633.01 664.162 1633.01 651.072 Q1633.01 637.947 1637.59 631.072 Q1642.21 624.162 1650.93 624.162 Z" fill="#000000" fill-rule="nonzero" fill-opacity="1" /><path clip-path="url(#clip840)" d="M2255.85 671.037 L2267.3 671.037 L2267.3 631.489 L2254.84 633.989 L2254.84 627.6 L2267.23 625.1 L2274.25 625.1 L2274.25 671.037 L2285.71 671.037 L2285.71 676.94 L2255.85 676.94 L2255.85 671.037 Z" fill="#000000" fill-rule="nonzero" fill-opacity="1" /><path clip-path="url(#clip840)" d="M2299.94 625.1 L2327.48 625.1 L2327.48 631.003 L2306.37 631.003 L2306.37 643.711 Q2307.89 643.19 2309.42 642.947 Q2310.95 642.669 2312.48 642.669 Q2321.16 642.669 2326.23 647.426 Q2331.3 652.183 2331.3 660.308 Q2331.3 668.676 2326.09 673.329 Q2320.88 677.947 2311.4 677.947 Q2308.14 677.947 2304.73 677.391 Q2301.37 676.836 2297.76 675.725 L2297.76 668.676 Q2300.88 670.377 2304.21 671.211 Q2307.55 672.044 2311.26 672.044 Q2317.27 672.044 2320.78 668.884 Q2324.28 665.725 2324.28 660.308 Q2324.28 654.891 2320.78 651.732 Q2317.27 648.572 2311.26 648.572 Q2308.45 648.572 2305.64 649.197 Q2302.86 649.822 2299.94 651.141 L2299.94 625.1 Z" fill="#000000" fill-rule="nonzero" fill-opacity="1" /><path clip-path="url(#clip840)" d="M1240.99 721.024 L1240.99 733.906 L1256.34 733.906 L1256.34 739.699 L1240.99 739.699 L1240.99 764.328 Q1240.99 769.878 1242.48 771.458 Q1244.02 773.037 1248.68 773.037 L1256.34 773.037 L1256.34 779.276 L1248.68 779.276 Q1240.05 779.276 1236.77 776.076 Q1233.49 772.835 1233.49 764.328 L1233.49 739.699 L1228.02 739.699 L1228.02 733.906 L1233.49 733.906 L1233.49 721.024 L1240.99 721.024 Z" fill="#000000" fill-rule="nonzero" fill-opacity="1" /><path clip-path="url(#clip840)" d="M1284.05 716.325 Q1278.62 725.642 1275.99 734.756 Q1273.35 743.871 1273.35 753.229 Q1273.35 762.586 1275.99 771.782 Q1278.66 780.937 1284.05 790.213 L1277.57 790.213 Q1271.49 780.694 1268.45 771.498 Q1265.45 762.303 1265.45 753.229 Q1265.45 744.195 1268.45 735.04 Q1271.45 725.885 1277.57 716.325 L1284.05 716.325 Z" fill="#000000" fill-rule="nonzero" fill-opacity="1" /><path clip-path="url(#clip840)" d="M1336.22 751.892 L1336.22 779.276 L1328.77 779.276 L1328.77 752.135 Q1328.77 745.694 1326.26 742.494 Q1323.75 739.293 1318.72 739.293 Q1312.69 739.293 1309.2 743.142 Q1305.72 746.99 1305.72 753.634 L1305.72 779.276 L1298.23 779.276 L1298.23 716.244 L1305.72 716.244 L1305.72 740.954 Q1308.39 736.863 1312 734.837 Q1315.64 732.812 1320.38 732.812 Q1328.2 732.812 1332.21 737.673 Q1336.22 742.494 1336.22 751.892 Z" fill="#000000" fill-rule="nonzero" fill-opacity="1" /><path clip-path="url(#clip840)" d="M1349.91 716.325 L1356.4 716.325 Q1362.47 725.885 1365.47 735.04 Q1368.51 744.195 1368.51 753.229 Q1368.51 762.303 1365.47 771.498 Q1362.47 780.694 1356.4 790.213 L1349.91 790.213 Q1355.3 780.937 1357.94 771.782 Q1360.61 762.586 1360.61 753.229 Q1360.61 743.871 1357.94 734.756 Q1355.3 725.642 1349.91 716.325 Z" fill="#000000" fill-rule="nonzero" fill-opacity="1" /><polyline clip-path="url(#clip840)" style="stroke:#000000; stroke-linecap:round; stroke-linejoin:round; stroke-width:4; stroke-opacity:1; fill:none" points="243.775,592.94 243.775,47.2441 "/>
<polyline clip-path="url(#clip840)" style="stroke:#000000; stroke-linecap:round; stroke-linejoin:round; stroke-width:4; stroke-opacity:1; fill:none" points="243.775,577.615 262.673,577.615 "/>
<polyline clip-path="url(#clip840)" style="stroke:#000000; stroke-linecap:round; stroke-linejoin:round; stroke-width:4; stroke-opacity:1; fill:none" points="243.775,467.356 262.673,467.356 "/>
<polyline clip-path="url(#clip840)" style="stroke:#000000; stroke-linecap:round; stroke-linejoin:round; stroke-width:4; stroke-opacity:1; fill:none" points="243.775,357.097 262.673,357.097 "/>
<polyline clip-path="url(#clip840)" style="stroke:#000000; stroke-linecap:round; stroke-linejoin:round; stroke-width:4; stroke-opacity:1; fill:none" points="243.775,246.837 262.673,246.837 "/>
<polyline clip-path="url(#clip840)" style="stroke:#000000; stroke-linecap:round; stroke-linejoin:round; stroke-width:4; stroke-opacity:1; fill:none" points="243.775,136.578 262.673,136.578 "/>
<path clip-path="url(#clip840)" d="M189.859 556.313 Q184.442 556.313 181.699 561.66 Q178.991 566.973 178.991 577.667 Q178.991 588.327 181.699 593.674 Q184.442 598.986 189.859 598.986 Q195.31 598.986 198.018 593.674 Q200.761 588.327 200.761 577.667 Q200.761 566.973 198.018 561.66 Q195.31 556.313 189.859 556.313 M189.859 550.758 Q198.574 550.758 203.157 557.667 Q207.775 564.542 207.775 577.667 Q207.775 590.757 203.157 597.667 Q198.574 604.542 189.859 604.542 Q181.143 604.542 176.525 597.667 Q171.942 590.757 171.942 577.667 Q171.942 564.542 176.525 557.667 Q181.143 550.758 189.859 550.758 Z" fill="#000000" fill-rule="nonzero" fill-opacity="1" /><path clip-path="url(#clip840)" d="M183.296 487.373 L207.775 487.373 L207.775 493.276 L174.859 493.276 L174.859 487.373 Q178.852 483.241 185.727 476.297 Q192.636 469.318 194.407 467.304 Q197.775 463.519 199.095 460.915 Q200.449 458.276 200.449 455.741 Q200.449 451.609 197.532 449.005 Q194.65 446.401 189.998 446.401 Q186.699 446.401 183.018 447.547 Q179.373 448.693 175.206 451.019 L175.206 443.936 Q179.442 442.234 183.123 441.366 Q186.803 440.498 189.859 440.498 Q197.914 440.498 202.706 444.526 Q207.498 448.554 207.498 455.29 Q207.498 458.484 206.282 461.366 Q205.102 464.213 201.942 468.102 Q201.074 469.109 196.421 473.936 Q191.768 478.727 183.296 487.373 Z" fill="#000000" fill-rule="nonzero" fill-opacity="1" /><path clip-path="url(#clip840)" d="M193.4 337.288 L175.692 364.961 L193.4 364.961 L193.4 337.288 M191.56 331.177 L200.379 331.177 L200.379 364.961 L207.775 364.961 L207.775 370.794 L200.379 370.794 L200.379 383.017 L193.4 383.017 L193.4 370.794 L169.998 370.794 L169.998 364.024 L191.56 331.177 Z" fill="#000000" fill-rule="nonzero" fill-opacity="1" /><path clip-path="url(#clip840)" d="M190.484 244.042 Q185.762 244.042 182.984 247.271 Q180.241 250.501 180.241 256.126 Q180.241 261.716 182.984 264.98 Q185.762 268.209 190.484 268.209 Q195.206 268.209 197.949 264.98 Q200.727 261.716 200.727 256.126 Q200.727 250.501 197.949 247.271 Q195.206 244.042 190.484 244.042 M204.407 222.063 L204.407 228.452 Q201.768 227.202 199.06 226.542 Q196.386 225.883 193.748 225.883 Q186.803 225.883 183.123 230.57 Q179.477 235.258 178.956 244.737 Q181.005 241.716 184.095 240.119 Q187.185 238.487 190.9 238.487 Q198.713 238.487 203.227 243.244 Q207.775 247.966 207.775 256.126 Q207.775 264.112 203.053 268.938 Q198.331 273.764 190.484 273.764 Q181.491 273.764 176.734 266.889 Q171.977 259.98 171.977 246.89 Q171.977 234.598 177.81 227.306 Q183.643 219.98 193.47 219.98 Q196.109 219.98 198.782 220.501 Q201.491 221.022 204.407 222.063 Z" fill="#000000" fill-rule="nonzero" fill-opacity="1" /><path clip-path="url(#clip840)" d="M189.998 137.88 Q184.998 137.88 182.116 140.554 Q179.268 143.228 179.268 147.915 Q179.268 152.602 182.116 155.276 Q184.998 157.95 189.998 157.95 Q194.998 157.95 197.88 155.276 Q200.761 152.568 200.761 147.915 Q200.761 143.228 197.88 140.554 Q195.032 137.88 189.998 137.88 M182.984 134.894 Q178.47 133.783 175.935 130.693 Q173.435 127.603 173.435 123.158 Q173.435 116.943 177.845 113.332 Q182.289 109.721 189.998 109.721 Q197.741 109.721 202.15 113.332 Q206.56 116.943 206.56 123.158 Q206.56 127.603 204.025 130.693 Q201.525 133.783 197.046 134.894 Q202.116 136.075 204.928 139.512 Q207.775 142.95 207.775 147.915 Q207.775 155.45 203.157 159.477 Q198.574 163.505 189.998 163.505 Q181.421 163.505 176.803 159.477 Q172.22 155.45 172.22 147.915 Q172.22 142.95 175.067 139.512 Q177.914 136.075 182.984 134.894 M180.414 123.818 Q180.414 127.846 182.914 130.103 Q185.449 132.36 189.998 132.36 Q194.511 132.36 197.046 130.103 Q199.616 127.846 199.616 123.818 Q199.616 119.79 197.046 117.533 Q194.511 115.276 189.998 115.276 Q185.449 115.276 182.914 117.533 Q180.414 119.79 180.414 123.818 Z" fill="#000000" fill-rule="nonzero" fill-opacity="1" /><path clip-path="url(#clip840)" d="M60.9234 452.374 Q60.9234 461.286 67.5669 466.552 Q74.2104 471.778 85.6745 471.778 Q97.098 471.778 103.742 466.552 Q110.385 461.286 110.385 452.374 Q110.385 443.462 103.742 438.277 Q97.098 433.051 85.6745 433.051 Q74.2104 433.051 67.5669 438.277 Q60.9234 443.462 60.9234 452.374 M114.76 440.91 L126.548 430.135 L126.548 440.019 L116.866 448.971 Q116.947 450.308 116.988 451.037 Q117.028 451.726 117.028 452.374 Q117.028 465.135 108.522 472.791 Q99.9742 480.407 85.6745 480.407 Q71.3343 480.407 62.8274 472.791 Q54.28 465.135 54.28 452.374 Q54.28 439.654 62.8274 432.039 Q71.3343 424.423 85.6745 424.423 Q96.2068 424.423 103.701 428.676 Q111.195 432.889 114.76 440.91 Z" fill="#000000" fill-rule="nonzero" fill-opacity="1" /><path clip-path="url(#clip840)" d="M70.4836 411.946 L70.4836 404.493 L115.854 404.493 L115.854 411.946 L70.4836 411.946 M52.8216 411.946 L52.8216 404.493 L62.2602 404.493 L62.2602 411.946 L52.8216 411.946 Z" fill="#000000" fill-rule="nonzero" fill-opacity="1" /><path clip-path="url(#clip840)" d="M88.4696 351.183 L115.854 351.183 L115.854 358.636 L88.7126 358.636 Q82.2717 358.636 79.0715 361.148 Q75.8713 363.659 75.8713 368.683 Q75.8713 374.718 79.7196 378.202 Q83.568 381.686 90.2115 381.686 L115.854 381.686 L115.854 389.18 L70.4836 389.18 L70.4836 381.686 L77.5322 381.686 Q73.4407 379.012 71.4153 375.407 Q69.3898 371.761 69.3898 367.022 Q69.3898 359.203 74.2509 355.193 Q79.0715 351.183 88.4696 351.183 Z" fill="#000000" fill-rule="nonzero" fill-opacity="1" /><path clip-path="url(#clip840)" d="M52.9027 318.411 Q62.2197 323.839 71.3343 326.472 Q80.4488 329.105 89.8064 329.105 Q99.164 329.105 108.36 326.472 Q117.515 323.799 126.791 318.411 L126.791 324.892 Q117.272 330.969 108.076 334.007 Q98.8804 337.004 89.8064 337.004 Q80.7729 337.004 71.6178 334.007 Q62.4628 331.009 52.9027 324.892 L52.9027 318.411 Z" fill="#000000" fill-rule="nonzero" fill-opacity="1" /><path clip-path="url(#clip840)" d="M55.3737 303.625 L55.3737 295.442 L108.967 295.442 L108.967 265.992 L115.854 265.992 L115.854 303.625 L55.3737 303.625 Z" fill="#000000" fill-rule="nonzero" fill-opacity="1" /><path clip-path="url(#clip840)" d="M55.3737 244.482 L55.3737 237.595 L123.55 258.66 L123.55 265.547 L55.3737 244.482 Z" fill="#000000" fill-rule="nonzero" fill-opacity="1" /><path clip-path="url(#clip840)" d="M88.4696 192.063 L115.854 192.063 L115.854 199.517 L88.7126 199.517 Q82.2717 199.517 79.0715 202.028 Q75.8713 204.54 75.8713 209.563 Q75.8713 215.599 79.7196 219.083 Q83.568 222.566 90.2115 222.566 L115.854 222.566 L115.854 230.061 L52.8216 230.061 L52.8216 222.566 L77.5322 222.566 Q73.4407 219.893 71.4153 216.288 Q69.3898 212.642 69.3898 207.902 Q69.3898 200.084 74.2509 196.074 Q79.0715 192.063 88.4696 192.063 Z" fill="#000000" fill-rule="nonzero" fill-opacity="1" /><path clip-path="url(#clip840)" d="M52.9027 178.371 L52.9027 171.89 Q62.4628 165.813 71.6178 162.816 Q80.7729 159.777 89.8064 159.777 Q98.8804 159.777 108.076 162.816 Q117.272 165.813 126.791 171.89 L126.791 178.371 Q117.515 172.983 108.36 170.35 Q99.164 167.677 89.8064 167.677 Q80.4488 167.677 71.3343 170.35 Q62.2197 172.983 52.9027 178.371 Z" fill="#000000" fill-rule="nonzero" fill-opacity="1" /><polyline clip-path="url(#clip842)" style="stroke:#000000; stroke-linecap:round; stroke-linejoin:round; stroke-width:12; stroke-opacity:1; fill:none" points="303.463,472.021 436.104,472.021 436.104,574.342 568.744,574.342 568.744,577.196 701.384,577.196 701.384,575.598 834.025,575.598 834.025,556.221 966.665,556.221 966.665,546.222 1099.31,546.222 1099.31,529.983 1231.95,529.983 1231.95,510.625 1364.59,510.625 1364.59,458.111 1497.23,458.111 1497.23,438.779 1629.87,438.779 1629.87,369.512 1762.51,369.512 1762.51,203.188 1895.15,203.188 1895.15,62.6883 2027.79,62.6883 2027.79,277.036 2160.43,277.036 2160.43,577.496 2293.07,577.496 "/>
<path clip-path="url(#clip840)" d="M243.775 1392.94 L2352.76 1392.94 L2352.76 847.244 L243.775 847.244  Z" fill="#ffffff" fill-rule="evenodd" fill-opacity="1"/>
<defs>
  <clipPath id="clip843">
    <rect x="243" y="847" width="2110" height="547"/>
  </clipPath>
</defs>
<polyline clip-path="url(#clip840)" style="stroke:#000000; stroke-linecap:round; stroke-linejoin:round; stroke-width:4; stroke-opacity:1; fill:none" points="243.775,1392.94 2352.76,1392.94 "/>
<polyline clip-path="url(#clip840)" style="stroke:#000000; stroke-linecap:round; stroke-linejoin:round; stroke-width:4; stroke-opacity:1; fill:none" points="243.775,1392.94 243.775,1374.04 "/>
<polyline clip-path="url(#clip840)" style="stroke:#000000; stroke-linecap:round; stroke-linejoin:round; stroke-width:4; stroke-opacity:1; fill:none" points="946.769,1392.94 946.769,1374.04 "/>
<polyline clip-path="url(#clip840)" style="stroke:#000000; stroke-linecap:round; stroke-linejoin:round; stroke-width:4; stroke-opacity:1; fill:none" points="1649.76,1392.94 1649.76,1374.04 "/>
<polyline clip-path="url(#clip840)" style="stroke:#000000; stroke-linecap:round; stroke-linejoin:round; stroke-width:4; stroke-opacity:1; fill:none" points="2352.76,1392.94 2352.76,1374.04 "/>
<path clip-path="url(#clip840)" d="M243.775 1429.72 Q238.359 1429.72 235.616 1435.07 Q232.907 1440.38 232.907 1451.07 Q232.907 1461.73 235.616 1467.08 Q238.359 1472.39 243.775 1472.39 Q249.227 1472.39 251.935 1467.08 Q254.678 1461.73 254.678 1451.07 Q254.678 1440.38 251.935 1435.07 Q249.227 1429.72 243.775 1429.72 M243.775 1424.16 Q252.491 1424.16 257.074 1431.07 Q261.692 1437.95 261.692 1451.07 Q261.692 1464.16 257.074 1471.07 Q252.491 1477.95 243.775 1477.95 Q235.06 1477.95 230.442 1471.07 Q225.859 1464.16 225.859 1451.07 Q225.859 1437.95 230.442 1431.07 Q235.06 1424.16 243.775 1424.16 Z" fill="#000000" fill-rule="nonzero" fill-opacity="1" /><path clip-path="url(#clip840)" d="M932.186 1425.1 L959.72 1425.1 L959.72 1431 L938.609 1431 L938.609 1443.71 Q940.137 1443.19 941.665 1442.95 Q943.192 1442.67 944.72 1442.67 Q953.401 1442.67 958.47 1447.43 Q963.54 1452.18 963.54 1460.31 Q963.54 1468.68 958.331 1473.33 Q953.123 1477.95 943.644 1477.95 Q940.38 1477.95 936.977 1477.39 Q933.609 1476.84 929.998 1475.72 L929.998 1468.68 Q933.123 1470.38 936.456 1471.21 Q939.79 1472.04 943.505 1472.04 Q949.512 1472.04 953.019 1468.88 Q956.526 1465.72 956.526 1460.31 Q956.526 1454.89 953.019 1451.73 Q949.512 1448.57 943.505 1448.57 Q940.692 1448.57 937.88 1449.2 Q935.102 1449.82 932.186 1451.14 L932.186 1425.1 Z" fill="#000000" fill-rule="nonzero" fill-opacity="1" /><path clip-path="url(#clip840)" d="M1611.79 1471.04 L1623.25 1471.04 L1623.25 1431.49 L1610.79 1433.99 L1610.79 1427.6 L1623.18 1425.1 L1630.2 1425.1 L1630.2 1471.04 L1641.65 1471.04 L1641.65 1476.94 L1611.79 1476.94 L1611.79 1471.04 Z" fill="#000000" fill-rule="nonzero" fill-opacity="1" /><path clip-path="url(#clip840)" d="M1670.82 1429.72 Q1665.4 1429.72 1662.66 1435.07 Q1659.95 1440.38 1659.95 1451.07 Q1659.95 1461.73 1662.66 1467.08 Q1665.4 1472.39 1670.82 1472.39 Q1676.27 1472.39 1678.98 1467.08 Q1681.72 1461.73 1681.72 1451.07 Q1681.72 1440.38 1678.98 1435.07 Q1676.27 1429.72 1670.82 1429.72 M1670.82 1424.16 Q1679.54 1424.16 1684.12 1431.07 Q1688.74 1437.95 1688.74 1451.07 Q1688.74 1464.16 1684.12 1471.07 Q1679.54 1477.95 1670.82 1477.95 Q1662.11 1477.95 1657.49 1471.07 Q1652.9 1464.16 1652.9 1451.07 Q1652.9 1437.95 1657.49 1431.07 Q1662.11 1424.16 1670.82 1424.16 Z" fill="#000000" fill-rule="nonzero" fill-opacity="1" /><path clip-path="url(#clip840)" d="M2315.53 1471.04 L2326.99 1471.04 L2326.99 1431.49 L2314.53 1433.99 L2314.53 1427.6 L2326.92 1425.1 L2333.94 1425.1 L2333.94 1471.04 L2345.39 1471.04 L2345.39 1476.94 L2315.53 1476.94 L2315.53 1471.04 Z" fill="#000000" fill-rule="nonzero" fill-opacity="1" /><path clip-path="url(#clip840)" d="M2359.63 1425.1 L2387.17 1425.1 L2387.17 1431 L2366.05 1431 L2366.05 1443.71 Q2367.58 1443.19 2369.11 1442.95 Q2370.64 1442.67 2372.17 1442.67 Q2380.85 1442.67 2385.92 1447.43 Q2390.98 1452.18 2390.98 1460.31 Q2390.98 1468.68 2385.78 1473.33 Q2380.57 1477.95 2371.09 1477.95 Q2367.83 1477.95 2364.42 1477.39 Q2361.05 1476.84 2357.44 1475.72 L2357.44 1468.68 Q2360.57 1470.38 2363.9 1471.21 Q2367.23 1472.04 2370.95 1472.04 Q2376.96 1472.04 2380.46 1468.88 Q2383.97 1465.72 2383.97 1460.31 Q2383.97 1454.89 2380.46 1451.73 Q2376.96 1448.57 2370.95 1448.57 Q2368.14 1448.57 2365.33 1449.2 Q2362.55 1449.82 2359.63 1451.14 L2359.63 1425.1 Z" fill="#000000" fill-rule="nonzero" fill-opacity="1" /><path clip-path="url(#clip840)" d="M1240.99 1521.02 L1240.99 1533.91 L1256.34 1533.91 L1256.34 1539.7 L1240.99 1539.7 L1240.99 1564.33 Q1240.99 1569.88 1242.48 1571.46 Q1244.02 1573.04 1248.68 1573.04 L1256.34 1573.04 L1256.34 1579.28 L1248.68 1579.28 Q1240.05 1579.28 1236.77 1576.08 Q1233.49 1572.83 1233.49 1564.33 L1233.49 1539.7 L1228.02 1539.7 L1228.02 1533.91 L1233.49 1533.91 L1233.49 1521.02 L1240.99 1521.02 Z" fill="#000000" fill-rule="nonzero" fill-opacity="1" /><path clip-path="url(#clip840)" d="M1284.05 1516.32 Q1278.62 1525.64 1275.99 1534.76 Q1273.35 1543.87 1273.35 1553.23 Q1273.35 1562.59 1275.99 1571.78 Q1278.66 1580.94 1284.05 1590.21 L1277.57 1590.21 Q1271.49 1580.69 1268.45 1571.5 Q1265.45 1562.3 1265.45 1553.23 Q1265.45 1544.2 1268.45 1535.04 Q1271.45 1525.88 1277.57 1516.32 L1284.05 1516.32 Z" fill="#000000" fill-rule="nonzero" fill-opacity="1" /><path clip-path="url(#clip840)" d="M1336.22 1551.89 L1336.22 1579.28 L1328.77 1579.28 L1328.77 1552.13 Q1328.77 1545.69 1326.26 1542.49 Q1323.75 1539.29 1318.72 1539.29 Q1312.69 1539.29 1309.2 1543.14 Q1305.72 1546.99 1305.72 1553.63 L1305.72 1579.28 L1298.23 1579.28 L1298.23 1516.24 L1305.72 1516.24 L1305.72 1540.95 Q1308.39 1536.86 1312 1534.84 Q1315.64 1532.81 1320.38 1532.81 Q1328.2 1532.81 1332.21 1537.67 Q1336.22 1542.49 1336.22 1551.89 Z" fill="#000000" fill-rule="nonzero" fill-opacity="1" /><path clip-path="url(#clip840)" d="M1349.91 1516.32 L1356.4 1516.32 Q1362.47 1525.88 1365.47 1535.04 Q1368.51 1544.2 1368.51 1553.23 Q1368.51 1562.3 1365.47 1571.5 Q1362.47 1580.69 1356.4 1590.21 L1349.91 1590.21 Q1355.3 1580.94 1357.94 1571.78 Q1360.61 1562.59 1360.61 1553.23 Q1360.61 1543.87 1357.94 1534.76 Q1355.3 1525.64 1349.91 1516.32 Z" fill="#000000" fill-rule="nonzero" fill-opacity="1" /><polyline clip-path="url(#clip840)" style="stroke:#000000; stroke-linecap:round; stroke-linejoin:round; stroke-width:4; stroke-opacity:1; fill:none" points="243.775,1392.94 243.775,847.244 "/>
<polyline clip-path="url(#clip840)" style="stroke:#000000; stroke-linecap:round; stroke-linejoin:round; stroke-width:4; stroke-opacity:1; fill:none" points="243.775,1378.4 262.673,1378.4 "/>
<polyline clip-path="url(#clip840)" style="stroke:#000000; stroke-linecap:round; stroke-linejoin:round; stroke-width:4; stroke-opacity:1; fill:none" points="243.775,1245.31 262.673,1245.31 "/>
<polyline clip-path="url(#clip840)" style="stroke:#000000; stroke-linecap:round; stroke-linejoin:round; stroke-width:4; stroke-opacity:1; fill:none" points="243.775,1112.23 262.673,1112.23 "/>
<polyline clip-path="url(#clip840)" style="stroke:#000000; stroke-linecap:round; stroke-linejoin:round; stroke-width:4; stroke-opacity:1; fill:none" points="243.775,979.142 262.673,979.142 "/>
<path clip-path="url(#clip840)" d="M189.859 1357.1 Q184.442 1357.1 181.699 1362.44 Q178.991 1367.76 178.991 1378.45 Q178.991 1389.11 181.699 1394.46 Q184.442 1399.77 189.859 1399.77 Q195.31 1399.77 198.018 1394.46 Q200.761 1389.11 200.761 1378.45 Q200.761 1367.76 198.018 1362.44 Q195.31 1357.1 189.859 1357.1 M189.859 1351.54 Q198.574 1351.54 203.157 1358.45 Q207.775 1365.33 207.775 1378.45 Q207.775 1391.54 203.157 1398.45 Q198.574 1405.33 189.859 1405.33 Q181.143 1405.33 176.525 1398.45 Q171.942 1391.54 171.942 1378.45 Q171.942 1365.33 176.525 1358.45 Q181.143 1351.54 189.859 1351.54 Z" fill="#000000" fill-rule="nonzero" fill-opacity="1" /><path clip-path="url(#clip840)" d="M130.831 1265.33 L142.29 1265.33 L142.29 1225.78 L129.824 1228.28 L129.824 1221.89 L142.22 1219.39 L149.234 1219.39 L149.234 1265.33 L160.692 1265.33 L160.692 1271.23 L130.831 1271.23 L130.831 1265.33 Z" fill="#000000" fill-rule="nonzero" fill-opacity="1" /><path clip-path="url(#clip840)" d="M189.859 1224.01 Q184.442 1224.01 181.699 1229.36 Q178.991 1234.67 178.991 1245.37 Q178.991 1256.03 181.699 1261.37 Q184.442 1266.68 189.859 1266.68 Q195.31 1266.68 198.018 1261.37 Q200.761 1256.03 200.761 1245.37 Q200.761 1234.67 198.018 1229.36 Q195.31 1224.01 189.859 1224.01 M189.859 1218.46 Q198.574 1218.46 203.157 1225.37 Q207.775 1232.24 207.775 1245.37 Q207.775 1258.46 203.157 1265.37 Q198.574 1272.24 189.859 1272.24 Q181.143 1272.24 176.525 1265.37 Q171.942 1258.46 171.942 1245.37 Q171.942 1232.24 176.525 1225.37 Q181.143 1218.46 189.859 1218.46 Z" fill="#000000" fill-rule="nonzero" fill-opacity="1" /><path clip-path="url(#clip840)" d="M135.658 1132.24 L160.137 1132.24 L160.137 1138.15 L127.22 1138.15 L127.22 1132.24 Q131.213 1128.11 138.088 1121.17 Q144.998 1114.19 146.769 1112.18 Q150.137 1108.39 151.456 1105.79 Q152.81 1103.15 152.81 1100.61 Q152.81 1096.48 149.894 1093.88 Q147.012 1091.27 142.359 1091.27 Q139.06 1091.27 135.38 1092.42 Q131.734 1093.56 127.567 1095.89 L127.567 1088.81 Q131.803 1087.11 135.484 1086.24 Q139.165 1085.37 142.22 1085.37 Q150.276 1085.37 155.067 1089.4 Q159.859 1093.43 159.859 1100.16 Q159.859 1103.36 158.644 1106.24 Q157.463 1109.09 154.303 1112.97 Q153.435 1113.98 148.783 1118.81 Q144.13 1123.6 135.658 1132.24 Z" fill="#000000" fill-rule="nonzero" fill-opacity="1" /><path clip-path="url(#clip840)" d="M189.859 1090.93 Q184.442 1090.93 181.699 1096.27 Q178.991 1101.59 178.991 1112.28 Q178.991 1122.94 181.699 1128.29 Q184.442 1133.6 189.859 1133.6 Q195.31 1133.6 198.018 1128.29 Q200.761 1122.94 200.761 1112.28 Q200.761 1101.59 198.018 1096.27 Q195.31 1090.93 189.859 1090.93 M189.859 1085.37 Q198.574 1085.37 203.157 1092.28 Q207.775 1099.15 207.775 1112.28 Q207.775 1125.37 203.157 1132.28 Q198.574 1139.15 189.859 1139.15 Q181.143 1139.15 176.525 1132.28 Q171.942 1125.37 171.942 1112.28 Q171.942 1099.15 176.525 1092.28 Q181.143 1085.37 189.859 1085.37 Z" fill="#000000" fill-rule="nonzero" fill-opacity="1" /><path clip-path="url(#clip840)" d="M150.866 977.111 Q155.901 978.187 158.713 981.59 Q161.56 984.993 161.56 989.993 Q161.56 997.666 156.283 1001.87 Q151.005 1006.07 141.283 1006.07 Q138.019 1006.07 134.547 1005.41 Q131.109 1004.78 127.428 1003.5 L127.428 996.729 Q130.345 998.43 133.817 999.298 Q137.29 1000.17 141.074 1000.17 Q147.671 1000.17 151.109 997.562 Q154.581 994.958 154.581 989.993 Q154.581 985.409 151.352 982.84 Q148.158 980.236 142.428 980.236 L136.387 980.236 L136.387 974.472 L142.706 974.472 Q147.88 974.472 150.623 972.423 Q153.366 970.34 153.366 966.451 Q153.366 962.458 150.519 960.34 Q147.706 958.187 142.428 958.187 Q139.546 958.187 136.248 958.812 Q132.949 959.437 128.991 960.757 L128.991 954.507 Q132.984 953.396 136.456 952.84 Q139.963 952.284 143.053 952.284 Q151.039 952.284 155.692 955.93 Q160.345 959.541 160.345 965.722 Q160.345 970.027 157.88 973.014 Q155.414 975.965 150.866 977.111 Z" fill="#000000" fill-rule="nonzero" fill-opacity="1" /><path clip-path="url(#clip840)" d="M189.859 957.84 Q184.442 957.84 181.699 963.187 Q178.991 968.5 178.991 979.194 Q178.991 989.854 181.699 995.201 Q184.442 1000.51 189.859 1000.51 Q195.31 1000.51 198.018 995.201 Q200.761 989.854 200.761 979.194 Q200.761 968.5 198.018 963.187 Q195.31 957.84 189.859 957.84 M189.859 952.284 Q198.574 952.284 203.157 959.194 Q207.775 966.069 207.775 979.194 Q207.775 992.284 203.157 999.194 Q198.574 1006.07 189.859 1006.07 Q181.143 1006.07 176.525 999.194 Q171.942 992.284 171.942 979.194 Q171.942 966.069 176.525 959.194 Q181.143 952.284 189.859 952.284 Z" fill="#000000" fill-rule="nonzero" fill-opacity="1" /><path clip-path="url(#clip840)" d="M17.2547 1205.65 L25.8831 1205.65 Q22.0348 1209.78 20.1308 1214.48 Q18.2269 1219.14 18.2269 1224.4 Q18.2269 1234.77 24.5868 1240.28 Q30.9062 1245.79 42.8969 1245.79 Q54.8471 1245.79 61.207 1240.28 Q67.5264 1234.77 67.5264 1224.4 Q67.5264 1219.14 65.6225 1214.48 Q63.7186 1209.78 59.8702 1205.65 L68.4176 1205.65 Q71.3343 1209.94 72.7926 1214.76 Q74.2509 1219.54 74.2509 1224.89 Q74.2509 1238.62 65.8655 1246.52 Q57.4397 1254.42 42.8969 1254.42 Q28.3137 1254.42 19.9283 1246.52 Q11.5024 1238.62 11.5024 1224.89 Q11.5024 1219.46 12.9607 1214.68 Q14.3786 1209.86 17.2547 1205.65 Z" fill="#000000" fill-rule="nonzero" fill-opacity="1" /><path clip-path="url(#clip840)" d="M47.758 1176.12 L51.6874 1176.12 Q50.7962 1178.1 50.3506 1180.25 Q49.905 1182.35 49.905 1184.66 Q49.905 1188.19 50.8367 1189.93 Q51.8089 1191.67 53.7128 1191.67 Q55.1712 1191.67 55.9813 1190.42 Q56.832 1189.16 57.5612 1185.39 L57.8853 1183.77 Q58.8575 1178.71 60.5589 1176.68 Q62.3008 1174.58 65.4199 1174.58 Q68.9442 1174.58 71.0102 1177.74 Q73.0762 1180.86 73.0762 1186.36 Q73.0762 1188.67 72.6711 1191.19 Q72.266 1193.66 71.4963 1196.41 L67.1618 1196.41 Q68.3771 1193.82 68.9847 1191.27 Q69.5924 1188.75 69.5924 1186.28 Q69.5924 1182.96 68.5797 1181.18 Q67.5669 1179.4 65.744 1179.4 Q64.0426 1179.4 63.1109 1180.69 Q62.3008 1181.83 61.369 1186.32 L61.045 1187.94 Q60.1943 1192.32 58.5334 1194.26 Q56.832 1196.21 53.8749 1196.21 Q50.3101 1196.21 48.3656 1193.33 Q46.3807 1190.5 46.3807 1185.23 Q46.3807 1182.64 46.7453 1180.33 Q47.0694 1178.02 47.758 1176.12 Z" fill="#000000" fill-rule="nonzero" fill-opacity="1" /><path clip-path="url(#clip840)" d="M10.1251 1144.48 Q19.4422 1149.91 28.5567 1152.54 Q37.6713 1155.17 47.0288 1155.17 Q56.3864 1155.17 65.582 1152.54 Q74.737 1149.87 84.0136 1144.48 L84.0136 1150.96 Q74.494 1157.04 65.2984 1160.07 Q56.1029 1163.07 47.0288 1163.07 Q37.9953 1163.07 28.8403 1160.07 Q19.6852 1157.08 10.1251 1150.96 L10.1251 1144.48 Z" fill="#000000" fill-rule="nonzero" fill-opacity="1" /><path clip-path="url(#clip840)" d="M49.8645 1100.16 Q41.7627 1100.16 37.3067 1103.52 Q32.8507 1106.85 32.8507 1112.88 Q32.8507 1118.88 37.3067 1122.24 Q41.7627 1125.56 49.8645 1125.56 Q57.9258 1125.56 62.3818 1122.24 Q66.8378 1118.88 66.8378 1112.88 Q66.8378 1106.85 62.3818 1103.52 Q57.9258 1100.16 49.8645 1100.16 M67.4454 1092.71 Q79.031 1092.71 84.6617 1097.85 Q90.333 1103 90.333 1113.61 Q90.333 1117.54 89.7254 1121.02 Q89.1582 1124.51 87.943 1127.79 L80.6919 1127.79 Q82.4743 1124.51 83.3249 1121.31 Q84.1756 1118.11 84.1756 1114.79 Q84.1756 1107.45 80.3273 1103.81 Q76.5194 1100.16 68.7822 1100.16 L65.0959 1100.16 Q69.1063 1102.47 71.0912 1106.08 Q73.0762 1109.68 73.0762 1114.7 Q73.0762 1123.05 66.7162 1128.15 Q60.3563 1133.26 49.8645 1133.26 Q39.3321 1133.26 32.9722 1128.15 Q26.6123 1123.05 26.6123 1114.7 Q26.6123 1109.68 28.5972 1106.08 Q30.5822 1102.47 34.5926 1100.16 L27.706 1100.16 L27.706 1092.71 L67.4454 1092.71 Z" fill="#000000" fill-rule="nonzero" fill-opacity="1" /><path clip-path="url(#clip840)" d="M12.5962 1064.11 L12.5962 1057.22 L80.7729 1078.29 L80.7729 1085.17 L12.5962 1064.11 Z" fill="#000000" fill-rule="nonzero" fill-opacity="1" /><path clip-path="url(#clip840)" d="M12.5962 1049.08 L12.5962 1040.9 L66.1896 1040.9 L66.1896 1011.45 L73.0762 1011.45 L73.0762 1049.08 L12.5962 1049.08 Z" fill="#000000" fill-rule="nonzero" fill-opacity="1" /><path clip-path="url(#clip840)" d="M10.1251 1004.36 L10.1251 997.876 Q19.6852 991.8 28.8403 988.802 Q37.9953 985.764 47.0288 985.764 Q56.1029 985.764 65.2984 988.802 Q74.494 991.8 84.0136 997.876 L84.0136 1004.36 Q74.737 998.97 65.582 996.337 Q56.3864 993.663 47.0288 993.663 Q37.6713 993.663 28.5567 996.337 Q19.4422 998.97 10.1251 1004.36 Z" fill="#000000" fill-rule="nonzero" fill-opacity="1" /><polyline clip-path="url(#clip843)" style="stroke:#3da44d; stroke-linecap:round; stroke-linejoin:round; stroke-width:12; stroke-opacity:1; fill:none" stroke-dasharray="48, 30" points="243.775,1365.09 384.374,1227.92 524.973,1228.05 665.571,1231.93 806.17,1235.05 946.769,1219.62 1087.37,1197.71 1227.97,1166.93 1368.56,1129.77 1509.16,1075.13 1649.76,1029.84 1790.36,980.664 1930.96,922.435 2071.56,876.626 2212.16,863.465 2352.76,873.238 "/>
<polyline clip-path="url(#clip843)" style="stroke:#c271d2; stroke-linecap:round; stroke-linejoin:round; stroke-width:12; stroke-opacity:1; fill:none" stroke-dasharray="48, 30" points="243.775,1365.09 384.374,1225.86 524.973,1224.11 665.571,1225.51 806.17,1225.45 946.769,1206.61 1087.37,1181.23 1227.97,1147.36 1368.56,1107.86 1509.16,1052.95 1649.76,1008.38 1790.36,961.939 1930.96,909.067 2071.56,869.471 2212.16,862.688 2352.76,881.814 "/>
<polyline clip-path="url(#clip843)" style="stroke:#ac8d18; stroke-linecap:round; stroke-linejoin:round; stroke-width:12; stroke-opacity:1; fill:none" stroke-dasharray="48, 30" points="243.775,1365.09 384.374,1225.89 524.973,1224.18 665.571,1225.64 806.17,1225.65 946.769,1206.89 1087.37,1181.6 1227.97,1147.83 1368.56,1108.47 1509.16,1053.69 1649.76,1009.3 1790.36,963.041 1930.96,910.286 2071.56,870.807 2212.16,864.388 2352.76,884.274 "/>
<polyline clip-path="url(#clip843)" style="stroke:#00a9ad; stroke-linecap:round; stroke-linejoin:round; stroke-width:12; stroke-opacity:1; fill:none" stroke-dasharray="48, 30" points="243.775,1365.09 384.374,1226.34 524.973,1225.09 665.571,1227.11 806.17,1227.81 946.769,1209.76 1087.37,1185.22 1227.97,1152.23 1368.56,1113.64 1509.16,1059.44 1649.76,1015.77 1790.36,970.111 1930.96,917.517 2071.56,878.264 2212.16,873.41 2352.76,896.644 "/>
<polyline clip-path="url(#clip843)" style="stroke:#ed5d92; stroke-linecap:round; stroke-linejoin:round; stroke-width:12; stroke-opacity:1; fill:none" stroke-dasharray="48, 30" points="243.775,1365.09 384.374,1229.33 524.973,1232.97 665.571,1242.3 806.17,1253.54 946.769,1248.99 1087.37,1241.85 1227.97,1230.14 1368.56,1216.88 1509.16,1187.31 1649.76,1173.6 1790.36,1156.28 1930.96,1119.21 2071.56,1094.65 2212.16,1143.32 2352.76,1275.28 "/>
<polyline clip-path="url(#clip843)" style="stroke:#c68125; stroke-linecap:round; stroke-linejoin:round; stroke-width:12; stroke-opacity:1; fill:none" stroke-dasharray="48, 30" points="243.775,1365.09 384.374,1230.46 524.973,1235.61 665.571,1247.62 806.17,1263.51 946.769,1265.99 1087.37,1268.99 1227.97,1270.95 1368.56,1275.25 1509.16,1264.24 1649.76,1273.67 1790.36,1280.09 1930.96,1258.92 2071.56,1249.88 2212.16,1338.97 2352.76,1375.84 "/>
<polyline clip-path="url(#clip843)" style="stroke:#00a98d; stroke-linecap:round; stroke-linejoin:round; stroke-width:12; stroke-opacity:1; fill:none" stroke-dasharray="48, 30" points="243.775,1365.09 384.374,1228.85 524.973,1231.91 665.571,1240.29 806.17,1249.99 946.769,1243.3 1087.37,1233.29 1227.97,1218 1368.56,1200.42 1509.16,1166.63 1649.76,1147.8 1790.36,1125.63 1930.96,1085.82 2071.56,1058.63 2212.16,1098.2 2352.76,1213.19 "/>
<polyline clip-path="url(#clip843)" style="stroke:#8e971d; stroke-linecap:round; stroke-linejoin:round; stroke-width:12; stroke-opacity:1; fill:none" stroke-dasharray="48, 30" points="243.775,1365.09 384.374,1230.28 524.973,1235.35 665.571,1247.28 806.17,1263.03 946.769,1265.35 1087.37,1268.14 1227.97,1269.85 1368.56,1273.86 1509.16,1262.62 1649.76,1271.76 1790.36,1277.92 1930.96,1256.68 2071.56,1247.64 2212.16,1335.12 2352.76,1377.5 "/>
<polyline clip-path="url(#clip843)" style="stroke:#00a8cb; stroke-linecap:round; stroke-linejoin:round; stroke-width:12; stroke-opacity:1; fill:none" stroke-dasharray="48, 30" points="243.775,1365.09 384.374,1229.8 524.973,1234.66 665.571,1246.26 806.17,1261.51 946.769,1263.09 1087.37,1264.85 1227.97,1265.18 1368.56,1267.38 1509.16,1254.36 1649.76,1261.35 1790.36,1265.21 1930.96,1242.65 2071.56,1232.41 2212.16,1315.19 2352.76,1372.58 "/>
<polyline clip-path="url(#clip843)" style="stroke:#9b7fe8; stroke-linecap:round; stroke-linejoin:round; stroke-width:12; stroke-opacity:1; fill:none" stroke-dasharray="48, 30" points="243.775,1365.09 384.374,1230.17 524.973,1235.19 665.571,1247.04 806.17,1262.67 946.769,1264.81 1087.37,1267.34 1227.97,1268.71 1368.56,1272.26 1509.16,1260.54 1649.76,1269.1 1790.36,1274.59 1930.96,1252.94 2071.56,1243.54 2212.16,1329.95 2352.76,1376.35 "/>
</svg>
