<?xml version="1.0" encoding="utf-8"?>
<svg xmlns="http://www.w3.org/2000/svg" xmlns:xlink="http://www.w3.org/1999/xlink" width="600" height="400" viewBox="0 0 2400 1600">
<defs>
  <clipPath id="clip900">
    <rect x="0" y="0" width="2400" height="1600"/>
  </clipPath>
</defs>
<path clip-path="url(#clip900)" d="M0 1600 L2400 1600 L2400 0 L0 0  Z" fill="#ffffff" fill-rule="evenodd" fill-opacity="1"/>
<defs>
  <clipPath id="clip901">
    <rect x="480" y="0" width="1681" height="1600"/>
  </clipPath>
</defs>
<path clip-path="url(#clip900)" d="M316.385 1410.22 L2352.76 1410.22 L2352.76 47.2441 L316.385 47.2441  Z" fill="#ffffff" fill-rule="evenodd" fill-opacity="1"/>
<defs>
  <clipPath id="clip902">
    <rect x="316" y="47" width="2037" height="1364"/>
  </clipPath>
</defs>
<polyline clip-path="url(#clip900)" style="stroke:#000000; stroke-linecap:round; stroke-linejoin:round; stroke-width:4; stroke-opacity:1; fill:none" points="316.385,1410.22 2352.76,1410.22 "/>
<polyline clip-path="url(#clip900)" style="stroke:#000000; stroke-linecap:round; stroke-linejoin:round; stroke-width:4; stroke-opacity:1; fill:none" points="502.363,1410.22 502.363,1391.32 "/>
<polyline clip-path="url(#clip900)" style="stroke:#000000; stroke-linecap:round; stroke-linejoin:round; stroke-width:4; stroke-opacity:1; fill:none" points="687.298,1410.22 687.298,1391.32 "/>
<polyline clip-path="url(#clip900)" style="stroke:#000000; stroke-linecap:round; stroke-linejoin:round; stroke-width:4; stroke-opacity:1; fill:none" points="872.233,1410.22 872.233,1391.32 "/>
<polyline clip-path="url(#clip900)" style="stroke:#000000; stroke-linecap:round; stroke-linejoin:round; stroke-width:4; stroke-opacity:1; fill:none" points="1057.17,1410.22 1057.17,1391.32 "/>
<polyline clip-path="url(#clip900)" style="stroke:#000000; stroke-linecap:round; stroke-linejoin:round; stroke-width:4; stroke-opacity:1; fill:none" points="1242.1,1410.22 1242.1,1391.32 "/>
<polyline clip-path="url(#clip900)" style="stroke:#000000; stroke-linecap:round; stroke-linejoin:round; stroke-width:4; stroke-opacity:1; fill:none" points="1427.04,1410.22 1427.04,1391.32 "/>
<polyline clip-path="url(#clip900)" style="stroke:#000000; stroke-linecap:round; stroke-linejoin:round; stroke-width:4; stroke-opacity:1; fill:none" points="1611.97,1410.22 1611.97,1391.32 "/>
<polyline clip-path="url(#clip900)" style="stroke:#000000; stroke-linecap:round; stroke-linejoin:round; stroke-width:4; stroke-opacity:1; fill:none" points="1796.91,1410.22 1796.91,1391.32 "/>
<polyline clip-path="url(#clip900)" style="stroke:#000000; stroke-linecap:round; stroke-linejoin:round; stroke-width:4; stroke-opacity:1; fill:none" points="1981.84,1410.22 1981.84,1391.32 "/>
<polyline clip-path="url(#clip900)" style="stroke:#000000; stroke-linecap:round; stroke-linejoin:round; stroke-width:4; stroke-opacity:1; fill:none" points="2166.78,1410.22 2166.78,1391.32 "/>
<path clip-path="url(#clip900)" d="M490.34 1478.5 L499.889 1478.5 L499.889 1445.54 L489.501 1447.63 L489.501 1442.3 L499.831 1440.22 L505.676 1440.22 L505.676 1478.5 L515.224 1478.5 L515.224 1483.42 L490.34 1483.42 L490.34 1478.5 Z" fill="#000000" fill-rule="nonzero" fill-opacity="1" /><path clip-path="url(#clip900)" d="M680.614 1478.5 L701.013 1478.5 L701.013 1483.42 L673.583 1483.42 L673.583 1478.5 Q676.91 1475.06 682.639 1469.27 Q688.397 1463.45 689.873 1461.78 Q692.68 1458.62 693.779 1456.45 Q694.908 1454.25 694.908 1452.14 Q694.908 1448.7 692.477 1446.53 Q690.076 1444.36 686.198 1444.36 Q683.45 1444.36 680.382 1445.31 Q677.344 1446.27 673.872 1448.21 L673.872 1442.3 Q677.402 1440.89 680.469 1440.16 Q683.536 1439.44 686.083 1439.44 Q692.796 1439.44 696.789 1442.8 Q700.782 1446.15 700.782 1451.76 Q700.782 1454.43 699.769 1456.83 Q698.785 1459.2 696.152 1462.44 Q695.429 1463.28 691.551 1467.3 Q687.674 1471.3 680.614 1478.5 Z" fill="#000000" fill-rule="nonzero" fill-opacity="1" /><path clip-path="url(#clip900)" d="M877.542 1460.13 Q881.738 1461.02 884.082 1463.86 Q886.454 1466.7 886.454 1470.86 Q886.454 1477.26 882.056 1480.76 Q877.658 1484.26 869.556 1484.26 Q866.836 1484.26 863.943 1483.71 Q861.078 1483.19 858.011 1482.12 L858.011 1476.48 Q860.442 1477.89 863.335 1478.62 Q866.229 1479.34 869.383 1479.34 Q874.88 1479.34 877.745 1477.17 Q880.639 1475 880.639 1470.86 Q880.639 1467.04 877.948 1464.9 Q875.286 1462.73 870.511 1462.73 L865.477 1462.73 L865.477 1457.93 L870.743 1457.93 Q875.054 1457.93 877.34 1456.22 Q879.626 1454.48 879.626 1451.24 Q879.626 1447.92 877.253 1446.15 Q874.909 1444.36 870.511 1444.36 Q868.11 1444.36 865.361 1444.88 Q862.612 1445.4 859.313 1446.5 L859.313 1441.29 Q862.641 1440.36 865.534 1439.9 Q868.457 1439.44 871.032 1439.44 Q877.687 1439.44 881.564 1442.48 Q885.442 1445.49 885.442 1450.64 Q885.442 1454.22 883.387 1456.71 Q881.333 1459.17 877.542 1460.13 Z" fill="#000000" fill-rule="nonzero" fill-opacity="1" /><path clip-path="url(#clip900)" d="M1060.93 1445.31 L1046.17 1468.37 L1060.93 1468.37 L1060.93 1445.31 M1059.4 1440.22 L1066.75 1440.22 L1066.75 1468.37 L1072.91 1468.37 L1072.91 1473.23 L1066.75 1473.23 L1066.75 1483.42 L1060.93 1483.42 L1060.93 1473.23 L1041.43 1473.23 L1041.43 1467.59 L1059.4 1440.22 Z" fill="#000000" fill-rule="nonzero" fill-opacity="1" /><path clip-path="url(#clip900)" d="M1229.95 1440.22 L1252.9 1440.22 L1252.9 1445.14 L1235.3 1445.14 L1235.3 1455.73 Q1236.58 1455.29 1237.85 1455.09 Q1239.12 1454.86 1240.4 1454.86 Q1247.63 1454.86 1251.85 1458.83 Q1256.08 1462.79 1256.08 1469.56 Q1256.08 1476.53 1251.74 1480.41 Q1247.4 1484.26 1239.5 1484.26 Q1236.78 1484.26 1233.94 1483.8 Q1231.14 1483.33 1228.13 1482.41 L1228.13 1476.53 Q1230.73 1477.95 1233.51 1478.65 Q1236.29 1479.34 1239.38 1479.34 Q1244.39 1479.34 1247.31 1476.71 Q1250.23 1474.07 1250.23 1469.56 Q1250.23 1465.05 1247.31 1462.41 Q1244.39 1459.78 1239.38 1459.78 Q1237.04 1459.78 1234.7 1460.3 Q1232.38 1460.82 1229.95 1461.92 L1229.95 1440.22 Z" fill="#000000" fill-rule="nonzero" fill-opacity="1" /><path clip-path="url(#clip900)" d="M1427.54 1459.49 Q1423.61 1459.49 1421.29 1462.18 Q1419.01 1464.87 1419.01 1469.56 Q1419.01 1474.22 1421.29 1476.94 Q1423.61 1479.63 1427.54 1479.63 Q1431.48 1479.63 1433.77 1476.94 Q1436.08 1474.22 1436.08 1469.56 Q1436.08 1464.87 1433.77 1462.18 Q1431.48 1459.49 1427.54 1459.49 M1439.15 1441.17 L1439.15 1446.5 Q1436.95 1445.46 1434.69 1444.91 Q1432.46 1444.36 1430.26 1444.36 Q1424.48 1444.36 1421.41 1448.26 Q1418.37 1452.17 1417.94 1460.07 Q1419.64 1457.55 1422.22 1456.22 Q1424.8 1454.86 1427.89 1454.86 Q1434.4 1454.86 1438.16 1458.83 Q1441.95 1462.76 1441.95 1469.56 Q1441.95 1476.22 1438.02 1480.24 Q1434.08 1484.26 1427.54 1484.26 Q1420.05 1484.26 1416.09 1478.53 Q1412.12 1472.77 1412.12 1461.86 Q1412.12 1451.62 1416.98 1445.54 Q1421.84 1439.44 1430.03 1439.44 Q1432.23 1439.44 1434.46 1439.87 Q1436.72 1440.31 1439.15 1441.17 Z" fill="#000000" fill-rule="nonzero" fill-opacity="1" /><path clip-path="url(#clip900)" d="M1598.08 1440.22 L1625.86 1440.22 L1625.86 1442.71 L1610.18 1483.42 L1604.07 1483.42 L1618.83 1445.14 L1598.08 1445.14 L1598.08 1440.22 Z" fill="#000000" fill-rule="nonzero" fill-opacity="1" /><path clip-path="url(#clip900)" d="M1796.91 1462.9 Q1792.74 1462.9 1790.34 1465.13 Q1787.97 1467.36 1787.97 1471.27 Q1787.97 1475.17 1790.34 1477.4 Q1792.74 1479.63 1796.91 1479.63 Q1801.07 1479.63 1803.48 1477.4 Q1805.88 1475.14 1805.88 1471.27 Q1805.88 1467.36 1803.48 1465.13 Q1801.1 1462.9 1796.91 1462.9 M1791.06 1460.42 Q1787.3 1459.49 1785.19 1456.92 Q1783.11 1454.34 1783.11 1450.64 Q1783.11 1445.46 1786.78 1442.45 Q1790.48 1439.44 1796.91 1439.44 Q1803.36 1439.44 1807.04 1442.45 Q1810.71 1445.46 1810.71 1450.64 Q1810.71 1454.34 1808.6 1456.92 Q1806.51 1459.49 1802.78 1460.42 Q1807.01 1461.4 1809.35 1464.26 Q1811.72 1467.13 1811.72 1471.27 Q1811.72 1477.55 1807.87 1480.9 Q1804.05 1484.26 1796.91 1484.26 Q1789.76 1484.26 1785.91 1480.9 Q1782.09 1477.55 1782.09 1471.27 Q1782.09 1467.13 1784.47 1464.26 Q1786.84 1461.4 1791.06 1460.42 M1788.92 1451.19 Q1788.92 1454.54 1791.01 1456.42 Q1793.12 1458.3 1796.91 1458.3 Q1800.67 1458.3 1802.78 1456.42 Q1804.92 1454.54 1804.92 1451.19 Q1804.92 1447.83 1802.78 1445.95 Q1800.67 1444.07 1796.91 1444.07 Q1793.12 1444.07 1791.01 1445.95 Q1788.92 1447.83 1788.92 1451.19 Z" fill="#000000" fill-rule="nonzero" fill-opacity="1" /><path clip-path="url(#clip900)" d="M1969.72 1482.52 L1969.72 1477.2 Q1971.92 1478.24 1974.18 1478.79 Q1976.43 1479.34 1978.6 1479.34 Q1984.39 1479.34 1987.43 1475.46 Q1990.49 1471.56 1990.93 1463.63 Q1989.25 1466.12 1986.68 1467.45 Q1984.1 1468.78 1980.97 1468.78 Q1974.49 1468.78 1970.7 1464.87 Q1966.94 1460.94 1966.94 1454.14 Q1966.94 1447.48 1970.88 1443.46 Q1974.81 1439.44 1981.35 1439.44 Q1988.85 1439.44 1992.78 1445.2 Q1996.74 1450.93 1996.74 1461.86 Q1996.74 1472.08 1991.88 1478.18 Q1987.05 1484.26 1978.86 1484.26 Q1976.66 1484.26 1974.41 1483.82 Q1972.15 1483.39 1969.72 1482.52 M1981.35 1464.21 Q1985.29 1464.21 1987.57 1461.52 Q1989.89 1458.83 1989.89 1454.14 Q1989.89 1449.48 1987.57 1446.79 Q1985.29 1444.07 1981.35 1444.07 Q1977.42 1444.07 1975.1 1446.79 Q1972.82 1449.48 1972.82 1454.14 Q1972.82 1458.83 1975.1 1461.52 Q1977.42 1464.21 1981.35 1464.21 Z" fill="#000000" fill-rule="nonzero" fill-opacity="1" /><path clip-path="url(#clip900)" d="M2135.14 1478.5 L2144.69 1478.5 L2144.69 1445.54 L2134.3 1447.63 L2134.3 1442.3 L2144.63 1440.22 L2150.47 1440.22 L2150.47 1478.5 L2160.02 1478.5 L2160.02 1483.42 L2135.14 1483.42 L2135.14 1478.5 Z" fill="#000000" fill-rule="nonzero" fill-opacity="1" /><path clip-path="url(#clip900)" d="M2184.33 1444.07 Q2179.81 1444.07 2177.53 1448.52 Q2175.27 1452.95 2175.27 1461.86 Q2175.27 1470.75 2177.53 1475.2 Q2179.81 1479.63 2184.33 1479.63 Q2188.87 1479.63 2191.13 1475.2 Q2193.41 1470.75 2193.41 1461.86 Q2193.41 1452.95 2191.13 1448.52 Q2188.87 1444.07 2184.33 1444.07 M2184.33 1439.44 Q2191.59 1439.44 2195.41 1445.2 Q2199.26 1450.93 2199.26 1461.86 Q2199.26 1472.77 2195.41 1478.53 Q2191.59 1484.26 2184.33 1484.26 Q2177.06 1484.26 2173.22 1478.53 Q2169.4 1472.77 2169.4 1461.86 Q2169.4 1450.93 2173.22 1445.2 Q2177.06 1439.44 2184.33 1439.44 Z" fill="#000000" fill-rule="nonzero" fill-opacity="1" /><path clip-path="url(#clip900)" d="M997.09 1549.76 L997.09 1573.23 L990.701 1573.23 L990.701 1549.96 Q990.701 1544.44 988.548 1541.7 Q986.395 1538.96 982.09 1538.96 Q976.916 1538.96 973.93 1542.26 Q970.944 1545.55 970.944 1551.25 L970.944 1573.23 L964.52 1573.23 L964.52 1519.2 L970.944 1519.2 L970.944 1540.38 Q973.236 1536.87 976.326 1535.14 Q979.451 1533.4 983.513 1533.4 Q990.215 1533.4 993.652 1537.57 Q997.09 1541.7 997.09 1549.76 Z" fill="#000000" fill-rule="nonzero" fill-opacity="1" /><path clip-path="url(#clip900)" d="M1027.51 1553.68 Q1019.76 1553.68 1016.78 1555.45 Q1013.79 1557.22 1013.79 1561.49 Q1013.79 1564.89 1016.01 1566.91 Q1018.27 1568.89 1022.12 1568.89 Q1027.44 1568.89 1030.63 1565.14 Q1033.86 1561.35 1033.86 1555.1 L1033.86 1553.68 L1027.51 1553.68 M1040.25 1551.04 L1040.25 1573.23 L1033.86 1573.23 L1033.86 1567.33 Q1031.67 1570.87 1028.41 1572.57 Q1025.14 1574.23 1020.42 1574.23 Q1014.45 1574.23 1010.91 1570.9 Q1007.4 1567.53 1007.4 1561.91 Q1007.4 1555.35 1011.78 1552.01 Q1016.19 1548.68 1024.9 1548.68 L1033.86 1548.68 L1033.86 1548.05 Q1033.86 1543.64 1030.94 1541.25 Q1028.06 1538.82 1022.82 1538.82 Q1019.49 1538.82 1016.33 1539.62 Q1013.17 1540.42 1010.25 1542.01 L1010.25 1536.11 Q1013.76 1534.76 1017.05 1534.1 Q1020.35 1533.4 1023.48 1533.4 Q1031.92 1533.4 1036.08 1537.78 Q1040.25 1542.15 1040.25 1551.04 Z" fill="#000000" fill-rule="nonzero" fill-opacity="1" /><path clip-path="url(#clip900)" d="M1053.41 1519.2 L1059.8 1519.2 L1059.8 1573.23 L1053.41 1573.23 L1053.41 1519.2 Z" fill="#000000" fill-rule="nonzero" fill-opacity="1" /><path clip-path="url(#clip900)" d="M1073.17 1519.2 L1079.55 1519.2 L1079.55 1573.23 L1073.17 1573.23 L1073.17 1519.2 Z" fill="#000000" fill-rule="nonzero" fill-opacity="1" /><path clip-path="url(#clip900)" d="M1130.6 1538.82 Q1125.46 1538.82 1122.47 1542.85 Q1119.48 1546.84 1119.48 1553.82 Q1119.48 1560.8 1122.44 1564.83 Q1125.42 1568.82 1130.6 1568.82 Q1135.7 1568.82 1138.69 1564.79 Q1141.67 1560.76 1141.67 1553.82 Q1141.67 1546.91 1138.69 1542.88 Q1135.7 1538.82 1130.6 1538.82 M1130.6 1533.4 Q1138.93 1533.4 1143.69 1538.82 Q1148.44 1544.23 1148.44 1553.82 Q1148.44 1563.37 1143.69 1568.82 Q1138.93 1574.23 1130.6 1574.23 Q1122.23 1574.23 1117.47 1568.82 Q1112.75 1563.37 1112.75 1553.82 Q1112.75 1544.23 1117.47 1538.82 Q1122.23 1533.4 1130.6 1533.4 Z" fill="#000000" fill-rule="nonzero" fill-opacity="1" /><path clip-path="url(#clip900)" d="M1178.72 1519.2 L1178.72 1524.51 L1172.61 1524.51 Q1169.17 1524.51 1167.82 1525.9 Q1166.5 1527.29 1166.5 1530.9 L1166.5 1534.34 L1177.02 1534.34 L1177.02 1539.3 L1166.5 1539.3 L1166.5 1573.23 L1160.07 1573.23 L1160.07 1539.3 L1153.96 1539.3 L1153.96 1534.34 L1160.07 1534.34 L1160.07 1531.63 Q1160.07 1525.14 1163.1 1522.19 Q1166.12 1519.2 1172.68 1519.2 L1178.72 1519.2 Z" fill="#000000" fill-rule="nonzero" fill-opacity="1" /><path clip-path="url(#clip900)" d="M1226.36 1519.2 L1226.36 1524.51 L1220.25 1524.51 Q1216.81 1524.51 1215.46 1525.9 Q1214.14 1527.29 1214.14 1530.9 L1214.14 1534.34 L1224.66 1534.34 L1224.66 1539.3 L1214.14 1539.3 L1214.14 1573.23 L1207.71 1573.23 L1207.71 1539.3 L1201.6 1539.3 L1201.6 1534.34 L1207.71 1534.34 L1207.71 1531.63 Q1207.71 1525.14 1210.73 1522.19 Q1213.76 1519.2 1220.32 1519.2 L1226.36 1519.2 Z" fill="#000000" fill-rule="nonzero" fill-opacity="1" /><path clip-path="url(#clip900)" d="M1249.38 1553.68 Q1241.64 1553.68 1238.65 1555.45 Q1235.66 1557.22 1235.66 1561.49 Q1235.66 1564.89 1237.89 1566.91 Q1240.14 1568.89 1244 1568.89 Q1249.31 1568.89 1252.5 1565.14 Q1255.73 1561.35 1255.73 1555.1 L1255.73 1553.68 L1249.38 1553.68 M1262.12 1551.04 L1262.12 1573.23 L1255.73 1573.23 L1255.73 1567.33 Q1253.55 1570.87 1250.28 1572.57 Q1247.02 1574.23 1242.3 1574.23 Q1236.32 1574.23 1232.78 1570.9 Q1229.28 1567.53 1229.28 1561.91 Q1229.28 1555.35 1233.65 1552.01 Q1238.06 1548.68 1246.78 1548.68 L1255.73 1548.68 L1255.73 1548.05 Q1255.73 1543.64 1252.82 1541.25 Q1249.94 1538.82 1244.69 1538.82 Q1241.36 1538.82 1238.2 1539.62 Q1235.04 1540.42 1232.12 1542.01 L1232.12 1536.11 Q1235.63 1534.76 1238.93 1534.1 Q1242.23 1533.4 1245.35 1533.4 Q1253.79 1533.4 1257.96 1537.78 Q1262.12 1542.15 1262.12 1551.04 Z" fill="#000000" fill-rule="nonzero" fill-opacity="1" /><path clip-path="url(#clip900)" d="M1305.56 1541.8 Q1307.96 1537.5 1311.29 1535.45 Q1314.62 1533.4 1319.14 1533.4 Q1325.21 1533.4 1328.51 1537.67 Q1331.81 1541.91 1331.81 1549.76 L1331.81 1573.23 L1325.39 1573.23 L1325.39 1549.96 Q1325.39 1544.37 1323.41 1541.67 Q1321.43 1538.96 1317.37 1538.96 Q1312.4 1538.96 1309.52 1542.26 Q1306.64 1545.55 1306.64 1551.25 L1306.64 1573.23 L1300.21 1573.23 L1300.21 1549.96 Q1300.21 1544.34 1298.23 1541.67 Q1296.25 1538.96 1292.12 1538.96 Q1287.23 1538.96 1284.34 1542.29 Q1281.46 1545.59 1281.46 1551.25 L1281.46 1573.23 L1275.04 1573.23 L1275.04 1534.34 L1281.46 1534.34 L1281.46 1540.38 Q1283.65 1536.8 1286.71 1535.1 Q1289.76 1533.4 1293.96 1533.4 Q1298.2 1533.4 1301.15 1535.55 Q1304.14 1537.71 1305.56 1541.8 Z" fill="#000000" fill-rule="nonzero" fill-opacity="1" /><path clip-path="url(#clip900)" d="M1377.82 1552.19 L1377.82 1555.31 L1348.44 1555.31 Q1348.86 1561.91 1352.4 1565.38 Q1355.98 1568.82 1362.33 1568.82 Q1366.01 1568.82 1369.45 1567.92 Q1372.92 1567.01 1376.32 1565.21 L1376.32 1571.25 Q1372.89 1572.71 1369.28 1573.47 Q1365.66 1574.23 1361.95 1574.23 Q1352.64 1574.23 1347.19 1568.82 Q1341.78 1563.4 1341.78 1554.17 Q1341.78 1544.62 1346.91 1539.03 Q1352.09 1533.4 1360.84 1533.4 Q1368.68 1533.4 1373.23 1538.47 Q1377.82 1543.51 1377.82 1552.19 M1371.43 1550.31 Q1371.36 1545.07 1368.48 1541.94 Q1365.63 1538.82 1360.91 1538.82 Q1355.56 1538.82 1352.33 1541.84 Q1349.14 1544.86 1348.65 1550.35 L1371.43 1550.31 Z" fill="#000000" fill-rule="nonzero" fill-opacity="1" /><path clip-path="url(#clip900)" d="M1441.18 1541.8 Q1443.58 1537.5 1446.91 1535.45 Q1450.25 1533.4 1454.76 1533.4 Q1460.84 1533.4 1464.14 1537.67 Q1467.43 1541.91 1467.43 1549.76 L1467.43 1573.23 L1461.01 1573.23 L1461.01 1549.96 Q1461.01 1544.37 1459.03 1541.67 Q1457.05 1538.96 1452.99 1538.96 Q1448.02 1538.96 1445.14 1542.26 Q1442.26 1545.55 1442.26 1551.25 L1442.26 1573.23 L1435.84 1573.23 L1435.84 1549.96 Q1435.84 1544.34 1433.86 1541.67 Q1431.88 1538.96 1427.75 1538.96 Q1422.85 1538.96 1419.97 1542.29 Q1417.09 1545.59 1417.09 1551.25 L1417.09 1573.23 L1410.66 1573.23 L1410.66 1534.34 L1417.09 1534.34 L1417.09 1540.38 Q1419.27 1536.8 1422.33 1535.1 Q1425.39 1533.4 1429.59 1533.4 Q1433.82 1533.4 1436.77 1535.55 Q1439.76 1537.71 1441.18 1541.8 Z" fill="#000000" fill-rule="nonzero" fill-opacity="1" /><path clip-path="url(#clip900)" d="M1513.44 1552.19 L1513.44 1555.31 L1484.07 1555.31 Q1484.48 1561.91 1488.02 1565.38 Q1491.6 1568.82 1497.95 1568.82 Q1501.64 1568.82 1505.07 1567.92 Q1508.55 1567.01 1511.95 1565.21 L1511.95 1571.25 Q1508.51 1572.71 1504.9 1573.47 Q1501.29 1574.23 1497.57 1574.23 Q1488.27 1574.23 1482.82 1568.82 Q1477.4 1563.4 1477.4 1554.17 Q1477.4 1544.62 1482.54 1539.03 Q1487.71 1533.4 1496.46 1533.4 Q1504.31 1533.4 1508.86 1538.47 Q1513.44 1543.51 1513.44 1552.19 M1507.05 1550.31 Q1506.98 1545.07 1504.1 1541.94 Q1501.25 1538.82 1496.53 1538.82 Q1491.18 1538.82 1487.95 1541.84 Q1484.76 1544.86 1484.27 1550.35 L1507.05 1550.31 Z" fill="#000000" fill-rule="nonzero" fill-opacity="1" /><path clip-path="url(#clip900)" d="M1554.2 1541.8 Q1556.6 1537.5 1559.93 1535.45 Q1563.27 1533.4 1567.78 1533.4 Q1573.86 1533.4 1577.16 1537.67 Q1580.45 1541.91 1580.45 1549.76 L1580.45 1573.23 L1574.03 1573.23 L1574.03 1549.96 Q1574.03 1544.37 1572.05 1541.67 Q1570.07 1538.96 1566.01 1538.96 Q1561.04 1538.96 1558.16 1542.26 Q1555.28 1545.55 1555.28 1551.25 L1555.28 1573.23 L1548.86 1573.23 L1548.86 1549.96 Q1548.86 1544.34 1546.88 1541.67 Q1544.9 1538.96 1540.77 1538.96 Q1535.87 1538.96 1532.99 1542.29 Q1530.11 1545.59 1530.11 1551.25 L1530.11 1573.23 L1523.68 1573.23 L1523.68 1534.34 L1530.11 1534.34 L1530.11 1540.38 Q1532.3 1536.8 1535.35 1535.1 Q1538.41 1533.4 1542.61 1533.4 Q1546.84 1533.4 1549.79 1535.55 Q1552.78 1537.71 1554.2 1541.8 Z" fill="#000000" fill-rule="nonzero" fill-opacity="1" /><path clip-path="url(#clip900)" d="M1621.11 1553.82 Q1621.11 1546.77 1618.2 1542.78 Q1615.32 1538.75 1610.25 1538.75 Q1605.18 1538.75 1602.26 1542.78 Q1599.38 1546.77 1599.38 1553.82 Q1599.38 1560.87 1602.26 1564.89 Q1605.18 1568.89 1610.25 1568.89 Q1615.32 1568.89 1618.2 1564.89 Q1621.11 1560.87 1621.11 1553.82 M1599.38 1540.24 Q1601.39 1536.77 1604.45 1535.1 Q1607.54 1533.4 1611.81 1533.4 Q1618.89 1533.4 1623.3 1539.03 Q1627.75 1544.65 1627.75 1553.82 Q1627.75 1562.98 1623.3 1568.61 Q1618.89 1574.23 1611.81 1574.23 Q1607.54 1574.23 1604.45 1572.57 Q1601.39 1570.87 1599.38 1567.39 L1599.38 1573.23 L1592.95 1573.23 L1592.95 1519.2 L1599.38 1519.2 L1599.38 1540.24 Z" fill="#000000" fill-rule="nonzero" fill-opacity="1" /><path clip-path="url(#clip900)" d="M1671.6 1552.19 L1671.6 1555.31 L1642.22 1555.31 Q1642.64 1561.91 1646.18 1565.38 Q1649.76 1568.82 1656.11 1568.82 Q1659.79 1568.82 1663.23 1567.92 Q1666.7 1567.01 1670.11 1565.21 L1670.11 1571.25 Q1666.67 1572.71 1663.06 1573.47 Q1659.45 1574.23 1655.73 1574.23 Q1646.43 1574.23 1640.97 1568.82 Q1635.56 1563.4 1635.56 1554.17 Q1635.56 1544.62 1640.7 1539.03 Q1645.87 1533.4 1654.62 1533.4 Q1662.47 1533.4 1667.02 1538.47 Q1671.6 1543.51 1671.6 1552.19 M1665.21 1550.31 Q1665.14 1545.07 1662.26 1541.94 Q1659.41 1538.82 1654.69 1538.82 Q1649.34 1538.82 1646.11 1541.84 Q1642.92 1544.86 1642.43 1550.35 L1665.21 1550.31 Z" fill="#000000" fill-rule="nonzero" fill-opacity="1" /><path clip-path="url(#clip900)" d="M1704.62 1540.31 Q1703.54 1539.69 1702.26 1539.41 Q1701.01 1539.1 1699.48 1539.1 Q1694.06 1539.1 1691.15 1542.64 Q1688.27 1546.14 1688.27 1552.74 L1688.27 1573.23 L1681.84 1573.23 L1681.84 1534.34 L1688.27 1534.34 L1688.27 1540.38 Q1690.28 1536.84 1693.51 1535.14 Q1696.74 1533.4 1701.36 1533.4 Q1702.02 1533.4 1702.81 1533.51 Q1703.61 1533.58 1704.59 1533.75 L1704.62 1540.31 Z" fill="#000000" fill-rule="nonzero" fill-opacity="1" /><polyline clip-path="url(#clip900)" style="stroke:#000000; stroke-linecap:round; stroke-linejoin:round; stroke-width:4; stroke-opacity:1; fill:none" points="316.385,1410.22 316.385,47.2441 "/>
<polyline clip-path="url(#clip900)" style="stroke:#000000; stroke-linecap:round; stroke-linejoin:round; stroke-width:4; stroke-opacity:1; fill:none" points="316.385,1410.22 335.282,1410.22 "/>
<polyline clip-path="url(#clip900)" style="stroke:#000000; stroke-linecap:round; stroke-linejoin:round; stroke-width:4; stroke-opacity:1; fill:none" points="316.385,1115.3 335.282,1115.3 "/>
<polyline clip-path="url(#clip900)" style="stroke:#000000; stroke-linecap:round; stroke-linejoin:round; stroke-width:4; stroke-opacity:1; fill:none" points="316.385,820.383 335.282,820.383 "/>
<polyline clip-path="url(#clip900)" style="stroke:#000000; stroke-linecap:round; stroke-linejoin:round; stroke-width:4; stroke-opacity:1; fill:none" points="316.385,525.465 335.282,525.465 "/>
<polyline clip-path="url(#clip900)" style="stroke:#000000; stroke-linecap:round; stroke-linejoin:round; stroke-width:4; stroke-opacity:1; fill:none" points="316.385,230.547 335.282,230.547 "/>
<path clip-path="url(#clip900)" d="M133.511 1392.47 Q128.997 1392.47 126.711 1396.92 Q124.454 1401.35 124.454 1410.26 Q124.454 1419.15 126.711 1423.6 Q128.997 1428.03 133.511 1428.03 Q138.053 1428.03 140.31 1423.6 Q142.596 1419.15 142.596 1410.26 Q142.596 1401.35 140.31 1396.92 Q138.053 1392.47 133.511 1392.47 M133.511 1387.84 Q140.773 1387.84 144.593 1393.6 Q148.441 1399.33 148.441 1410.26 Q148.441 1421.17 144.593 1426.93 Q140.773 1432.66 133.511 1432.66 Q126.248 1432.66 122.4 1426.93 Q118.58 1421.17 118.58 1410.26 Q118.58 1399.33 122.4 1393.6 Q126.248 1387.84 133.511 1387.84 Z" fill="#000000" fill-rule="nonzero" fill-opacity="1" /><path clip-path="url(#clip900)" d="M158.713 1424.47 L164.818 1424.47 L164.818 1431.82 L158.713 1431.82 L158.713 1424.47 Z" fill="#000000" fill-rule="nonzero" fill-opacity="1" /><path clip-path="url(#clip900)" d="M190.05 1392.47 Q185.536 1392.47 183.25 1396.92 Q180.993 1401.35 180.993 1410.26 Q180.993 1419.15 183.25 1423.6 Q185.536 1428.03 190.05 1428.03 Q194.592 1428.03 196.849 1423.6 Q199.135 1419.15 199.135 1410.26 Q199.135 1401.35 196.849 1396.92 Q194.592 1392.47 190.05 1392.47 M190.05 1387.84 Q197.312 1387.84 201.132 1393.6 Q204.98 1399.33 204.98 1410.26 Q204.98 1421.17 201.132 1426.93 Q197.312 1432.66 190.05 1432.66 Q182.787 1432.66 178.939 1426.93 Q175.119 1421.17 175.119 1410.26 Q175.119 1399.33 178.939 1393.6 Q182.787 1387.84 190.05 1387.84 Z" fill="#000000" fill-rule="nonzero" fill-opacity="1" /><path clip-path="url(#clip900)" d="M227.752 1392.47 Q223.238 1392.47 220.952 1396.92 Q218.695 1401.35 218.695 1410.26 Q218.695 1419.15 220.952 1423.6 Q223.238 1428.03 227.752 1428.03 Q232.295 1428.03 234.552 1423.6 Q236.838 1419.15 236.838 1410.26 Q236.838 1401.35 234.552 1396.92 Q232.295 1392.47 227.752 1392.47 M227.752 1387.84 Q235.015 1387.84 238.834 1393.6 Q242.683 1399.33 242.683 1410.26 Q242.683 1421.17 238.834 1426.93 Q235.015 1432.66 227.752 1432.66 Q220.489 1432.66 216.641 1426.93 Q212.822 1421.17 212.822 1410.26 Q212.822 1399.33 216.641 1393.6 Q220.489 1387.84 227.752 1387.84 Z" fill="#000000" fill-rule="nonzero" fill-opacity="1" /><path clip-path="url(#clip900)" d="M265.454 1392.47 Q260.941 1392.47 258.655 1396.92 Q256.398 1401.35 256.398 1410.26 Q256.398 1419.15 258.655 1423.6 Q260.941 1428.03 265.454 1428.03 Q269.997 1428.03 272.254 1423.6 Q274.54 1419.15 274.54 1410.26 Q274.54 1401.35 272.254 1396.92 Q269.997 1392.47 265.454 1392.47 M265.454 1387.84 Q272.717 1387.84 276.536 1393.6 Q280.385 1399.33 280.385 1410.26 Q280.385 1421.17 276.536 1426.93 Q272.717 1432.66 265.454 1432.66 Q258.192 1432.66 254.343 1426.93 Q250.524 1421.17 250.524 1410.26 Q250.524 1399.33 254.343 1393.6 Q258.192 1387.84 265.454 1387.84 Z" fill="#000000" fill-rule="nonzero" fill-opacity="1" /><path clip-path="url(#clip900)" d="M134.755 1097.55 Q130.241 1097.55 127.955 1102.01 Q125.698 1106.43 125.698 1115.34 Q125.698 1124.23 127.955 1128.68 Q130.241 1133.11 134.755 1133.11 Q139.298 1133.11 141.555 1128.68 Q143.84 1124.23 143.84 1115.34 Q143.84 1106.43 141.555 1102.01 Q139.298 1097.55 134.755 1097.55 M134.755 1092.92 Q142.018 1092.92 145.837 1098.68 Q149.685 1104.41 149.685 1115.34 Q149.685 1126.25 145.837 1132.01 Q142.018 1137.74 134.755 1137.74 Q127.492 1137.74 123.644 1132.01 Q119.824 1126.25 119.824 1115.34 Q119.824 1104.41 123.644 1098.68 Q127.492 1092.92 134.755 1092.92 Z" fill="#000000" fill-rule="nonzero" fill-opacity="1" /><path clip-path="url(#clip900)" d="M159.957 1129.55 L166.063 1129.55 L166.063 1136.9 L159.957 1136.9 L159.957 1129.55 Z" fill="#000000" fill-rule="nonzero" fill-opacity="1" /><path clip-path="url(#clip900)" d="M191.294 1097.55 Q186.78 1097.55 184.494 1102.01 Q182.237 1106.43 182.237 1115.34 Q182.237 1124.23 184.494 1128.68 Q186.78 1133.11 191.294 1133.11 Q195.837 1133.11 198.094 1128.68 Q200.379 1124.23 200.379 1115.34 Q200.379 1106.43 198.094 1102.01 Q195.837 1097.55 191.294 1097.55 M191.294 1092.92 Q198.557 1092.92 202.376 1098.68 Q206.224 1104.41 206.224 1115.34 Q206.224 1126.25 202.376 1132.01 Q198.557 1137.74 191.294 1137.74 Q184.031 1137.74 180.183 1132.01 Q176.363 1126.25 176.363 1115.34 Q176.363 1104.41 180.183 1098.68 Q184.031 1092.92 191.294 1092.92 Z" fill="#000000" fill-rule="nonzero" fill-opacity="1" /><path clip-path="url(#clip900)" d="M228.996 1097.55 Q224.482 1097.55 222.197 1102.01 Q219.94 1106.43 219.94 1115.34 Q219.94 1124.23 222.197 1128.68 Q224.482 1133.11 228.996 1133.11 Q233.539 1133.11 235.796 1128.68 Q238.082 1124.23 238.082 1115.34 Q238.082 1106.43 235.796 1102.01 Q233.539 1097.55 228.996 1097.55 M228.996 1092.92 Q236.259 1092.92 240.078 1098.68 Q243.927 1104.41 243.927 1115.34 Q243.927 1126.25 240.078 1132.01 Q236.259 1137.74 228.996 1137.74 Q221.734 1137.74 217.885 1132.01 Q214.066 1126.25 214.066 1115.34 Q214.066 1104.41 217.885 1098.68 Q221.734 1092.92 228.996 1092.92 Z" fill="#000000" fill-rule="nonzero" fill-opacity="1" /><path clip-path="url(#clip900)" d="M254.257 1093.7 L277.202 1093.7 L277.202 1098.62 L259.609 1098.62 L259.609 1109.21 Q260.883 1108.78 262.156 1108.57 Q263.429 1108.34 264.702 1108.34 Q271.936 1108.34 276.16 1112.31 Q280.385 1116.27 280.385 1123.04 Q280.385 1130.02 276.045 1133.89 Q271.704 1137.74 263.805 1137.74 Q261.085 1137.74 258.25 1137.28 Q255.443 1136.81 252.434 1135.89 L252.434 1130.02 Q255.038 1131.43 257.816 1132.13 Q260.593 1132.82 263.689 1132.82 Q268.695 1132.82 271.618 1130.19 Q274.54 1127.56 274.54 1123.04 Q274.54 1118.53 271.618 1115.89 Q268.695 1113.26 263.689 1113.26 Q261.346 1113.26 259.002 1113.78 Q256.687 1114.3 254.257 1115.4 L254.257 1093.7 Z" fill="#000000" fill-rule="nonzero" fill-opacity="1" /><path clip-path="url(#clip900)" d="M133.511 802.632 Q128.997 802.632 126.711 807.088 Q124.454 811.515 124.454 820.427 Q124.454 829.31 126.711 833.766 Q128.997 838.193 133.511 838.193 Q138.053 838.193 140.31 833.766 Q142.596 829.31 142.596 820.427 Q142.596 811.515 140.31 807.088 Q138.053 802.632 133.511 802.632 M133.511 798.002 Q140.773 798.002 144.593 803.76 Q148.441 809.489 148.441 820.427 Q148.441 831.335 144.593 837.093 Q140.773 842.822 133.511 842.822 Q126.248 842.822 122.4 837.093 Q118.58 831.335 118.58 820.427 Q118.58 809.489 122.4 803.76 Q126.248 798.002 133.511 798.002 Z" fill="#000000" fill-rule="nonzero" fill-opacity="1" /><path clip-path="url(#clip900)" d="M158.713 834.634 L164.818 834.634 L164.818 841.983 L158.713 841.983 L158.713 834.634 Z" fill="#000000" fill-rule="nonzero" fill-opacity="1" /><path clip-path="url(#clip900)" d="M190.05 802.632 Q185.536 802.632 183.25 807.088 Q180.993 811.515 180.993 820.427 Q180.993 829.31 183.25 833.766 Q185.536 838.193 190.05 838.193 Q194.592 838.193 196.849 833.766 Q199.135 829.31 199.135 820.427 Q199.135 811.515 196.849 807.088 Q194.592 802.632 190.05 802.632 M190.05 798.002 Q197.312 798.002 201.132 803.76 Q204.98 809.489 204.98 820.427 Q204.98 831.335 201.132 837.093 Q197.312 842.822 190.05 842.822 Q182.787 842.822 178.939 837.093 Q175.119 831.335 175.119 820.427 Q175.119 809.489 178.939 803.76 Q182.787 798.002 190.05 798.002 Z" fill="#000000" fill-rule="nonzero" fill-opacity="1" /><path clip-path="url(#clip900)" d="M216.265 837.064 L225.813 837.064 L225.813 804.107 L215.426 806.191 L215.426 800.867 L225.756 798.783 L231.6 798.783 L231.6 837.064 L241.149 837.064 L241.149 841.983 L216.265 841.983 L216.265 837.064 Z" fill="#000000" fill-rule="nonzero" fill-opacity="1" /><path clip-path="url(#clip900)" d="M265.454 802.632 Q260.941 802.632 258.655 807.088 Q256.398 811.515 256.398 820.427 Q256.398 829.31 258.655 833.766 Q260.941 838.193 265.454 838.193 Q269.997 838.193 272.254 833.766 Q274.54 829.31 274.54 820.427 Q274.54 811.515 272.254 807.088 Q269.997 802.632 265.454 802.632 M265.454 798.002 Q272.717 798.002 276.536 803.76 Q280.385 809.489 280.385 820.427 Q280.385 831.335 276.536 837.093 Q272.717 842.822 265.454 842.822 Q258.192 842.822 254.343 837.093 Q250.524 831.335 250.524 820.427 Q250.524 809.489 254.343 803.76 Q258.192 798.002 265.454 798.002 Z" fill="#000000" fill-rule="nonzero" fill-opacity="1" /><path clip-path="url(#clip900)" d="M134.755 507.713 Q130.241 507.713 127.955 512.169 Q125.698 516.596 125.698 525.508 Q125.698 534.391 127.955 538.847 Q130.241 543.274 134.755 543.274 Q139.298 543.274 141.555 538.847 Q143.84 534.391 143.84 525.508 Q143.84 516.596 141.555 512.169 Q139.298 507.713 134.755 507.713 M134.755 503.084 Q142.018 503.084 145.837 508.842 Q149.685 514.571 149.685 525.508 Q149.685 536.417 145.837 542.175 Q142.018 547.904 134.755 547.904 Q127.492 547.904 123.644 542.175 Q119.824 536.417 119.824 525.508 Q119.824 514.571 123.644 508.842 Q127.492 503.084 134.755 503.084 Z" fill="#000000" fill-rule="nonzero" fill-opacity="1" /><path clip-path="url(#clip900)" d="M159.957 539.715 L166.063 539.715 L166.063 547.065 L159.957 547.065 L159.957 539.715 Z" fill="#000000" fill-rule="nonzero" fill-opacity="1" /><path clip-path="url(#clip900)" d="M191.294 507.713 Q186.78 507.713 184.494 512.169 Q182.237 516.596 182.237 525.508 Q182.237 534.391 184.494 538.847 Q186.78 543.274 191.294 543.274 Q195.837 543.274 198.094 538.847 Q200.379 534.391 200.379 525.508 Q200.379 516.596 198.094 512.169 Q195.837 507.713 191.294 507.713 M191.294 503.084 Q198.557 503.084 202.376 508.842 Q206.224 514.571 206.224 525.508 Q206.224 536.417 202.376 542.175 Q198.557 547.904 191.294 547.904 Q184.031 547.904 180.183 542.175 Q176.363 536.417 176.363 525.508 Q176.363 514.571 180.183 508.842 Q184.031 503.084 191.294 503.084 Z" fill="#000000" fill-rule="nonzero" fill-opacity="1" /><path clip-path="url(#clip900)" d="M217.509 542.146 L227.058 542.146 L227.058 509.189 L216.67 511.272 L216.67 505.948 L227 503.865 L232.845 503.865 L232.845 542.146 L242.393 542.146 L242.393 547.065 L217.509 547.065 L217.509 542.146 Z" fill="#000000" fill-rule="nonzero" fill-opacity="1" /><path clip-path="url(#clip900)" d="M254.257 503.865 L277.202 503.865 L277.202 508.784 L259.609 508.784 L259.609 519.374 Q260.883 518.94 262.156 518.738 Q263.429 518.506 264.702 518.506 Q271.936 518.506 276.16 522.47 Q280.385 526.434 280.385 533.205 Q280.385 540.178 276.045 544.056 Q271.704 547.904 263.805 547.904 Q261.085 547.904 258.25 547.441 Q255.443 546.978 252.434 546.052 L252.434 540.178 Q255.038 541.596 257.816 542.291 Q260.593 542.985 263.689 542.985 Q268.695 542.985 271.618 540.352 Q274.54 537.719 274.54 533.205 Q274.54 528.691 271.618 526.058 Q268.695 523.425 263.689 523.425 Q261.346 523.425 259.002 523.946 Q256.687 524.467 254.257 525.566 L254.257 503.865 Z" fill="#000000" fill-rule="nonzero" fill-opacity="1" /><path clip-path="url(#clip900)" d="M133.511 212.795 Q128.997 212.795 126.711 217.251 Q124.454 221.678 124.454 230.59 Q124.454 239.473 126.711 243.929 Q128.997 248.356 133.511 248.356 Q138.053 248.356 140.31 243.929 Q142.596 239.473 142.596 230.59 Q142.596 221.678 140.31 217.251 Q138.053 212.795 133.511 212.795 M133.511 208.165 Q140.773 208.165 144.593 213.924 Q148.441 219.653 148.441 230.59 Q148.441 241.499 144.593 247.257 Q140.773 252.986 133.511 252.986 Q126.248 252.986 122.4 247.257 Q118.58 241.499 118.58 230.59 Q118.58 219.653 122.4 213.924 Q126.248 208.165 133.511 208.165 Z" fill="#000000" fill-rule="nonzero" fill-opacity="1" /><path clip-path="url(#clip900)" d="M158.713 244.797 L164.818 244.797 L164.818 252.147 L158.713 252.147 L158.713 244.797 Z" fill="#000000" fill-rule="nonzero" fill-opacity="1" /><path clip-path="url(#clip900)" d="M190.05 212.795 Q185.536 212.795 183.25 217.251 Q180.993 221.678 180.993 230.59 Q180.993 239.473 183.25 243.929 Q185.536 248.356 190.05 248.356 Q194.592 248.356 196.849 243.929 Q199.135 239.473 199.135 230.59 Q199.135 221.678 196.849 217.251 Q194.592 212.795 190.05 212.795 M190.05 208.165 Q197.312 208.165 201.132 213.924 Q204.98 219.653 204.98 230.59 Q204.98 241.499 201.132 247.257 Q197.312 252.986 190.05 252.986 Q182.787 252.986 178.939 247.257 Q175.119 241.499 175.119 230.59 Q175.119 219.653 178.939 213.924 Q182.787 208.165 190.05 208.165 Z" fill="#000000" fill-rule="nonzero" fill-opacity="1" /><path clip-path="url(#clip900)" d="M220.287 247.228 L240.686 247.228 L240.686 252.147 L213.256 252.147 L213.256 247.228 Q216.583 243.784 222.312 237.997 Q228.07 232.182 229.546 230.503 Q232.353 227.349 233.452 225.179 Q234.581 222.98 234.581 220.868 Q234.581 217.425 232.15 215.255 Q229.749 213.084 225.871 213.084 Q223.122 213.084 220.055 214.039 Q217.017 214.994 213.545 216.933 L213.545 211.03 Q217.075 209.612 220.142 208.889 Q223.209 208.165 225.756 208.165 Q232.468 208.165 236.461 211.522 Q240.455 214.878 240.455 220.492 Q240.455 223.154 239.442 225.555 Q238.458 227.928 235.825 231.169 Q235.102 232.008 231.224 236.03 Q227.347 240.023 220.287 247.228 Z" fill="#000000" fill-rule="nonzero" fill-opacity="1" /><path clip-path="url(#clip900)" d="M265.454 212.795 Q260.941 212.795 258.655 217.251 Q256.398 221.678 256.398 230.59 Q256.398 239.473 258.655 243.929 Q260.941 248.356 265.454 248.356 Q269.997 248.356 272.254 243.929 Q274.54 239.473 274.54 230.59 Q274.54 221.678 272.254 217.251 Q269.997 212.795 265.454 212.795 M265.454 208.165 Q272.717 208.165 276.536 213.924 Q280.385 219.653 280.385 230.59 Q280.385 241.499 276.536 247.257 Q272.717 252.986 265.454 252.986 Q258.192 252.986 254.343 247.257 Q250.524 241.499 250.524 230.59 Q250.524 219.653 254.343 213.924 Q258.192 208.165 265.454 208.165 Z" fill="#000000" fill-rule="nonzero" fill-opacity="1" /><path clip-path="url(#clip900)" d="M13.0007 792.325 L13.0007 785.937 L67.0282 785.937 L67.0282 792.325 L13.0007 792.325 Z" fill="#000000" fill-rule="nonzero" fill-opacity="1" /><path clip-path="url(#clip900)" d="M32.6186 757.499 Q32.6186 762.638 36.6464 765.624 Q40.6394 768.61 47.6185 768.61 Q54.5977 768.61 58.6254 765.659 Q62.6185 762.673 62.6185 757.499 Q62.6185 752.395 58.5907 749.409 Q54.5629 746.423 47.6185 746.423 Q40.7089 746.423 36.6811 749.409 Q32.6186 752.395 32.6186 757.499 M27.202 757.499 Q27.202 749.166 32.6186 744.409 Q38.0353 739.652 47.6185 739.652 Q57.1671 739.652 62.6185 744.409 Q68.0351 749.166 68.0351 757.499 Q68.0351 765.867 62.6185 770.624 Q57.1671 775.346 47.6185 775.346 Q38.0353 775.346 32.6186 770.624 Q27.202 765.867 27.202 757.499 Z" fill="#000000" fill-rule="nonzero" fill-opacity="1" /><path clip-path="url(#clip900)" d="M29.2853 704.27 L35.3269 704.27 Q33.9381 706.979 33.2436 709.895 Q32.5492 712.812 32.5492 715.937 Q32.5492 720.694 34.0075 723.09 Q35.4658 725.451 38.3825 725.451 Q40.6047 725.451 41.8894 723.749 Q43.1394 722.048 44.2852 716.909 L44.7713 714.722 Q46.2297 707.916 48.9033 705.069 Q51.5421 702.187 56.299 702.187 Q61.7157 702.187 64.8754 706.493 Q68.0351 710.763 68.0351 718.263 Q68.0351 721.388 67.4101 724.791 Q66.8198 728.159 65.6046 731.909 L59.0074 731.909 Q60.8476 728.367 61.7851 724.93 Q62.6879 721.492 62.6879 718.124 Q62.6879 713.611 61.1601 711.18 Q59.5976 708.749 56.7852 708.749 Q54.181 708.749 52.7921 710.52 Q51.4032 712.256 50.1185 718.194 L49.5977 720.416 Q48.3477 726.354 45.7783 728.992 Q43.1741 731.631 38.6603 731.631 Q33.1742 731.631 30.1881 727.742 Q27.202 723.854 27.202 716.701 Q27.202 713.159 27.7228 710.034 Q28.2436 706.909 29.2853 704.27 Z" fill="#000000" fill-rule="nonzero" fill-opacity="1" /><path clip-path="url(#clip900)" d="M29.2853 667.222 L35.3269 667.222 Q33.9381 669.93 33.2436 672.847 Q32.5492 675.764 32.5492 678.888 Q32.5492 683.645 34.0075 686.041 Q35.4658 688.402 38.3825 688.402 Q40.6047 688.402 41.8894 686.701 Q43.1394 685 44.2852 679.861 L44.7713 677.673 Q46.2297 670.868 48.9033 668.02 Q51.5421 665.139 56.299 665.139 Q61.7157 665.139 64.8754 669.444 Q68.0351 673.715 68.0351 681.215 Q68.0351 684.34 67.4101 687.743 Q66.8198 691.111 65.6046 694.861 L59.0074 694.861 Q60.8476 691.319 61.7851 687.881 Q62.6879 684.444 62.6879 681.076 Q62.6879 676.562 61.1601 674.132 Q59.5976 671.701 56.7852 671.701 Q54.181 671.701 52.7921 673.472 Q51.4032 675.208 50.1185 681.145 L49.5977 683.368 Q48.3477 689.305 45.7783 691.944 Q43.1741 694.583 38.6603 694.583 Q33.1742 694.583 30.1881 690.694 Q27.202 686.805 27.202 679.652 Q27.202 676.111 27.7228 672.986 Q28.2436 669.861 29.2853 667.222 Z" fill="#000000" fill-rule="nonzero" fill-opacity="1" /><path clip-path="url(#clip902)" d="M428.389 47.2443 L428.389 1410.22 L576.337 1410.22 L576.337 47.2443 L428.389 47.2443 L428.389 47.2443  Z" fill="#009af9" fill-rule="evenodd" fill-opacity="1"/>
<polyline clip-path="url(#clip902)" style="stroke:#000000; stroke-linecap:round; stroke-linejoin:round; stroke-width:4; stroke-opacity:1; fill:none" points="428.389,47.2443 428.389,1410.22 576.337,1410.22 576.337,47.2443 428.389,47.2443 "/>
<path clip-path="url(#clip902)" d="M613.324 47.2441 L613.324 1410.22 L761.272 1410.22 L761.272 47.2441 L613.324 47.2441 L613.324 47.2441  Z" fill="#009af9" fill-rule="evenodd" fill-opacity="1"/>
<polyline clip-path="url(#clip902)" style="stroke:#000000; stroke-linecap:round; stroke-linejoin:round; stroke-width:4; stroke-opacity:1; fill:none" points="613.324,47.2441 613.324,1410.22 761.272,1410.22 761.272,47.2441 613.324,47.2441 "/>
<path clip-path="url(#clip902)" d="M798.259 848.755 L798.259 1410.22 L946.207 1410.22 L946.207 848.755 L798.259 848.755 L798.259 848.755  Z" fill="#009af9" fill-rule="evenodd" fill-opacity="1"/>
<polyline clip-path="url(#clip902)" style="stroke:#000000; stroke-linecap:round; stroke-linejoin:round; stroke-width:4; stroke-opacity:1; fill:none" points="798.259,848.755 798.259,1410.22 946.207,1410.22 946.207,848.755 798.259,848.755 "/>
<path clip-path="url(#clip902)" d="M983.194 879.597 L983.194 1410.22 L1131.14 1410.22 L1131.14 879.597 L983.194 879.597 L983.194 879.597  Z" fill="#009af9" fill-rule="evenodd" fill-opacity="1"/>
<polyline clip-path="url(#clip902)" style="stroke:#000000; stroke-linecap:round; stroke-linejoin:round; stroke-width:4; stroke-opacity:1; fill:none" points="983.194,879.597 983.194,1410.22 1131.14,1410.22 1131.14,879.597 983.194,879.597 "/>
<path clip-path="url(#clip902)" d="M1168.13 1094.06 L1168.13 1410.22 L1316.08 1410.22 L1316.08 1094.06 L1168.13 1094.06 L1168.13 1094.06  Z" fill="#009af9" fill-rule="evenodd" fill-opacity="1"/>
<polyline clip-path="url(#clip902)" style="stroke:#000000; stroke-linecap:round; stroke-linejoin:round; stroke-width:4; stroke-opacity:1; fill:none" points="1168.13,1094.06 1168.13,1410.22 1316.08,1410.22 1316.08,1094.06 1168.13,1094.06 "/>
<path clip-path="url(#clip902)" d="M1353.06 1393.89 L1353.06 1410.22 L1501.01 1410.22 L1501.01 1393.89 L1353.06 1393.89 L1353.06 1393.89  Z" fill="#009af9" fill-rule="evenodd" fill-opacity="1"/>
<polyline clip-path="url(#clip902)" style="stroke:#000000; stroke-linecap:round; stroke-linejoin:round; stroke-width:4; stroke-opacity:1; fill:none" points="1353.06,1393.89 1353.06,1410.22 1501.01,1410.22 1501.01,1393.89 1353.06,1393.89 "/>
<path clip-path="url(#clip902)" d="M1538 1409.07 L1538 1410.22 L1685.95 1410.22 L1685.95 1409.07 L1538 1409.07 L1538 1409.07  Z" fill="#009af9" fill-rule="evenodd" fill-opacity="1"/>
<polyline clip-path="url(#clip902)" style="stroke:#000000; stroke-linecap:round; stroke-linejoin:round; stroke-width:4; stroke-opacity:1; fill:none" points="1538,1409.07 1538,1410.22 1685.95,1410.22 1685.95,1409.07 1538,1409.07 "/>
<path clip-path="url(#clip902)" d="M1722.93 1409.07 L1722.93 1410.22 L1870.88 1410.22 L1870.88 1409.07 L1722.93 1409.07 L1722.93 1409.07  Z" fill="#009af9" fill-rule="evenodd" fill-opacity="1"/>
<polyline clip-path="url(#clip902)" style="stroke:#000000; stroke-linecap:round; stroke-linejoin:round; stroke-width:4; stroke-opacity:1; fill:none" points="1722.93,1409.07 1722.93,1410.22 1870.88,1410.22 1870.88,1409.07 1722.93,1409.07 "/>
<path clip-path="url(#clip902)" d="M1907.87 1409.11 L1907.87 1410.22 L2055.82 1410.22 L2055.82 1409.11 L1907.87 1409.11 L1907.87 1409.11  Z" fill="#009af9" fill-rule="evenodd" fill-opacity="1"/>
<polyline clip-path="url(#clip902)" style="stroke:#000000; stroke-linecap:round; stroke-linejoin:round; stroke-width:4; stroke-opacity:1; fill:none" points="1907.87,1409.11 1907.87,1410.22 2055.82,1410.22 2055.82,1409.11 1907.87,1409.11 "/>
<path clip-path="url(#clip902)" d="M2092.8 1409.11 L2092.8 1410.22 L2240.75 1410.22 L2240.75 1409.11 L2092.8 1409.11 L2092.8 1409.11  Z" fill="#009af9" fill-rule="evenodd" fill-opacity="1"/>
<polyline clip-path="url(#clip902)" style="stroke:#000000; stroke-linecap:round; stroke-linejoin:round; stroke-width:4; stroke-opacity:1; fill:none" points="2092.8,1409.11 2092.8,1410.22 2240.75,1410.22 2240.75,1409.11 2092.8,1409.11 "/>
<circle clip-path="url(#clip902)" style="fill:#009af9; stroke:none; fill-opacity:0" cx="502.363" cy="47.2443" r="2"/>
<circle clip-path="url(#clip902)" style="fill:#009af9; stroke:none; fill-opacity:0" cx="687.298" cy="47.2441" r="2"/>
<circle clip-path="url(#clip902)" style="fill:#009af9; stroke:none; fill-opacity:0" cx="872.233" cy="848.755" r="2"/>
<circle clip-path="url(#clip902)" style="fill:#009af9; stroke:none; fill-opacity:0" cx="1057.17" cy="879.597" r="2"/>
<circle clip-path="url(#clip902)" style="fill:#009af9; stroke:none; fill-opacity:0" cx="1242.1" cy="1094.06" r="2"/>
<circle clip-path="url(#clip902)" style="fill:#009af9; stroke:none; fill-opacity:0" cx="1427.04" cy="1393.89" r="2"/>
<circle clip-path="url(#clip902)" style="fill:#009af9; stroke:none; fill-opacity:0" cx="1611.97" cy="1409.07" r="2"/>
<circle clip-path="url(#clip902)" style="fill:#009af9; stroke:none; fill-opacity:0" cx="1796.91" cy="1409.07" r="2"/>
<circle clip-path="url(#clip902)" style="fill:#009af9; stroke:none; fill-opacity:0" cx="1981.84" cy="1409.11" r="2"/>
<circle clip-path="url(#clip902)" style="fill:#009af9; stroke:none; fill-opacity:0" cx="2166.78" cy="1409.11" r="2"/>
</svg>
