<?xml version="1.0" encoding="utf-8"?>
<svg xmlns="http://www.w3.org/2000/svg" xmlns:xlink="http://www.w3.org/1999/xlink" width="600" height="400" viewBox="0 0 2400 1600">
<defs>
  <clipPath id="clip840">
    <rect x="0" y="0" width="2400" height="1600"/>
  </clipPath>
</defs>
<path clip-path="url(#clip840)" d="M0 1600 L2400 1600 L2400 0 L0 0  Z" fill="#ffffff" fill-rule="evenodd" fill-opacity="1"/>
<defs>
  <clipPath id="clip841">
    <rect x="480" y="0" width="1681" height="1600"/>
  </clipPath>
</defs>
<path clip-path="url(#clip840)" d="M243.775 592.94 L2352.76 592.94 L2352.76 47.2441 L243.775 47.2441  Z" fill="#ffffff" fill-rule="evenodd" fill-opacity="1"/>
<defs>
  <clipPath id="clip842">
    <rect x="243" y="47" width="2110" height="547"/>
  </clipPath>
</defs>
<polyline clip-path="url(#clip840)" style="stroke:#000000; stroke-linecap:round; stroke-linejoin:round; stroke-width:4; stroke-opacity:1; fill:none" points="243.775,592.94 2352.76,592.94 "/>
<polyline clip-path="url(#clip840)" style="stroke:#000000; stroke-linecap:round; stroke-linejoin:round; stroke-width:4; stroke-opacity:1; fill:none" points="303.463,592.94 303.463,574.042 "/>
<polyline clip-path="url(#clip840)" style="stroke:#000000; stroke-linecap:round; stroke-linejoin:round; stroke-width:4; stroke-opacity:1; fill:none" points="966.665,592.94 966.665,574.042 "/>
<polyline clip-path="url(#clip840)" style="stroke:#000000; stroke-linecap:round; stroke-linejoin:round; stroke-width:4; stroke-opacity:1; fill:none" points="1629.87,592.94 1629.87,574.042 "/>
<polyline clip-path="url(#clip840)" style="stroke:#000000; stroke-linecap:round; stroke-linejoin:round; stroke-width:4; stroke-opacity:1; fill:none" points="2293.07,592.94 2293.07,574.042 "/>
<path clip-path="url(#clip840)" d="M303.463 629.718 Q298.047 629.718 295.304 635.065 Q292.595 640.378 292.595 651.072 Q292.595 661.732 295.304 667.079 Q298.047 672.391 303.463 672.391 Q308.915 672.391 311.623 667.079 Q314.366 661.732 314.366 651.072 Q314.366 640.378 311.623 635.065 Q308.915 629.718 303.463 629.718 M303.463 624.162 Q312.179 624.162 316.762 631.072 Q321.38 637.947 321.38 651.072 Q321.38 664.162 316.762 671.072 Q312.179 677.947 303.463 677.947 Q294.748 677.947 290.13 671.072 Q285.547 664.162 285.547 651.072 Q285.547 637.947 290.13 631.072 Q294.748 624.162 303.463 624.162 Z" fill="#000000" fill-rule="nonzero" fill-opacity="1" /><path clip-path="url(#clip840)" d="M952.082 625.1 L979.616 625.1 L979.616 631.003 L958.505 631.003 L958.505 643.711 Q960.033 643.19 961.561 642.947 Q963.088 642.669 964.616 642.669 Q973.297 642.669 978.366 647.426 Q983.436 652.183 983.436 660.308 Q983.436 668.676 978.227 673.329 Q973.019 677.947 963.54 677.947 Q960.276 677.947 956.873 677.391 Q953.505 676.836 949.894 675.725 L949.894 668.676 Q953.019 670.377 956.352 671.211 Q959.686 672.044 963.401 672.044 Q969.408 672.044 972.915 668.884 Q976.422 665.725 976.422 660.308 Q976.422 654.891 972.915 651.732 Q969.408 648.572 963.401 648.572 Q960.589 648.572 957.776 649.197 Q954.998 649.822 952.082 651.141 L952.082 625.1 Z" fill="#000000" fill-rule="nonzero" fill-opacity="1" /><path clip-path="url(#clip840)" d="M1591.9 671.037 L1603.36 671.037 L1603.36 631.489 L1590.89 633.989 L1590.89 627.6 L1603.29 625.1 L1610.3 625.1 L1610.3 671.037 L1621.76 671.037 L1621.76 676.94 L1591.9 676.94 L1591.9 671.037 Z" fill="#000000" fill-rule="nonzero" fill-opacity="1" /><path clip-path="url(#clip840)" d="M1650.93 629.718 Q1645.51 629.718 1642.77 635.065 Q1640.06 640.378 1640.06 651.072 Q1640.06 661.732 1642.77 667.079 Q1645.51 672.391 1650.93 672.391 Q1656.38 672.391 1659.08 667.079 Q1661.83 661.732 1661.83 651.072 Q1661.83 640.378 1659.08 635.065 Q1656.38 629.718 1650.93 629.718 M1650.93 624.162 Q1659.64 624.162 1664.22 631.072 Q1668.84 637.947 1668.84 651.072 Q1668.84 664.162 1664.22 671.072 Q1659.64 677.947 1650.93 677.947 Q1642.21 677.947 1637.59 671.072 Q1633.01 664.162 1633.01 651.072 Q1633.01 637.947 1637.59 631.072 Q1642.21 624.162 1650.93 624.162 Z" fill="#000000" fill-rule="nonzero" fill-opacity="1" /><path clip-path="url(#clip840)" d="M2255.85 671.037 L2267.3 671.037 L2267.3 631.489 L2254.84 633.989 L2254.84 627.6 L2267.23 625.1 L2274.25 625.1 L2274.25 671.037 L2285.71 671.037 L2285.71 676.94 L2255.85 676.94 L2255.85 671.037 Z" fill="#000000" fill-rule="nonzero" fill-opacity="1" /><path clip-path="url(#clip840)" d="M2299.94 625.1 L2327.48 625.1 L2327.48 631.003 L2306.37 631.003 L2306.37 643.711 Q2307.89 643.19 2309.42 642.947 Q2310.95 642.669 2312.48 642.669 Q2321.16 642.669 2326.23 647.426 Q2331.3 652.183 2331.3 660.308 Q2331.3 668.676 2326.09 673.329 Q2320.88 677.947 2311.4 677.947 Q2308.14 677.947 2304.73 677.391 Q2301.37 676.836 2297.76 675.725 L2297.76 668.676 Q2300.88 670.377 2304.21 671.211 Q2307.55 672.044 2311.26 672.044 Q2317.27 672.044 2320.78 668.884 Q2324.28 665.725 2324.28 660.308 Q2324.28 654.891 2320.78 651.732 Q2317.27 648.572 2311.26 648.572 Q2308.45 648.572 2305.64 649.197 Q2302.86 649.822 2299.94 651.141 L2299.94 625.1 Z" fill="#000000" fill-rule="nonzero" fill-opacity="1" /><path clip-path="url(#clip840)" d="M1240.99 721.024 L1240.99 733.906 L1256.34 733.906 L1256.34 739.699 L1240.99 739.699 L1240.99 764.328 Q1240.99 769.878 1242.48 771.458 Q1244.02 773.037 1248.68 773.037 L1256.34 773.037 L1256.34 779.276 L1248.68 779.276 Q1240.05 779.276 1236.77 776.076 Q1233.49 772.835 1233.49 764.328 L1233.49 739.699 L1228.02 739.699 L1228.02 733.906 L1233.49 733.906 L1233.49 721.024 L1240.99 721.024 Z" fill="#000000" fill-rule="nonzero" fill-opacity="1" /><path clip-path="url(#clip840)" d="M1284.05 716.325 Q1278.62 725.642 1275.99 734.756 Q1273.35 743.871 1273.35 753.229 Q1273.35 762.586 1275.99 771.782 Q1278.66 780.937 1284.05 790.213 L1277.57 790.213 Q1271.49 780.694 1268.45 771.498 Q1265.45 762.303 1265.45 753.229 Q1265.45 744.195 1268.45 735.04 Q1271.45 725.885 1277.57 716.325 L1284.05 716.325 Z" fill="#000000" fill-rule="nonzero" fill-opacity="1" /><path clip-path="url(#clip840)" d="M1336.22 751.892 L1336.22 779.276 L1328.77 779.276 L1328.77 752.135 Q1328.77 745.694 1326.26 742.494 Q1323.75 739.293 1318.72 739.293 Q1312.69 739.293 1309.2 743.142 Q1305.72 746.99 1305.72 753.634 L1305.72 779.276 L1298.23 779.276 L1298.23 716.244 L1305.72 716.244 L1305.72 740.954 Q1308.39 736.863 1312 734.837 Q1315.64 732.812 1320.38 732.812 Q1328.2 732.812 1332.21 737.673 Q1336.22 742.494 1336.22 751.892 Z" fill="#000000" fill-rule="nonzero" fill-opacity="1" /><path clip-path="url(#clip840)" d="M1349.91 716.325 L1356.4 716.325 Q1362.47 725.885 1365.47 735.04 Q1368.51 744.195 1368.51 753.229 Q1368.51 762.303 1365.47 771.498 Q1362.47 780.694 1356.4 790.213 L1349.91 790.213 Q1355.3 780.937 1357.94 771.782 Q1360.61 762.586 1360.61 753.229 Q1360.61 743.871 1357.94 734.756 Q1355.3 725.642 1349.91 716.325 Z" fill="#000000" fill-rule="nonzero" fill-opacity="1" /><polyline clip-path="url(#clip840)" style="stroke:#000000; stroke-linecap:round; stroke-linejoin:round; stroke-width:4; stroke-opacity:1; fill:none" points="243.775,592.94 243.775,47.2441 "/>
<polyline clip-path="url(#clip840)" style="stroke:#000000; stroke-linecap:round; stroke-linejoin:round; stroke-width:4; stroke-opacity:1; fill:none" points="243.775,577.607 262.673,577.607 "/>
<polyline clip-path="url(#clip840)" style="stroke:#000000; stroke-linecap:round; stroke-linejoin:round; stroke-width:4; stroke-opacity:1; fill:none" points="243.775,468.94 262.673,468.94 "/>
<polyline clip-path="url(#clip840)" style="stroke:#000000; stroke-linecap:round; stroke-linejoin:round; stroke-width:4; stroke-opacity:1; fill:none" points="243.775,360.273 262.673,360.273 "/>
<polyline clip-path="url(#clip840)" style="stroke:#000000; stroke-linecap:round; stroke-linejoin:round; stroke-width:4; stroke-opacity:1; fill:none" points="243.775,251.607 262.673,251.607 "/>
<polyline clip-path="url(#clip840)" style="stroke:#000000; stroke-linecap:round; stroke-linejoin:round; stroke-width:4; stroke-opacity:1; fill:none" points="243.775,142.94 262.673,142.94 "/>
<path clip-path="url(#clip840)" d="M189.859 556.305 Q184.442 556.305 181.699 561.652 Q178.991 566.964 178.991 577.659 Q178.991 588.318 181.699 593.666 Q184.442 598.978 189.859 598.978 Q195.31 598.978 198.018 593.666 Q200.761 588.318 200.761 577.659 Q200.761 566.964 198.018 561.652 Q195.31 556.305 189.859 556.305 M189.859 550.749 Q198.574 550.749 203.157 557.659 Q207.775 564.534 207.775 577.659 Q207.775 590.749 203.157 597.659 Q198.574 604.534 189.859 604.534 Q181.143 604.534 176.525 597.659 Q171.942 590.749 171.942 577.659 Q171.942 564.534 176.525 557.659 Q181.143 550.749 189.859 550.749 Z" fill="#000000" fill-rule="nonzero" fill-opacity="1" /><path clip-path="url(#clip840)" d="M183.296 488.957 L207.775 488.957 L207.775 494.86 L174.859 494.86 L174.859 488.957 Q178.852 484.825 185.727 477.881 Q192.636 470.902 194.407 468.888 Q197.775 465.103 199.095 462.499 Q200.449 459.86 200.449 457.325 Q200.449 453.193 197.532 450.589 Q194.65 447.985 189.998 447.985 Q186.699 447.985 183.018 449.131 Q179.373 450.277 175.206 452.603 L175.206 445.52 Q179.442 443.819 183.123 442.95 Q186.803 442.082 189.859 442.082 Q197.914 442.082 202.706 446.11 Q207.498 450.138 207.498 456.874 Q207.498 460.068 206.282 462.95 Q205.102 465.798 201.942 469.686 Q201.074 470.693 196.421 475.52 Q191.768 480.311 183.296 488.957 Z" fill="#000000" fill-rule="nonzero" fill-opacity="1" /><path clip-path="url(#clip840)" d="M193.4 340.464 L175.692 368.138 L193.4 368.138 L193.4 340.464 M191.56 334.353 L200.379 334.353 L200.379 368.138 L207.775 368.138 L207.775 373.971 L200.379 373.971 L200.379 386.193 L193.4 386.193 L193.4 373.971 L169.998 373.971 L169.998 367.2 L191.56 334.353 Z" fill="#000000" fill-rule="nonzero" fill-opacity="1" /><path clip-path="url(#clip840)" d="M190.484 248.811 Q185.762 248.811 182.984 252.041 Q180.241 255.27 180.241 260.895 Q180.241 266.485 182.984 269.749 Q185.762 272.978 190.484 272.978 Q195.206 272.978 197.949 269.749 Q200.727 266.485 200.727 260.895 Q200.727 255.27 197.949 252.041 Q195.206 248.811 190.484 248.811 M204.407 226.832 L204.407 233.221 Q201.768 231.971 199.06 231.312 Q196.386 230.652 193.748 230.652 Q186.803 230.652 183.123 235.339 Q179.477 240.027 178.956 249.506 Q181.005 246.485 184.095 244.888 Q187.185 243.256 190.9 243.256 Q198.713 243.256 203.227 248.013 Q207.775 252.735 207.775 260.895 Q207.775 268.881 203.053 273.707 Q198.331 278.534 190.484 278.534 Q181.491 278.534 176.734 271.659 Q171.977 264.749 171.977 251.659 Q171.977 239.367 177.81 232.075 Q183.643 224.749 193.47 224.749 Q196.109 224.749 198.782 225.27 Q201.491 225.791 204.407 226.832 Z" fill="#000000" fill-rule="nonzero" fill-opacity="1" /><path clip-path="url(#clip840)" d="M189.998 144.242 Q184.998 144.242 182.116 146.916 Q179.268 149.589 179.268 154.277 Q179.268 158.964 182.116 161.638 Q184.998 164.311 189.998 164.311 Q194.998 164.311 197.88 161.638 Q200.761 158.929 200.761 154.277 Q200.761 149.589 197.88 146.916 Q195.032 144.242 189.998 144.242 M182.984 141.256 Q178.47 140.145 175.935 137.055 Q173.435 133.964 173.435 129.52 Q173.435 123.305 177.845 119.694 Q182.289 116.082 189.998 116.082 Q197.741 116.082 202.15 119.694 Q206.56 123.305 206.56 129.52 Q206.56 133.964 204.025 137.055 Q201.525 140.145 197.046 141.256 Q202.116 142.436 204.928 145.874 Q207.775 149.311 207.775 154.277 Q207.775 161.811 203.157 165.839 Q198.574 169.867 189.998 169.867 Q181.421 169.867 176.803 165.839 Q172.22 161.811 172.22 154.277 Q172.22 149.311 175.067 145.874 Q177.914 142.436 182.984 141.256 M180.414 130.18 Q180.414 134.207 182.914 136.464 Q185.449 138.721 189.998 138.721 Q194.511 138.721 197.046 136.464 Q199.616 134.207 199.616 130.18 Q199.616 126.152 197.046 123.895 Q194.511 121.638 189.998 121.638 Q185.449 121.638 182.914 123.895 Q180.414 126.152 180.414 130.18 Z" fill="#000000" fill-rule="nonzero" fill-opacity="1" /><path clip-path="url(#clip840)" d="M60.9234 452.374 Q60.9234 461.286 67.5669 466.552 Q74.2104 471.778 85.6745 471.778 Q97.098 471.778 103.742 466.552 Q110.385 461.286 110.385 452.374 Q110.385 443.462 103.742 438.277 Q97.098 433.051 85.6745 433.051 Q74.2104 433.051 67.5669 438.277 Q60.9234 443.462 60.9234 452.374 M114.76 440.91 L126.548 430.135 L126.548 440.019 L116.866 448.971 Q116.947 450.308 116.988 451.037 Q117.028 451.726 117.028 452.374 Q117.028 465.135 108.522 472.791 Q99.9742 480.407 85.6745 480.407 Q71.3343 480.407 62.8274 472.791 Q54.28 465.135 54.28 452.374 Q54.28 439.654 62.8274 432.039 Q71.3343 424.423 85.6745 424.423 Q96.2068 424.423 103.701 428.676 Q111.195 432.889 114.76 440.91 Z" fill="#000000" fill-rule="nonzero" fill-opacity="1" /><path clip-path="url(#clip840)" d="M70.4836 411.946 L70.4836 404.493 L115.854 404.493 L115.854 411.946 L70.4836 411.946 M52.8216 411.946 L52.8216 404.493 L62.2602 404.493 L62.2602 411.946 L52.8216 411.946 Z" fill="#000000" fill-rule="nonzero" fill-opacity="1" /><path clip-path="url(#clip840)" d="M88.4696 351.183 L115.854 351.183 L115.854 358.636 L88.7126 358.636 Q82.2717 358.636 79.0715 361.148 Q75.8713 363.659 75.8713 368.683 Q75.8713 374.718 79.7196 378.202 Q83.568 381.686 90.2115 381.686 L115.854 381.686 L115.854 389.18 L70.4836 389.18 L70.4836 381.686 L77.5322 381.686 Q73.4407 379.012 71.4153 375.407 Q69.3898 371.761 69.3898 367.022 Q69.3898 359.203 74.2509 355.193 Q79.0715 351.183 88.4696 351.183 Z" fill="#000000" fill-rule="nonzero" fill-opacity="1" /><path clip-path="url(#clip840)" d="M52.9027 318.411 Q62.2197 323.839 71.3343 326.472 Q80.4488 329.105 89.8064 329.105 Q99.164 329.105 108.36 326.472 Q117.515 323.799 126.791 318.411 L126.791 324.892 Q117.272 330.969 108.076 334.007 Q98.8804 337.004 89.8064 337.004 Q80.7729 337.004 71.6178 334.007 Q62.4628 331.009 52.9027 324.892 L52.9027 318.411 Z" fill="#000000" fill-rule="nonzero" fill-opacity="1" /><path clip-path="url(#clip840)" d="M55.3737 303.625 L55.3737 295.442 L108.967 295.442 L108.967 265.992 L115.854 265.992 L115.854 303.625 L55.3737 303.625 Z" fill="#000000" fill-rule="nonzero" fill-opacity="1" /><path clip-path="url(#clip840)" d="M55.3737 244.482 L55.3737 237.595 L123.55 258.66 L123.55 265.547 L55.3737 244.482 Z" fill="#000000" fill-rule="nonzero" fill-opacity="1" /><path clip-path="url(#clip840)" d="M88.4696 192.063 L115.854 192.063 L115.854 199.517 L88.7126 199.517 Q82.2717 199.517 79.0715 202.028 Q75.8713 204.54 75.8713 209.563 Q75.8713 215.599 79.7196 219.083 Q83.568 222.566 90.2115 222.566 L115.854 222.566 L115.854 230.061 L52.8216 230.061 L52.8216 222.566 L77.5322 222.566 Q73.4407 219.893 71.4153 216.288 Q69.3898 212.642 69.3898 207.902 Q69.3898 200.084 74.2509 196.074 Q79.0715 192.063 88.4696 192.063 Z" fill="#000000" fill-rule="nonzero" fill-opacity="1" /><path clip-path="url(#clip840)" d="M52.9027 178.371 L52.9027 171.89 Q62.4628 165.813 71.6178 162.816 Q80.7729 159.777 89.8064 159.777 Q98.8804 159.777 108.076 162.816 Q117.272 165.813 126.791 171.89 L126.791 178.371 Q117.515 172.983 108.36 170.35 Q99.164 167.677 89.8064 167.677 Q80.4488 167.677 71.3343 170.35 Q62.2197 172.983 52.9027 178.371 Z" fill="#000000" fill-rule="nonzero" fill-opacity="1" /><polyline clip-path="url(#clip842)" style="stroke:#000000; stroke-linecap:round; stroke-linejoin:round; stroke-width:12; stroke-opacity:1; fill:none" points="303.463,447.181 436.104,447.181 436.104,576.445 568.744,576.445 568.744,577.291 701.384,577.291 701.384,573.164 834.025,573.164 834.025,560.846 966.665,560.846 966.665,554.063 1099.31,554.063 1099.31,519.675 1231.95,519.675 1231.95,549.341 1364.59,549.341 1364.59,448.208 1497.23,448.208 1497.23,418.741 1629.87,418.741 1629.87,340.378 1762.51,340.378 1762.51,62.6883 1895.15,62.6883 1895.15,125.902 2027.79,125.902 2027.79,576.903 2160.43,576.903 2160.43,577.496 2293.07,577.496 "/>
<path clip-path="url(#clip840)" d="M243.775 1392.94 L2352.76 1392.94 L2352.76 847.244 L243.775 847.244  Z" fill="#ffffff" fill-rule="evenodd" fill-opacity="1"/>
<defs>
  <clipPath id="clip843">
    <rect x="243" y="847" width="2110" height="547"/>
  </clipPath>
</defs>
<polyline clip-path="url(#clip840)" style="stroke:#000000; stroke-linecap:round; stroke-linejoin:round; stroke-width:4; stroke-opacity:1; fill:none" points="243.775,1392.94 2352.76,1392.94 "/>
<polyline clip-path="url(#clip840)" style="stroke:#000000; stroke-linecap:round; stroke-linejoin:round; stroke-width:4; stroke-opacity:1; fill:none" points="243.775,1392.94 243.775,1374.04 "/>
<polyline clip-path="url(#clip840)" style="stroke:#000000; stroke-linecap:round; stroke-linejoin:round; stroke-width:4; stroke-opacity:1; fill:none" points="946.769,1392.94 946.769,1374.04 "/>
<polyline clip-path="url(#clip840)" style="stroke:#000000; stroke-linecap:round; stroke-linejoin:round; stroke-width:4; stroke-opacity:1; fill:none" points="1649.76,1392.94 1649.76,1374.04 "/>
<polyline clip-path="url(#clip840)" style="stroke:#000000; stroke-linecap:round; stroke-linejoin:round; stroke-width:4; stroke-opacity:1; fill:none" points="2352.76,1392.94 2352.76,1374.04 "/>
<path clip-path="url(#clip840)" d="M243.775 1429.72 Q238.359 1429.72 235.616 1435.07 Q232.907 1440.38 232.907 1451.07 Q232.907 1461.73 235.616 1467.08 Q238.359 1472.39 243.775 1472.39 Q249.227 1472.39 251.935 1467.08 Q254.678 1461.73 254.678 1451.07 Q254.678 1440.38 251.935 1435.07 Q249.227 1429.72 243.775 1429.72 M243.775 1424.16 Q252.491 1424.16 257.074 1431.07 Q261.692 1437.95 261.692 1451.07 Q261.692 1464.16 257.074 1471.07 Q252.491 1477.95 243.775 1477.95 Q235.06 1477.95 230.442 1471.07 Q225.859 1464.16 225.859 1451.07 Q225.859 1437.95 230.442 1431.07 Q235.06 1424.16 243.775 1424.16 Z" fill="#000000" fill-rule="nonzero" fill-opacity="1" /><path clip-path="url(#clip840)" d="M932.186 1425.1 L959.72 1425.1 L959.72 1431 L938.609 1431 L938.609 1443.71 Q940.137 1443.19 941.665 1442.95 Q943.192 1442.67 944.72 1442.67 Q953.401 1442.67 958.47 1447.43 Q963.54 1452.18 963.54 1460.31 Q963.54 1468.68 958.331 1473.33 Q953.123 1477.95 943.644 1477.95 Q940.38 1477.95 936.977 1477.39 Q933.609 1476.84 929.998 1475.72 L929.998 1468.68 Q933.123 1470.38 936.456 1471.21 Q939.79 1472.04 943.505 1472.04 Q949.512 1472.04 953.019 1468.88 Q956.526 1465.72 956.526 1460.31 Q956.526 1454.89 953.019 1451.73 Q949.512 1448.57 943.505 1448.57 Q940.692 1448.57 937.88 1449.2 Q935.102 1449.82 932.186 1451.14 L932.186 1425.1 Z" fill="#000000" fill-rule="nonzero" fill-opacity="1" /><path clip-path="url(#clip840)" d="M1611.79 1471.04 L1623.25 1471.04 L1623.25 1431.49 L1610.79 1433.99 L1610.79 1427.6 L1623.18 1425.1 L1630.2 1425.1 L1630.2 1471.04 L1641.65 1471.04 L1641.65 1476.94 L1611.79 1476.94 L1611.79 1471.04 Z" fill="#000000" fill-rule="nonzero" fill-opacity="1" /><path clip-path="url(#clip840)" d="M1670.82 1429.72 Q1665.4 1429.72 1662.66 1435.07 Q1659.95 1440.38 1659.95 1451.07 Q1659.95 1461.73 1662.66 1467.08 Q1665.4 1472.39 1670.82 1472.39 Q1676.27 1472.39 1678.98 1467.08 Q1681.72 1461.73 1681.72 1451.07 Q1681.72 1440.38 1678.98 1435.07 Q1676.27 1429.72 1670.82 1429.72 M1670.82 1424.16 Q1679.54 1424.16 1684.12 1431.07 Q1688.74 1437.95 1688.74 1451.07 Q1688.74 1464.16 1684.12 1471.07 Q1679.54 1477.95 1670.82 1477.95 Q1662.11 1477.95 1657.49 1471.07 Q1652.9 1464.16 1652.9 1451.07 Q1652.9 1437.95 1657.49 1431.07 Q1662.11 1424.16 1670.82 1424.16 Z" fill="#000000" fill-rule="nonzero" fill-opacity="1" /><path clip-path="url(#clip840)" d="M2315.53 1471.04 L2326.99 1471.04 L2326.99 1431.49 L2314.53 1433.99 L2314.53 1427.6 L2326.92 1425.1 L2333.94 1425.1 L2333.94 1471.04 L2345.39 1471.04 L2345.39 1476.94 L2315.53 1476.94 L2315.53 1471.04 Z" fill="#000000" fill-rule="nonzero" fill-opacity="1" /><path clip-path="url(#clip840)" d="M2359.63 1425.1 L2387.17 1425.1 L2387.17 1431 L2366.05 1431 L2366.05 1443.71 Q2367.58 1443.19 2369.11 1442.95 Q2370.64 1442.67 2372.17 1442.67 Q2380.85 1442.67 2385.92 1447.43 Q2390.98 1452.18 2390.98 1460.31 Q2390.98 1468.68 2385.78 1473.33 Q2380.57 1477.95 2371.09 1477.95 Q2367.83 1477.95 2364.42 1477.39 Q2361.05 1476.84 2357.44 1475.72 L2357.44 1468.68 Q2360.57 1470.38 2363.9 1471.21 Q2367.23 1472.04 2370.95 1472.04 Q2376.96 1472.04 2380.46 1468.88 Q2383.97 1465.72 2383.97 1460.31 Q2383.97 1454.89 2380.46 1451.73 Q2376.96 1448.57 2370.95 1448.57 Q2368.14 1448.57 2365.33 1449.2 Q2362.55 1449.82 2359.63 1451.14 L2359.63 1425.1 Z" fill="#000000" fill-rule="nonzero" fill-opacity="1" /><path clip-path="url(#clip840)" d="M1240.99 1521.02 L1240.99 1533.91 L1256.34 1533.91 L1256.34 1539.7 L1240.99 1539.7 L1240.99 1564.33 Q1240.99 1569.88 1242.48 1571.46 Q1244.02 1573.04 1248.68 1573.04 L1256.34 1573.04 L1256.34 1579.28 L1248.68 1579.28 Q1240.05 1579.28 1236.77 1576.08 Q1233.49 1572.83 1233.49 1564.33 L1233.49 1539.7 L1228.02 1539.7 L1228.02 1533.91 L1233.49 1533.91 L1233.49 1521.02 L1240.99 1521.02 Z" fill="#000000" fill-rule="nonzero" fill-opacity="1" /><path clip-path="url(#clip840)" d="M1284.05 1516.32 Q1278.62 1525.64 1275.99 1534.76 Q1273.35 1543.87 1273.35 1553.23 Q1273.35 1562.59 1275.99 1571.78 Q1278.66 1580.94 1284.05 1590.21 L1277.57 1590.21 Q1271.49 1580.69 1268.45 1571.5 Q1265.45 1562.3 1265.45 1553.23 Q1265.45 1544.2 1268.45 1535.04 Q1271.45 1525.88 1277.57 1516.32 L1284.05 1516.32 Z" fill="#000000" fill-rule="nonzero" fill-opacity="1" /><path clip-path="url(#clip840)" d="M1336.22 1551.89 L1336.22 1579.28 L1328.77 1579.28 L1328.77 1552.13 Q1328.77 1545.69 1326.26 1542.49 Q1323.75 1539.29 1318.72 1539.29 Q1312.69 1539.29 1309.2 1543.14 Q1305.72 1546.99 1305.72 1553.63 L1305.72 1579.28 L1298.23 1579.28 L1298.23 1516.24 L1305.72 1516.24 L1305.72 1540.95 Q1308.39 1536.86 1312 1534.84 Q1315.64 1532.81 1320.38 1532.81 Q1328.2 1532.81 1332.21 1537.67 Q1336.22 1542.49 1336.22 1551.89 Z" fill="#000000" fill-rule="nonzero" fill-opacity="1" /><path clip-path="url(#clip840)" d="M1349.91 1516.32 L1356.4 1516.32 Q1362.47 1525.88 1365.47 1535.04 Q1368.51 1544.2 1368.51 1553.23 Q1368.51 1562.3 1365.47 1571.5 Q1362.47 1580.69 1356.4 1590.21 L1349.91 1590.21 Q1355.3 1580.94 1357.94 1571.78 Q1360.61 1562.59 1360.61 1553.23 Q1360.61 1543.87 1357.94 1534.76 Q1355.3 1525.64 1349.91 1516.32 Z" fill="#000000" fill-rule="nonzero" fill-opacity="1" /><polyline clip-path="url(#clip840)" style="stroke:#000000; stroke-linecap:round; stroke-linejoin:round; stroke-width:4; stroke-opacity:1; fill:none" points="243.775,1392.94 243.775,847.244 "/>
<polyline clip-path="url(#clip840)" style="stroke:#000000; stroke-linecap:round; stroke-linejoin:round; stroke-width:4; stroke-opacity:1; fill:none" points="243.775,1374.22 262.673,1374.22 "/>
<polyline clip-path="url(#clip840)" style="stroke:#000000; stroke-linecap:round; stroke-linejoin:round; stroke-width:4; stroke-opacity:1; fill:none" points="243.775,1242.1 262.673,1242.1 "/>
<polyline clip-path="url(#clip840)" style="stroke:#000000; stroke-linecap:round; stroke-linejoin:round; stroke-width:4; stroke-opacity:1; fill:none" points="243.775,1109.97 262.673,1109.97 "/>
<polyline clip-path="url(#clip840)" style="stroke:#000000; stroke-linecap:round; stroke-linejoin:round; stroke-width:4; stroke-opacity:1; fill:none" points="243.775,977.849 262.673,977.849 "/>
<path clip-path="url(#clip840)" d="M189.859 1352.92 Q184.442 1352.92 181.699 1358.27 Q178.991 1363.58 178.991 1374.27 Q178.991 1384.93 181.699 1390.28 Q184.442 1395.59 189.859 1395.59 Q195.31 1395.59 198.018 1390.28 Q200.761 1384.93 200.761 1374.27 Q200.761 1363.58 198.018 1358.27 Q195.31 1352.92 189.859 1352.92 M189.859 1347.36 Q198.574 1347.36 203.157 1354.27 Q207.775 1361.15 207.775 1374.27 Q207.775 1387.36 203.157 1394.27 Q198.574 1401.15 189.859 1401.15 Q181.143 1401.15 176.525 1394.27 Q171.942 1387.36 171.942 1374.27 Q171.942 1361.15 176.525 1354.27 Q181.143 1347.36 189.859 1347.36 Z" fill="#000000" fill-rule="nonzero" fill-opacity="1" /><path clip-path="url(#clip840)" d="M130.831 1262.11 L142.29 1262.11 L142.29 1222.56 L129.824 1225.06 L129.824 1218.68 L142.22 1216.18 L149.234 1216.18 L149.234 1262.11 L160.692 1262.11 L160.692 1268.02 L130.831 1268.02 L130.831 1262.11 Z" fill="#000000" fill-rule="nonzero" fill-opacity="1" /><path clip-path="url(#clip840)" d="M189.859 1220.79 Q184.442 1220.79 181.699 1226.14 Q178.991 1231.45 178.991 1242.15 Q178.991 1252.81 181.699 1258.15 Q184.442 1263.47 189.859 1263.47 Q195.31 1263.47 198.018 1258.15 Q200.761 1252.81 200.761 1242.15 Q200.761 1231.45 198.018 1226.14 Q195.31 1220.79 189.859 1220.79 M189.859 1215.24 Q198.574 1215.24 203.157 1222.15 Q207.775 1229.02 207.775 1242.15 Q207.775 1255.24 203.157 1262.15 Q198.574 1269.02 189.859 1269.02 Q181.143 1269.02 176.525 1262.15 Q171.942 1255.24 171.942 1242.15 Q171.942 1229.02 176.525 1222.15 Q181.143 1215.24 189.859 1215.24 Z" fill="#000000" fill-rule="nonzero" fill-opacity="1" /><path clip-path="url(#clip840)" d="M135.658 1129.99 L160.137 1129.99 L160.137 1135.89 L127.22 1135.89 L127.22 1129.99 Q131.213 1125.86 138.088 1118.91 Q144.998 1111.93 146.769 1109.92 Q150.137 1106.14 151.456 1103.53 Q152.81 1100.89 152.81 1098.36 Q152.81 1094.23 149.894 1091.62 Q147.012 1089.02 142.359 1089.02 Q139.06 1089.02 135.38 1090.16 Q131.734 1091.31 127.567 1093.64 L127.567 1086.55 Q131.803 1084.85 135.484 1083.98 Q139.165 1083.11 142.22 1083.11 Q150.276 1083.11 155.067 1087.14 Q159.859 1091.17 159.859 1097.91 Q159.859 1101.1 158.644 1103.98 Q157.463 1106.83 154.303 1110.72 Q153.435 1111.73 148.783 1116.55 Q144.13 1121.34 135.658 1129.99 Z" fill="#000000" fill-rule="nonzero" fill-opacity="1" /><path clip-path="url(#clip840)" d="M189.859 1088.67 Q184.442 1088.67 181.699 1094.02 Q178.991 1099.33 178.991 1110.02 Q178.991 1120.68 181.699 1126.03 Q184.442 1131.34 189.859 1131.34 Q195.31 1131.34 198.018 1126.03 Q200.761 1120.68 200.761 1110.02 Q200.761 1099.33 198.018 1094.02 Q195.31 1088.67 189.859 1088.67 M189.859 1083.11 Q198.574 1083.11 203.157 1090.02 Q207.775 1096.9 207.775 1110.02 Q207.775 1123.11 203.157 1130.02 Q198.574 1136.9 189.859 1136.9 Q181.143 1136.9 176.525 1130.02 Q171.942 1123.11 171.942 1110.02 Q171.942 1096.9 176.525 1090.02 Q181.143 1083.11 189.859 1083.11 Z" fill="#000000" fill-rule="nonzero" fill-opacity="1" /><path clip-path="url(#clip840)" d="M150.866 975.817 Q155.901 976.894 158.713 980.296 Q161.56 983.699 161.56 988.699 Q161.56 996.373 156.283 1000.57 Q151.005 1004.78 141.283 1004.78 Q138.019 1004.78 134.547 1004.12 Q131.109 1003.49 127.428 1002.21 L127.428 995.435 Q130.345 997.137 133.817 998.005 Q137.29 998.873 141.074 998.873 Q147.671 998.873 151.109 996.269 Q154.581 993.664 154.581 988.699 Q154.581 984.116 151.352 981.546 Q148.158 978.942 142.428 978.942 L136.387 978.942 L136.387 973.178 L142.706 973.178 Q147.88 973.178 150.623 971.13 Q153.366 969.046 153.366 965.158 Q153.366 961.165 150.519 959.047 Q147.706 956.894 142.428 956.894 Q139.546 956.894 136.248 957.519 Q132.949 958.144 128.991 959.463 L128.991 953.213 Q132.984 952.102 136.456 951.547 Q139.963 950.991 143.053 950.991 Q151.039 950.991 155.692 954.637 Q160.345 958.248 160.345 964.428 Q160.345 968.734 157.88 971.72 Q155.414 974.671 150.866 975.817 Z" fill="#000000" fill-rule="nonzero" fill-opacity="1" /><path clip-path="url(#clip840)" d="M189.859 956.547 Q184.442 956.547 181.699 961.894 Q178.991 967.206 178.991 977.901 Q178.991 988.56 181.699 993.907 Q184.442 999.22 189.859 999.22 Q195.31 999.22 198.018 993.907 Q200.761 988.56 200.761 977.901 Q200.761 967.206 198.018 961.894 Q195.31 956.547 189.859 956.547 M189.859 950.991 Q198.574 950.991 203.157 957.901 Q207.775 964.776 207.775 977.901 Q207.775 990.991 203.157 997.901 Q198.574 1004.78 189.859 1004.78 Q181.143 1004.78 176.525 997.901 Q171.942 990.991 171.942 977.901 Q171.942 964.776 176.525 957.901 Q181.143 950.991 189.859 950.991 Z" fill="#000000" fill-rule="nonzero" fill-opacity="1" /><path clip-path="url(#clip840)" d="M17.2547 1205.65 L25.8831 1205.65 Q22.0348 1209.78 20.1308 1214.48 Q18.2269 1219.14 18.2269 1224.4 Q18.2269 1234.77 24.5868 1240.28 Q30.9062 1245.79 42.8969 1245.79 Q54.8471 1245.79 61.207 1240.28 Q67.5264 1234.77 67.5264 1224.4 Q67.5264 1219.14 65.6225 1214.48 Q63.7186 1209.78 59.8702 1205.65 L68.4176 1205.65 Q71.3343 1209.94 72.7926 1214.76 Q74.2509 1219.54 74.2509 1224.89 Q74.2509 1238.62 65.8655 1246.52 Q57.4397 1254.42 42.8969 1254.42 Q28.3137 1254.42 19.9283 1246.52 Q11.5024 1238.62 11.5024 1224.89 Q11.5024 1219.46 12.9607 1214.68 Q14.3786 1209.86 17.2547 1205.65 Z" fill="#000000" fill-rule="nonzero" fill-opacity="1" /><path clip-path="url(#clip840)" d="M47.758 1176.12 L51.6874 1176.12 Q50.7962 1178.1 50.3506 1180.25 Q49.905 1182.35 49.905 1184.66 Q49.905 1188.19 50.8367 1189.93 Q51.8089 1191.67 53.7128 1191.67 Q55.1712 1191.67 55.9813 1190.42 Q56.832 1189.16 57.5612 1185.39 L57.8853 1183.77 Q58.8575 1178.71 60.5589 1176.68 Q62.3008 1174.58 65.4199 1174.58 Q68.9442 1174.58 71.0102 1177.74 Q73.0762 1180.86 73.0762 1186.36 Q73.0762 1188.67 72.6711 1191.19 Q72.266 1193.66 71.4963 1196.41 L67.1618 1196.41 Q68.3771 1193.82 68.9847 1191.27 Q69.5924 1188.75 69.5924 1186.28 Q69.5924 1182.96 68.5797 1181.18 Q67.5669 1179.4 65.744 1179.4 Q64.0426 1179.4 63.1109 1180.69 Q62.3008 1181.83 61.369 1186.32 L61.045 1187.94 Q60.1943 1192.32 58.5334 1194.26 Q56.832 1196.21 53.8749 1196.21 Q50.3101 1196.21 48.3656 1193.33 Q46.3807 1190.5 46.3807 1185.23 Q46.3807 1182.64 46.7453 1180.33 Q47.0694 1178.02 47.758 1176.12 Z" fill="#000000" fill-rule="nonzero" fill-opacity="1" /><path clip-path="url(#clip840)" d="M10.1251 1144.48 Q19.4422 1149.91 28.5567 1152.54 Q37.6713 1155.17 47.0288 1155.17 Q56.3864 1155.17 65.582 1152.54 Q74.737 1149.87 84.0136 1144.48 L84.0136 1150.96 Q74.494 1157.04 65.2984 1160.07 Q56.1029 1163.07 47.0288 1163.07 Q37.9953 1163.07 28.8403 1160.07 Q19.6852 1157.08 10.1251 1150.96 L10.1251 1144.48 Z" fill="#000000" fill-rule="nonzero" fill-opacity="1" /><path clip-path="url(#clip840)" d="M49.8645 1100.16 Q41.7627 1100.16 37.3067 1103.52 Q32.8507 1106.85 32.8507 1112.88 Q32.8507 1118.88 37.3067 1122.24 Q41.7627 1125.56 49.8645 1125.56 Q57.9258 1125.56 62.3818 1122.24 Q66.8378 1118.88 66.8378 1112.88 Q66.8378 1106.85 62.3818 1103.52 Q57.9258 1100.16 49.8645 1100.16 M67.4454 1092.71 Q79.031 1092.71 84.6617 1097.85 Q90.333 1103 90.333 1113.61 Q90.333 1117.54 89.7254 1121.02 Q89.1582 1124.51 87.943 1127.79 L80.6919 1127.79 Q82.4743 1124.51 83.3249 1121.31 Q84.1756 1118.11 84.1756 1114.79 Q84.1756 1107.45 80.3273 1103.81 Q76.5194 1100.16 68.7822 1100.16 L65.0959 1100.16 Q69.1063 1102.47 71.0912 1106.08 Q73.0762 1109.68 73.0762 1114.7 Q73.0762 1123.05 66.7162 1128.15 Q60.3563 1133.26 49.8645 1133.26 Q39.3321 1133.26 32.9722 1128.15 Q26.6123 1123.05 26.6123 1114.7 Q26.6123 1109.68 28.5972 1106.08 Q30.5822 1102.47 34.5926 1100.16 L27.706 1100.16 L27.706 1092.71 L67.4454 1092.71 Z" fill="#000000" fill-rule="nonzero" fill-opacity="1" /><path clip-path="url(#clip840)" d="M12.5962 1064.11 L12.5962 1057.22 L80.7729 1078.29 L80.7729 1085.17 L12.5962 1064.11 Z" fill="#000000" fill-rule="nonzero" fill-opacity="1" /><path clip-path="url(#clip840)" d="M12.5962 1049.08 L12.5962 1040.9 L66.1896 1040.9 L66.1896 1011.45 L73.0762 1011.45 L73.0762 1049.08 L12.5962 1049.08 Z" fill="#000000" fill-rule="nonzero" fill-opacity="1" /><path clip-path="url(#clip840)" d="M10.1251 1004.36 L10.1251 997.876 Q19.6852 991.8 28.8403 988.802 Q37.9953 985.764 47.0288 985.764 Q56.1029 985.764 65.2984 988.802 Q74.494 991.8 84.0136 997.876 L84.0136 1004.36 Q74.737 998.97 65.582 996.337 Q56.3864 993.663 47.0288 993.663 Q37.6713 993.663 28.5567 996.337 Q19.4422 998.97 10.1251 1004.36 Z" fill="#000000" fill-rule="nonzero" fill-opacity="1" /><polyline clip-path="url(#clip843)" style="stroke:#3da44d; stroke-linecap:round; stroke-linejoin:round; stroke-width:12; stroke-opacity:1; fill:none" stroke-dasharray="48, 30" points="243.775,1361.01 384.374,1198.46 524.973,1200.73 665.571,1204.54 806.17,1205.28 946.769,1195.69 1087.37,1182.15 1227.97,1145.55 1368.56,1135.37 1509.16,1073.66 1649.76,1021.27 1790.36,967.586 1930.96,897.318 2071.56,865.584 2212.16,874.222 2352.76,884.803 "/>
<polyline clip-path="url(#clip843)" style="stroke:#c271d2; stroke-linecap:round; stroke-linejoin:round; stroke-width:12; stroke-opacity:1; fill:none" stroke-dasharray="48, 30" points="243.775,1361.01 384.374,1196.66 524.973,1197.41 665.571,1199.18 806.17,1197.34 946.769,1184.81 1087.37,1168.07 1227.97,1129.08 1368.56,1115.65 1509.16,1053.97 1649.76,1002.95 1790.36,952.628 1930.96,888.642 2071.56,862.688 2212.16,878.628 2352.76,900.541 "/>
<polyline clip-path="url(#clip843)" style="stroke:#ac8d18; stroke-linecap:round; stroke-linejoin:round; stroke-width:12; stroke-opacity:1; fill:none" stroke-dasharray="48, 30" points="243.775,1361.01 384.374,1196.69 524.973,1197.49 665.571,1199.33 806.17,1197.56 946.769,1185.13 1087.37,1168.5 1227.97,1129.62 1368.56,1116.39 1509.16,1054.84 1649.76,1003.99 1790.36,953.84 1930.96,889.88 2071.56,864.122 2212.16,880.716 2352.76,903.541 "/>
<polyline clip-path="url(#clip843)" style="stroke:#00a9ad; stroke-linecap:round; stroke-linejoin:round; stroke-width:12; stroke-opacity:1; fill:none" stroke-dasharray="48, 30" points="243.775,1361.01 384.374,1197.11 524.973,1198.35 665.571,1200.74 806.17,1199.65 946.769,1187.97 1087.37,1172.19 1227.97,1134.08 1368.56,1122 1509.16,1060.98 1649.76,1010.76 1790.36,961.088 1930.96,896.776 2071.56,871.683 2212.16,891.159 2352.76,917.657 "/>
<polyline clip-path="url(#clip843)" style="stroke:#ed5d92; stroke-linecap:round; stroke-linejoin:round; stroke-width:12; stroke-opacity:1; fill:none" stroke-dasharray="48, 30" points="243.775,1361.01 384.374,1199.93 524.973,1205.7 665.571,1215.01 806.17,1223.95 946.769,1225.78 1087.37,1227.99 1227.97,1210.05 1368.56,1229.08 1509.16,1190.97 1649.76,1167.35 1790.36,1141.62 1930.96,1077.83 2071.56,1077.48 2212.16,1185.15 2352.76,1318.88 "/>
<polyline clip-path="url(#clip843)" style="stroke:#c68125; stroke-linecap:round; stroke-linejoin:round; stroke-width:12; stroke-opacity:1; fill:none" stroke-dasharray="48, 30" points="243.775,1361.01 384.374,1199.02 524.973,1203.52 665.571,1210.69 806.17,1216.25 946.769,1213.22 1087.37,1208.63 1227.97,1182.77 1368.56,1189.54 1509.16,1141.97 1649.76,1107.48 1790.36,1071.87 1930.96,1007.32 2071.56,996.762 2212.16,1069.16 2352.76,1165.52 "/>
<polyline clip-path="url(#clip843)" style="stroke:#00a98d; stroke-linecap:round; stroke-linejoin:round; stroke-width:12; stroke-opacity:1; fill:none" stroke-dasharray="48, 30" points="243.775,1361.01 384.374,1199.38 524.973,1204.52 665.571,1212.76 806.17,1219.99 946.769,1219.32 1087.37,1218 1227.97,1195.94 1368.56,1208.57 1509.16,1165.52 1649.76,1136.26 1790.36,1105.43 1930.96,1041.28 2071.56,1035.66 2212.16,1125.14 2352.76,1242.03 "/>
<polyline clip-path="url(#clip843)" style="stroke:#8e971d; stroke-linecap:round; stroke-linejoin:round; stroke-width:12; stroke-opacity:1; fill:none" stroke-dasharray="48, 30" points="243.775,1361.01 384.374,1200.76 524.973,1207.74 665.571,1219.21 806.17,1231.87 946.769,1239.59 1087.37,1250.83 1227.97,1244.38 1368.56,1282.44 1509.16,1261.47 1649.76,1257.95 1790.36,1251.87 1930.96,1192.89 2071.56,1212.89 2212.16,1353.58 2352.76,1377.5 "/>
<polyline clip-path="url(#clip843)" style="stroke:#00a8cb; stroke-linecap:round; stroke-linejoin:round; stroke-width:12; stroke-opacity:1; fill:none" stroke-dasharray="48, 30" points="243.775,1361.01 384.374,1200.76 524.973,1207.74 665.571,1219.21 806.17,1231.87 946.769,1239.58 1087.37,1250.82 1227.97,1244.38 1368.56,1282.43 1509.16,1261.45 1649.76,1257.92 1790.36,1251.84 1930.96,1192.86 2071.56,1212.85 2212.16,1353.56 2352.76,1377.48 "/>
<polyline clip-path="url(#clip843)" style="stroke:#9b7fe8; stroke-linecap:round; stroke-linejoin:round; stroke-width:12; stroke-opacity:1; fill:none" stroke-dasharray="48, 30" points="243.775,1361.01 384.374,1200.69 524.973,1207.64 665.571,1219.06 806.17,1231.65 946.769,1239.27 1087.37,1250.36 1227.97,1243.75 1368.56,1281.45 1509.16,1260.1 1649.76,1256.21 1790.36,1249.8 1930.96,1190.79 2071.56,1210.48 2212.16,1351.39 2352.76,1376.43 "/>
</svg>
